<mxfile host="65bd71144e">
    <diagram id="kIfKJyEUIT78YduS9qEc" name="Page-1">
        <mxGraphModel dx="405" dy="380" grid="1" gridSize="10" guides="1" tooltips="1" connect="1" arrows="1" fold="1" page="1" pageScale="1" pageWidth="827" pageHeight="1169" background="#a5a1a1" math="0" shadow="0">
            <root>
                <mxCell id="0"/>
                <mxCell id="1" parent="0"/>
                <mxCell id="4" value="" style="shape=image;verticalLabelPosition=bottom;labelBackgroundColor=default;verticalAlign=top;aspect=fixed;imageAspect=0;image=data:image/png,iVBORw0KGgoAAAANSUhEUgAAAa0AAAFsCAYAAAB/4uYmAAAgAElEQVR4nO3dd3gU1f4G8He2pjdSSEjoqLRQVBCRFooIiKgIXlE6CIoNKz+5XJV77XoVuxQVRRS9ggWlKFWlCtIhlBBKIJRAQrLZTXZnfn9s2kLaZpM9M7vv53nyZMvs7DebPfvumTlzRlIURQEREZEG6EQXQEREVF0MLSIi0gyGFhERaQZDi4iINIOhRUREmsHQIiIizWBoERGRZjC0iIhIMwyiCyiRng7MmgXIsuhKiIj8V0gIMHUqEBkpupJyqSe0PvkEePNNwGgEDOopi4jIb+TnO3+3agX84x9ia6mAetKhuIdlsTC0iIhE2LULSE4GVDy7H/dpERGRZjC0iIhIMxhaRESkGQwtIiLSDIYWERFpBkOLiIg0g6FFRESawdAiIiLNYGgREZFmMLSIiEgzGFpERKQZDC0iItIMhhYREWmGX02nvmnzQXz6+RrY7Q7RpRCRhgUHm/Hk1NvQICFKdCl+x69C65/Pf4WcnHzRZRCRD3hr1k947eWRosvwO361eTA/v0B0CUTkIyz8PBHCr3paZf1r+l2IjAgWXQYRaci63/fhuyWbRJfh1/w2tG7o1AKRkSGiyyAiDSkosDO0BPOrzYNERKRtDC0iItIMhhYREWkGQ4uIiDSDoUVERJrB0CIiIs1gaBERkWYwtIiISDMYWkREpBkMLSIi0gyGFhERaQZDi4iINIOhRUREmsHQIiIizWBoERGRZjC0iIhIMxhaRESkGQwtIiLSDIYWERFpBkOLiIg0g6FFRESawdAiIiLNYGgREZFmMLSIiEgzGFpERKQZDC0iItIMhhYREWkGQ4uIiDSDoUVERJrB0CIiIs1gaBERkWYwtIiISDMYWkREpBkMLSIi0gyGFhERaQZDi4iINMMgugAiqh1WWyF+WbZNdBmaMWjAtTAa+RGoNfyPEfkIi8WGV17/XnQZmtGvb3uGlgbxP+YlqQczsPK3nRg7KgWBgSbR5ZAPG94jH3f3sIouQ7U+WxmIJRsCRJdBNcTQ8pKlP2/D19/+id27j+HtN8fCZOJLT3UjPlJGfJQsugzVqs/XRtM4EMNLQkMDAQDbdxzFczMXweFgwyEichdDy8tuvaMLVq3ZjVdeXwJFUUSXQ0SkKdxG5WUDB3eGzVqIH37aitDQQEyZ3B+SJIkui4hIExha3iYBw0b0gMViw4KF6xEWFohR9/YUXRURkSYwtASQJAmjxvdFvsWKDz5agbDQQNx+W2fRZRERqR73aQmi0+kw4cGBaNWmEV55/Xus+HWH6JKIiFSPoSWQ0WjAg1NvQ9Pm8Xhu5jf4Y8MB0SUREakaQ0uwgAATHnnqDsQnRGHa9AX4e0ea6JKIiFSLoaUCISGBmDptKMIjgjH1qfk4kJohuiQiIlViaKlERGQIHp92F4wmAx6eOg/Hjp0TXRIRkeowtFQkJi4CU6cNRaHdgSmPzUVm5kXRJRERqQpDS2USk2Lw2NN3IjvbgoemzsOFC7miSyIiUg2Glgo1bZ6AKVOH4GRGFh594lPk5XHGbiIigKGlWq3aNsL9UwYh9WAGHn96Pqy2QtElEREJx9BSsWs7XYXRE27G3zuOYvqMhbDbHaJLIiISiqGlcjf1bIvh9/bE73/ux8wXv4Us85QmROS/OPegBvQbcB3ycq34aclGhIYG4vFHb+XM8ETklxhaGjHkrq7Iy7Pi2+82Iiw0EBPH9xVdEhGR1zG0NEKSJNwzqjcseVbM+2w1QkMD8Y/hN4kui4jIqxhaGqLTSRg76Rbk5xfg7Xd/RmhoIAYNuFZ0WUREXsPQ0hiDQY/Jj9yKN1/6Fv95+Ts0b1Yf11zdQHRZRFRDBw+dgsViE12G05GzCAqORQvRdVSCoaVBJpMRw0b0xH9mLED6sbMMLSKNOnbsHO4b847oMlx1GIfXj+ZArTsfGFoeKCy0488NB9C9Wyuvj+YzmfmvI9K67BwLAGBI6wvo1viS4GqAQ+fN+GBjHPIK1HtoDT/5PFBQYMfTzy5A61aJeOD+m3Ftx2aiSyIiDera6BK6NhY/z2hcaCE+2BgnuoxK8eBiDxQWOmeo2LP3BB58ZC4efmwe9u0/IbgqIiLfxZ6WBy6fVmnz1kPYvPUQevVojfsn9EXjRrGCKiMi8k1+G1qPPz0fUZEh0Ol10Osk6PU6GIx6GA0GmEwGmM0GBAaaEBRkRnCQGcHBAQgNCUBISEDJ5ZxL+eWue/XaPVizbi8G3tIB48f2Qf24iEoqkZF7Ih07955HjsOEmOaN0aZFGMx182cTEWma34bW3n11uxlPURT89PM2LFuxA3fe3hkGg/7KheQcbF/wIz5Zdgp5kg56yHDIRsR16YUpk5KRYKzTEomINMevQqtdcmNs/euwV5/Tbnfg62/+LCe0ZJxa/gvmLjuH6JSBeOaea1BfPodNC5Zi/tpVmJtQH9PujPWvfxARURX86jPxlRfvxeYtB50DKBRAVhQosgK7Q4bD4YDd7kBBgQOFhXbYbIWw5BcgP78AFosNublWXMrNR26u1fmTZ4XVWr1zXIWFBqJ5s/rY9nda6Y0Fx/HbLydQkNQJo0a2LOpVxaDLqBQc2fsNVq/dgdRb+6KVqU5eCiIiTfKr0AoOMqNXjza1tr7de45h/KQPK7w/JjoM99x9E2679Xp8+dXvLqFlP5qGvVkSGnS/Bg1LNgPKOL83HSesgJJ3EvtPyGjVlAM8iYiK+VVo1Ta7o/wD8JKS6mHkiB7o3689jMbyX2JrRhayFCM6JEVADwD2HOz49hd8tvQECgJMkBzZyMx0AAwtIqISDC0P2Atdh7xffVUCRt3bAz26t4ZeX1nYyMjPtUGGCUFBEuxnD2PJh8uxYr8Dib0HYEzLI3j93VRY8+0AOBqDiKgYQ8sDxcdpdezQFKPu64FO1zWv5nROEiSdBEBB9p71eOP97ThYGI1ukwbg7m7R0G05AgXOWd2JiKgUQ8sD9etHYM6Hk9CmdUM3HykhKMQMvZKL7T/8hYCkNhg9JQU3JZkAKMjJzocNZoSE8t9DRFQWPxU94MmMF+YG0YjRH8aZJjfiyWk3onFg8T0OpB85B4c+ColJ3J9FRFQWPxUF0TdqitYxEuznsnCmQCm5Xb5wAGu35cHYrBmSo/nvISIqiz0tUQzx6D24Kf6cvR8L3gxE3q3NEes4h80//Im/86PQZ2gy4plZfk9RlJL9pKczLyIuNrxWToNzMs2I9DKzkEkSoDcoCAqW0SBGRiTH/5BKMbSE0SG6e39MyVuJ+Yt34Is3twMATPUaou+D/XBna84+SMD+Aycx77PVGD+mN+Z+ugpnz2Zj+F1d0btXmwoPp6iSrMfy70Lx8fHywk8B9AoSGxaiV2cr7r7ejnrlzEAmRIEO+9MMOHpBQj4U1Iuxo10jGeH8FPMr/HeLpAtEi4GDMbNvHk5nXILNGIzY+FAEsodFRRQFWP/7Pqz/fR9iY8Nx5kw2npu5CLPe+xl3DumMIbd1Qr2o0Jo/gVFGXKgCHQDZIeHSJQkWhw4n0sz4PM2EnzZZMX20BV3Da+1Pcpts0WPZ8iDM3WjESVvZoFVgCrOjT4oFD3a3ox7bjV9gaKmBKRj1GweLroJU7syZ7JLLWVm5mD3vN3wyfw369k7G8LtuRGys+8liaGLBvEm20g98u4TDB034cXUgvkvV40JaAP45V8GsKfloI2BKMTnbiLdnh2DRCR0UKJD0MiLDFZhsOpzNk1CQY8TPS8KwKyMXs+4u4CZ1P8DQ8jGyrJScnLJEmX0gVe4Nkaq7nFS95YoWqt5yUvWWcy2hGsv57vFudrsDvyzfjl+Wb0erlokAANmTM6UbFDRracOjVxeg4zfheHaDHpZjgXh7XQE+7OOAV7cUOvRY9EVRYEky2nTLw5P9CnB1iPPujAMBeGtRENadl3B8SzBeSrLjv91k79ZIXsfQ0rjtO9KwY2d6yfWIiGDcdmsXgRWpl6IoRb8BoOxl5/XSy0X3lrd86cUrH1Pmist6XR7jvEV2yLiUa4Ulz4Z8qw35+QXIz7chL78A+ZYCWPNtyLcWIOdSPjq0bwqrtaDKs2IXn25n3opAFMrAkC42hAcrlT6mQjoF3Qfn4Zb9ofjhgoS9m8zY3dOCdl78xMj6OxCfHXL2sJr2uIT/DrGj7IbQhKuteHEiMPXtIGy26LD1t0Bs6pSHG7k7WNV27DyKltckwmSq2ZuJoaVxaWlnXEJLp5Pw7XcbPVpnUmI0pj01FKGhgVUvrCHFPS7nL3G9r3PnczDt2fk4cza76oVrINeqw8q/zEhubEeH5vaaryiwEP3byli6Tg/HeSM2nQbaJdZenZWSdVi5wYQLCiCFFWB8X9fAKmaIs+L+Lmb89ZsBjmwTVhzIw43JXqqRamT+grU4dOg0xozqhYG3dHR7QBFDy8fIsoKcHItH69iz9xhWr92FwYM61VJVVNaWLQfrLLAMBj16tLHghZG5qHT6y2q6uqEdZuhhkfU4fBqAl0JLzjViQzoAKIi8xoYbK9nle1XbQiStNuCoLGHPYQMKk+2csVPFFAXIPJONl19bgs8+X4Mxo3phQP+O5Z8otxwMLY1r07ohunVtiQOpGVj5285aW2/xvIpU+wrtrr2f+PhIBAWaERRU9BNoRmCQGcEll00ICjRj7/7jWLZ8W7nrNBh0uHVQJxw/dg5tG+6olcACAFOEjCgdYJGBrGwdAE92mFWf/aQBh+3O+TlbNLYjoJJljQl2tDArOJoPZGbqkQs7Ir1SJdWEIpdusj51+iJefGUxPv18DcaOSkH/fu2rDC+GlsZd1SIeN/dtD4vFhskT+0FWFNgLr/xguWLPRjm7Ot6c9SO2bD0EAAgIMCAszAyXnTaVP7zcG8tfzrN1urNej+osZ52V7iG6fJ9YNfS/uSMefnBghfdbLDYcPpIJSQIs+QXlLnPjDVdj7Og+iIkJx/R/LajmM1ePZFZQvIuooMB7m1TzL+hwUQEgyYiPrOLV1MmICwOQL8GRq0OWA4is5HPPYnP+/nHpVgSYjZAkCZKEot9S6fWiia2LL0MCDqSeLFnPhQt5WLNuDyQUPVYnOR/jvAG6MuuFhKLrrvenpWV69kLVkUK7AxaLrczfhXJep9LL7lDKaR0ZGRfw75f+h0/nr8bY0Sno16ddheHF0PIRxd/SPZHYIApbtjovGw06BAbw7VEXTKbSblBwkBFRkRXvO8zIOIen/++zcu9r3qw+Hnt4IK7t2AwAkHUhF7t2p6N389qrVZGlkr6V3lDDQR01cCm/6HklIKiybhYA6BQEFg/HtwO2KhbPsThf/7dmLfWoxiNpmXjm2dr9kqAW3/+wBf9ee8qtx5QXajrnDS63WywV/4dOnMzCC//5Fp/MX41xo3ujb+/kK07zxE8lIi+THaUf/pWfd81V82b1cejwaURGBGPSxH4YNOBatx5fE3KuhJyicsNDvBdaZbYgoYJzrZZSUNq11VXjQ817f4ZfURTFZaStJ44fP4/nZi7C/C/W4r+vjUJcXETJfQwtIi9zlPkUrk7otG6ViHFjeqNNqyTMX7AOY0b2RHBwVd2P2pF5Su/cTKeT0TDGe5/2Qeai8Z2KhDxrFQsrEi4VfXmXghSEVbG1KsDk/Dt69WwDg14HWVagFB++oChF14sOYVAUyErpfYqCousKoBQdviCXuR/OwVDFl5Wi9RUfHqEUPbb4ssVSgBMnz9f4dfJVOp2EAf07YtR9PV0CC1BpaGXnWHDq1AXRZbho3DgWAWaOSSLPuYZW5Tudr7k6AXM+nFyy32DK5P51WpsLWYd1ewxwAJCC7GjvreHuAELDZARJQI4i4XSWBBlKxaekKNDjZDYAKAiLciCyiu8BEUU9xunT7kSwh5vUPbVr9zFMmPyh0BrKM/SOGzD7uQdKQrf0GMfSUC8b4igTxHJxoBcFtMt1AFMemYv0Y2fLfV69XodBA67FqHt7ICEhqtxlVBla/5r8DDYeCxFdhouuN16NN14ZJboM8gHu9LSqOwy4LpzfFYhvjjpH8MW1teEG73TuAACG+g4kScAeBTiUboStWwEq2vNnTTNgX6Gzzqsbc7h7bZIkCXp97Q7AiY4OvSK09HodBg+6DiPv7YH4+pWP/VRlaJ23OMt6sf9xwZU4/d+yJGRne3bsE1Exu6P0cIK63idVU2f2BeKfX5uRqQBScCFG9y6sMDTqgr5eITrEKNiTKSF7vwl/5BWgT3nHaskS1m0x4bwCwFyI7q0q6ZGRKpQdkGsw6HHbrddj5IjuV2wGrIgqQ0uCgs5JuUhpdkl0KQCAdvF5kH14/jryLnf3adUlpUCH9FN6ZAEotOlwOtOAv3absGKfHpdkCTDaMXh4HgZHe7kwgx39Ozqw6BcDCnJNmPOLEdffUYjwy16u87uD8NFOCQoU1G9vRZ/qfe6RSIoCk8mA2wd3woh7uiE2xr2JnlUZWkS+rGxoGQSHluNoEB54LaicexQExdowZlge7mkupvfSvJsFg7aG4ruzEo7+EYIHbfmYnGLDdXEKCrP12LIlEB+sNOGkDOijbHh4QGG5Uz2RugwccC1e+NdwREeH1ejxDC0iL1NTT8tJASTAZFIQGeFA00Q7rm9rw81tHKgn8hMiqBAPjbTg9Jwg/Jmtw6EtwXh8S3HAFm/5UGCqV4CHx+QhReA5v6j6Bt7S0aPHM7SIvKxsaOl0AkJL58DYx7Mw1vvP7LbAJCtenWrHd8sD8d0OI47mlYZVULgD119rxcgUG1qra9wW1SGGFpGXqa+npW6GcDuGDbuEYUMlrPw8AjO266BLzMfsx/LRjCfP8jtsMURextCqIZ2C1o0dMAFwZJjxbap0xfS9tvKnZyQfwp4WkZe5DMQwMLTcUb+9FV1XGrAqV4cl88OQ18OKlEYydHk67E8146c0B554JA/dubnQZzG0iLzMzp5WjenCC/DYMBvSvzDjcL4BK5aFYEXZBSQ9vt+Vj+5dvHMKFfI+hhaRl8kMLY/EJOfh46mFWLTajPVpepzKlSAFyGiYWIieXawY0pKB5csYWkRexn1anguuX4Ax/yjAGNGFkNexxRB5GUOLqObYYmpBXp4VZ8/liC6DNIKhRVRzbDG14HxWLu4Y9hrefPtHhhdVye7GqUmIyBVDq5YUFjqw6NsNDC+qEntaRDXHFlPLahpellMnsHNbOk5c4rnAfZ2j7KlJdDx7AJE7OHqwjhSH1+LvN+P22zpVuBnIdiYNaxb/ieW/n0K2HI6U/xuDEa35b/Fl7GkR1Zzh3tGzRNfgdNoOdBgHjHtPld2/gwdPoaLX6vjxcxU+rji8dEXfqC9eyEVMbARQcA4bvlqFxauO4TxCERumBy7WSemkMgwtopozHDp8WnQNpYJjgSOZuMrbJ5yrBqutEJ68VrLs3Ow3/YlPMGBwJwwe0hyZqVkI7dwd992RDPt38/De77VVLakZQ4uo5rgdyssG3NYJ/W65DpLBjIEzxmOwyQAd7NguujDyGgdHDxLVmOHj9+8XXYPTnDnAJ58A69bh9effEV3NFZo1jcPTTwwp977jJ85j5ovfVvjYsNBAXNUiHlu3HcGAwZ1hNDq/KxhN/M7gjzhhLlHNGZLbNhJdg1O4BFw6CbRpKLqScgUFmVHRaxUREVzu7WGhgbjn7ptw151dsPDrP7B125G6LJE0wiFz8yBRTfGrfh0oG1bBwQGiyyGVcdgZWkQ1xdCqRWGhgRjxj24YemcXBAeZRZdDKsWBGEQ1x9CqBWaTAZMn9mNYUbUwtIhqjqFVC+LiIjDqvp6iyyCNYGgR1RxDSxgrUlduxvZMGYCM80cLocCBw6vW4+vtEqSAOAwb2lJ0kVQHeOZioppjaIkiFyB941as2Od6ltX0DX8hHYAU3JKh5aNcelo6hhaROxhaoujC0PefU9FXdB3kddw8SFRzbDFEXsbQIqo5thgiL5JlGYpSevoZhhaRe9hiNOpk0czyksTzMWlJ8cTJxRhaRO5hi9GgA/uO49OPl6NBgyh0uq656HLIDWVHDgIMLSJ3scVozIF9x/HWK/9DTEwYPpg1ocJ5D0mdHAwtIo+wxWjI5YEVGxsuuiRyk1wmtHQ6iZt3idzEIe8acWDvcbz1alFgvTMBsTEMLC3iyEEiz7DVaAADy3cwtIg8w1ajcgws38LQIvIMW42KMbB8j51TOBF5hPu0VGr/3mN4+9XvEBsTjvffGc/A8hHsaRF5hq1GhRhYvsvhcJRcZmgRuY+tRmUYWL6NPS0iz7DVqMgVgXUyTXRJVMtcQsvA5kfkLrYalSgbWB+8OwGxWaeBfv2AnBzRpVEtYk+LyDNsNSqwf+8xvFUmsGKiw4B//xs4exZ4913R5VEtcg0tvcBKiLSJoSVYcWDVjy0TWAcOAF9+6VzgjTfY2/IhZYe8G9jTInIbW41AZQPr/XeKAgtw9rLkog+3rCz2tnyIzM2DRB5hqxFk354KAqtsL6sYe1s+g/u0iDzDViPAvj3H8PZr5QQWAMycWdrLKpaVBbzzjneLpDrB0CLyDFuNl+3fe7ziwNq/H1i4sPwHsrflExwupyZh8yNyF1uNl7396v+cgy4uDyzAdV/W5S5cYG/LB7CnReQZthovybNYAQCxsRH44J0JiL48sCrrZRVjb0vzOHqQyDNsNV7Su1cyutxwFeZ8OOnKwAIq72UVY29L89jTIvIMW42XtGmdhP++NvrKTYJA9XpZxdjb0jSGFpFneGoSNUhNBR58sPR6Rgbwv/+VXn/oIdfl9+0DOnf2Tm1UqxhaRJ5haKnB4MHOn2JlQys0FJg1S0xdVOtcTk3CCXOpyIyVibihYa7oMnD4vFl0CVViaJEm2e0OnD2Xg/j6kaJLcQt7WlRWQkIk2rZpiPNZl3DQGi26HMgGGxpb0tE6roXoUirE0CJN+nXVLjw3cxEmjOuDcaNTRJdTbQwtKqteVChmfzBJdBmldu0CkpOB8J6iK6kQWw1pUk6OBQAwe+6v+GXZdsHVVB+HvBN5hq2GNMlgcJ7Wo150GGa+9C3Wrd8ruKLqkR1KyWWemoTIfQwt0rSHn7gdDZKi8ey/FuKvbYdFl1Mll4EY7GkRuY2thjQtMMiMqc8MRVS9MDzx9OfYu++E6JIq5Tr3oCSwEiJtYmiR5oWFB+Px/7sLAUEmPPrEJ0hLyxRdUoU4EIPIMwbMmye6BqftRTvTP/lEbB0VOXMGXnutMjK88zw+pF50GB6fdhdefuErPDR1Hj5+fxIS4tU3HJ6hReQZA8aNE12Dq4kTgSGPiq7iSocOAeP+JboKqkR8g3qY+sxQvDrzazz02Fx8/N79qFcvVHRZLlxHD3IgBpG7+FVP7aLFH3CoJY2axOHhJ27HmTPZeHjqPFy6lC+6JBfsaRF5xoBhw0TX4LR7N7B3LzB0KGAXXUw56kXD66+V0Qg88YR3n9MHXN0qCZMfGYx331yCqU99hllvjkVgoEl0WQAYWkSeMuDrr0XX4DRjhjO0Fi4E7npSdDVXuvoq4IM3RVdB1dSuYzOMmzwAs99bimemL8DrL98Ho1H8BDAMLSLPsNWQz7qha0uMGN0bmzYfxHMzF7kEhiguocUJc4ncJv6rJ1EdSunXAZY8GxZ/8zuCg5dg2lO3Q5LEHR/FnhaRZxha5PMGDumMvLx8/PDTVoSHB+HBSf2F1cIZMYg8w9AinydJEoaN6AlLng2fL1iH0NBAjBzRQ0gtjjJzD3LCXCL3MbTIL0iShJHj+8FiseH9D5cjLDQQQwZ38nodrtM4MbSI3MVWQ35Dr9dh4pSBaNmmIV5+bQlW/rbT6zVwnxaRZ9hqyK8YjQZMmToETZvF47mZi7BhY6pXn5+hReQZthryOwEBJjzy9B2oHx+Fp5/9Ajt2HvXac3MgBpFnuE+L/FJISCCmThuKl59fiKlPfYYP3pmAq1ok1PnzeqOn9c4PQTh5noFYkW/WB4ougTzA0CK/FREZgsen3YWXnl+Ih6d+go/fvx8Nk+p2rkfXCXNrN1gkAAEBRtjtMn7cElar6/YlBoMMAw/s1iyGFvm1mLgITJ02FK+88BUeenQu5n40GdHRdfeBX5c9rcjIEKxZ+XytrpNIbfh1g/xeYlIMJj88GJlnsvHb6t11+lyuocVTkxC5i6FFBCCpUQwA1Pn8hBw9SOQZthoiL+KEuUSeYash8iL2tIg8w1ZDqnL2XA6stkLRZdQZl9DSiZttnkirOHqQVOWvbUfw5ls/YsAtHXH7bZ3QqGGMm2uQkXsiHTv3nkeOw4SY5o3RpkUYzHVSrfs4EIPIM6oMLQUSNh0PwbRliaJLAQDsOBWMNlFK1QuSxyLCg5BzKR9fLfoDXy36Ax3bN8GQ2zqhZ/fWMJmqeLvKOdi+4Ed8suwU8iQd9JDhkI2I69ILUyYlI8Honb+hMtw8SOQZVYZWt0EDkLdiOw5ao0SXAgBISFDQrWtL0WX4hYiIYJfr2/5Ow7a/0xAREYxBA67FkMHXI7FBvXIeKePU8l8wd9k5RKcMxDP3XIP68jlsWrAU89euwtyE+ph2Z6zwNzxDi8gzottwuSaO64OJ4/qILsPv2MrsS9qy9RBatUxE+3aNvXoKjctDq9jFi3n44st1+OLLdeh0XXMkJES6LlBwHL/9cgIFSZ0wamTLol5VDLqMSsGRvd9g9dodSL21L1qZ6vxPqBRDi8gzqgwt8i673YF33v8FPy/bXnLbpi2HsGnLIRgMOsTHR8Jscm5bUxQFilL8u8xlKIACyLLzsqIAKLpfLloWJcsCiqyUXi5Zl4L8/KoHYWzeeqjk8vKlW3HXPd0hHU3D3iwJDbpfg4YlmwFlnN+bjhNWQMk7if0nZLRqKjYoGFpEnmFoEf75/NdYvab8mSDsdhnHj5/3ckXVd02rJBiNBuRmZCFLMaJDUgT0AGDPwY5vf8FnS0+gIMAEyZGNzEwHwNAi0jS2Gj+3Y+fRCgNLrUJCAiB8LvsAABFtSURBVNCndzIAoFGTOAAy8nNtkGFCUJAE+9nD+PalL/Dej2cQ0WsAnh7bFMGSDGu+XWzhAOxlTk1S2xPmEvkD9rT83KbNB6u97Kz/joXZZIAkSdDpJAASJMl5KvvS36WXAUCnK7oNAIru00k6oJLHjR7/Hi5ezCu3hoG3dMSDk/tjzdo9+LXkzMMSJJ0EQEH2nvV44/3tOFgYjW6TBuDubtHQbTkCpagW0djTIvIMQ8vPGY3VewtIEtChXeNqL++Jq1rEY/OWQy63NW9WH09OHYx2yY3Lqw5BIWbolVxs/+EvBCS1wegpKbgpyQRAQU52PmwwIyRU/NudoUXkGbYaP9end3KVPRBJAvr2TvZKYAFAZJkRhEFBZkx9ZBA+nfNgBYHlZG4QjRg9YGx+I558rn9RYAGAA+lHzsGhj0Jikvi3O0OLyDNsNX4uKbFeyeEFUgXZVS8qFJMm3uy1miLCnaHV/+b2+ObLqRg29EYYDJXPHqFv1BStYyTYz2XhTEHpgeDyhQNYuy0PxmbNkBwt/u3uOmEuZ8Qgcpf47SUk3OiRvdCgQT18NHslTpx0HSnYqGE0Pnh3IqIiQ7xWT9u2DdGzR2t0aN+k+g8yxKP34Kb4c/Z+LHgzEHm3Nkes4xw2//An/s6PQp+hyYgXnFmKokCWSwOVcw8SuY+hRQCcm//6pLRF2tEzmPfpKvy6ahcAoHu3Vl4NLADok5Jcg0fpEN29P6bkrcT8xTvwxZvOY85M9Rqi74P9cGdr8bMPlg0sgJsHiWqCoUUlJElC0yZxSEwsb5okDdAFosXAwZjZNw+nMy7BZgxGbHwoAlWSDZefYJKhReQ+hhb5HlMw6jcufzookRhaRJ5jqyHykstDy5tzOhL5CrYaIi/hcHciz7HlEHkJp3Ai8hxbDpGXsKdF5Dm2HCIvcT2wmE2PqCbYcoi8xLWnxdkwiGqCoUXkJdw8SOQ5HqdFVMax4+cw8YGP6mTdR9IySy6r4TQpRFrE0CIqw2otwM5d6XX+PBw9SFQzbDlEAtzQ+SrRJRBpkqp6WscDInFsYyqggp3UQYEmtG/XuOQMvOQfGiRE4a3XR9fpcxhNBrSv5NxgRFQxVYXWk62G4ui0L0SXUeLFmfcgpWcb0WWQFwUHB7AXRKRiqgqti8YgJIXb8GxKhtA6jl4w4+U1CbDZCoXWQURErlQVWjpFRnJ8Adon5AutIzzAUfVCRETkdRyIQUREmsHQIiIizWBoERGRZjC0iIhIMxhaRESkGaoaPUhE5E8Wf78JO3cdE11GqYsXgBaDoF99AiO6ZKJJkzjRFV2BoUVEJMi7HyxDXp4N0UEqOia0yTU4t/8iolb8jQfuv1l0NVdgaBERCaLX6TCk1QU80+uU6FJc3PBeK9ElVIj7tIiISDMYWkREpBkMLSIi0gyGFhERaQZDi4iINIOhRaqxbfsRyLJcK+uynDqBndvSceKSUivrIyJ14JB3Uo1X3/gekiRh/Nje6NWjNXQ6979T2c6kYc3iP7H891PIlsOR8n9jMKI13+ZEvoKtmVQl7egZPDtjIZo0jsW4MSlI6dmmeuFVcA4bvlqFxauO4TxCERumBy7Wfb1E5F3cPEiqlHb0DKb/6yuMGDULv67aWfVmQ72MzNQshHbujkdfGYVhbcyQvFMqEXkRe1qkasXhVWXPSx+LgTPGY7DJAB3s2O79UonICwx9bnlBdA1OVjvyjMEAskVXUuLl15bgjbd+FF2G19lspfOgfbXoDyz+frNXnjc311rhfcXh1bhxLMaPSYGiXDnAwmjidzAiX2eo7IPC6yR1bdCx2QpdPsD9UWGhA4WFDtFllDhaFF7x9SNFl0JEAnCfFmlKUKAJo0f2xNA7bhBdChEJYPj+26dE1+D0xhsYtTZHdBUuHntoIHr2aC26DK/74st1+Oa7jQCAO4Z0xqh7e3jlee++7y3k5xeUe19QoAnD7+qKu4d3RXhYEL5bsskrNRGRuhji4iJE1+AUIEEHdR0IGhYeBNW8Pl4UHBJQejnY7LXXIC42HEfTz7rcdnlYEZF/455rUiWGFRGVh6FFqlLzsLIideVmbM+UAcg4f7QQChw4vGo9vt4uQQqIw7ChLeuqbCLyEoYWqcbdw7qiV882NetZyQVI37gVK/a5HoScvuEvpAOQglsytIh8AEOLVGPI4E41f7AuDH3/ORV9a68cIlIhDnknIiLNYGgRAXA4aueUKERUPXa7A+nHzla94GUYWuT3HA4ZX362CgCQ2CBKcDVE/sFud+Due9/CczMXuRVe3KdFfs3hkDH7vaX4a3MqJoztje7dWokuichvKIqCZSv+xvKVO9CvTzLGjk5Bo4YxlT6GoUV+qziwtmw8gAlje2PcmN6iSyLyS4qiYPnKHVjx607065OMMaN6oXGj2HKXZWiRX2JgEalPdcKLoUV+x+GQ8fG7S7F10wFMGNcH40aniC6J3HQgNQMvvboYVmv5c1VqRW6eis6ycZnvf9iMdev31tn6rdaKz6BRHF7OzYbtMHZ0aXgxtMivMLB8w9vv/oz9B06KLsOnZefkIzsnX3QZWPHrDqz4dQduv60THn/0VoYW+Q8Glu/w9/Pc+ZOgQBPuHtYVw4d1hcGgZ2iRfygbWBPH98HYUQwsXzFpQl90ur6F6DJq5KFH54ouoUIDbumIobfX3XnrrNYCPPDwnArvLxtWZad2Y2iRz3MG1k/YuimVgeWDWrZMRKuWiaLLqBG9Xr2HykbXC63T17Wi/ZFBQWbcfdeNV4RVMYYW+TQGFpE2VBVWxRha5LMcDhlz3l6CrVuP4P7xfTFmVC/RJRHRZaobVsUYWuST7HYHZr+3FDcumo0eD0/BnQwsIlWRJAljR/WqdlgVU+8GVaIaKg6stPXbMOzsdty591fRJRHRZcxmIyaO7+v2+fMYWuRTigNr66ZUvBp+EobCQuCLL4CDB0WXRkS1gKFFPqNsYD02tANar1vqvEOWgZkzxRZHRLWCoUU+wW53FB2HlYpJE/pi+JHfAZutdIEFC4DUVHEFElGtYGiR5hUH1l+bnYE1us/VwEcfuS4ky8C//y2mQCKqNQwt0rTimS7+2pyKyRP7YfTIXsArr7j2soqxt0WkeQwt0rSP3/2pJLBG3dcTyMi4spdVjL0tIs1jaJEm2e0OAEDa4dOlgQVU3Msqxt4WkaYxtEiToqJCAAD3jeheGliV9bKKsbdFpGmcEYM0qXevtmjerL7rWU2r6mUVW7AAmD4duOqquiuQiOoEe1qkSZIkuQbWqVPA7NmAJJX+XPkg54+iAP/5j/eKJaJaw9Ai3xAfD1gszs1/xT8pZWZ0X7LE9b7PPhNXKxHVGEOLiIg0g6FFRESawdAiIiLNYGgREZFmGLBnj+ganM6cAWASXYWrkyeBPSqryRvOni1z+RxU8x5xl1brJqIKGdCmjegaSnV6SHQFrp55Bjjrhx98jboDSV2dl+fNBWasEVsPEVERbh4k/2A2i66AiGqBAQ0biq7B6eJF0RVcqV49IFAlr483hYWXuRwG1bxHaqpXL6B3b9FVEFEtMCA9XXQNTjNmAMtVFlxvvQXc3EF0Fd43ewUwv2iT4OTJwKT+YushIirCzYNERKQZDC0iItIMhhYREWkGQ4uIiDSDoUVERJrB0CIiIs1gaBERkWYwtIiISDMYWkREpBkMLSIi0gyGFhERaQZDi4iINMMgugBSt9xcK3JzraLLIHKRl8f3pL9iaFGlFn+/GYu/3yy6DCIiANw8SOXQ6/m2IO0wGPSiSyAvYk+LrjCwf0esWLkDJ05miS6FqEKSBNzQqQVat0oSXQp5EUOLrpCQEIVvFj4uugwioitwOxAREWkGQ4uIiDRDd+/od/HIZ8dQKLoSIiKiKugOpVmQ2DoeRtGVEBERVcGgT2qLW9qpI7JkSYel+yNwIltsPccumoU+PxERlc/QoncHXKOOzMIdp7Zhyy3/gKITu6stsZ6CJgY9OrZvIrQOIvJtdoeMJXsjkZnLgdzVZejXL1Y1494nHluPie+uAgxqqYiIqO4MGtAR27an4Szqiy7FyWoFDhxAi0Yx6NyphehqymXoE88BhEREIkx95FbRJbjatQtIfhp4cgHQoanoasqli2VmERGRRjCyiIhIM7jziPyaI/Nv/Pe1bTjm8GAlkgHt7r0H4zpe1pwcF7F81hIsPSYDAAzNOuHZB9qgnjtfFXP24b2ZG3DADgA6JPW/DU/eHFnOgjJOr/wJr/x8DuX+KZIEnU4Hg8mI4LAQxMTVQ/O2zdG5XRwiVTIQi6g6GFrk3yxZ2L31EPZ7ElowIugWuZzbbTi55xA2HygKrcKrYHNzzXLBRezbeghbi0Irp23Fa8jPOI7NW0+WH1oVMEQ2QO+hvTFh+DVI5JEepAHcPEjkx+wXTmL57M8x9uFl2HC+vOAlUhf2tIhK6NDyvjGY3jcEkluPkxAco7KmpG+AUW/ciZujyvwligxbXh7OnjyNXZv3YNnadJwtAAAFOXvXY8YLofj4ja5oorI/hagsvj2JSkgwh0ehSZNI7W+CkIyISIhF03IOaWnZtjm6978Jow9txMxnfsKaTBmAgkvbV+PjVe3wn34h2v/7yWfxvUnkp4Kb34BnH+uIuOJPAcWCzWsPIVdoVUSVY2gR+bHQ61qjc5lNiNbjZ3DSLrAgoiowtIj8mT4ccfVKQ0uxWmHheAxSMYYWkV9zoLDMyfQksxkB7o1CIfIqhhaRPys4j+NnlZKrpoRoJPJgY1Ixjh4kKqEgc+ufmJPr5lG2kh5NenRH32b6ytd+5hC++cSKQHfWbcvAaaXqxWpGRtYfu7Ett/gJjGh9fVOE1tXTEdUChhZRCRmnNv6BeRvdfZwRPZO6VhlajlOpWPhpao2rq22OzD14Z85eXCjKLF1sWwzr5wPD/cmnMbSI/I3dgkO/b8BHH6zF+oyiURfGaNz62M24KUxsaURVYWgRldChYZ9+uKdDgHsPk/Ro0KrqpqRPaofJdzdBiDvrzk/H1x9sR5q7cyPKZ7Hsra+w01R6k2IvwKWLOcg4ehancsusMDAOg54YgcdvCmUvi1SPoUVUQkLUNW0xeHDdbCKTohogZVAnJLixcvmcA79+uB1p7j6ZnIcDf+7GgcqW0ZmRdH0nTHggBf2acrZc0gaGFpGfMjfvghkv9EPbINGVEFUfQ4vIF+kTMPyFgegVUXbC3Hz89en/MGerBQoAW+o6zHgtDu9Pb4f4yseQEKkGQ4vIF0km1G/RCO0vmzA3+Z934uyUL7HkuAOAjFO/LcH0pEjMGtsQwWIqJXIL97sS+RFdVEs89nxfdAwt6oEpNuyZvxAvrbjg1skjiURhaBH5GXOLm/D8Ux3QoHiToCMbv72xEHN2WoXWRVQdDC0iv6NDTM/BeGF0I4QUd7gsJzD/+e/wcwZnyyV1Y2gR+SUTWt83HE/1jkBJh+vMbrw+YyW2XxJaGFGlGFpE/kofgX5PDseolqVHIFsOrMeMl7biOM+pRSrF0CLyZ0GNMO65wegVXfxRIOPs+h8x/eMjyBFaGFH5OOSdqIQD+76Yg2GL3TyhlGRC5ymT8WRXbZ7TQ5/QEf834wwynlqHA1YAKMSBr7/GzMTxeHFwDLT5V5GvYmgRlWG7eAEnLrr7KCOaW+rs/CFeEdqhL1546AweeGM/zssA5EtYP2sh3k8Yj4euC+ImGVINvheJCIAejQYNxYw74lAyC6HtNL6e+Q2WHOUOLlIPSVEUdXxFnDEDmDkTKCwEDOwAEhF53a5dQHIysGABcM89oqspF3taRESkGQwtIiLSDIYWERFpBkOLiIg0Q30jHv74gwMxiIhE2LVLdAVVUk86BAY6f/fsKbYOIiJ/FxEhuoIKqWfIe2EhsGoVYOcxIUREwhiNQJ8+gE6de4/UE1pERERVUGeUEhERlYOhRUREmsHQIiIizWBoERGRZvw/8vf8VJxxCZwAAAAASUVORK5CYII=;" parent="1" vertex="1">
                    <mxGeometry x="270" y="160" width="99" height="84.01" as="geometry"/>
                </mxCell>
                <mxCell id="5" value="" style="shape=image;verticalLabelPosition=bottom;labelBackgroundColor=default;verticalAlign=top;aspect=fixed;imageAspect=0;image=data:image/png,iVBORw0KGgoAAAANSUhEUgAAAa0AAAFsCAYAAAB/4uYmAAAgAElEQVR4nO3dd3gU1f4G8He2pjdSSEjoqLRQVBCRFooIiKgIXlE6CIoNKz+5XJV77XoVuxQVRRS9ggWlKFWlCtIhlBBKIJRAQrLZTXZnfn9s2kLaZpM9M7vv53nyZMvs7DebPfvumTlzRlIURQEREZEG6EQXQEREVF0MLSIi0gyGFhERaQZDi4iINIOhRUREmsHQIiIizWBoERGRZjC0iIhIMwyiCyiRng7MmgXIsuhKiIj8V0gIMHUqEBkpupJyqSe0PvkEePNNwGgEDOopi4jIb+TnO3+3agX84x9ia6mAetKhuIdlsTC0iIhE2LULSE4GVDy7H/dpERGRZjC0iIhIMxhaRESkGQwtIiLSDIYWERFpBkOLiIg0g6FFRESawdAiIiLNYGgREZFmMLSIiEgzGFpERKQZDC0iItIMhhYREWmGX02nvmnzQXz6+RrY7Q7RpRCRhgUHm/Hk1NvQICFKdCl+x69C65/Pf4WcnHzRZRCRD3hr1k947eWRosvwO361eTA/v0B0CUTkIyz8PBHCr3paZf1r+l2IjAgWXQYRaci63/fhuyWbRJfh1/w2tG7o1AKRkSGiyyAiDSkosDO0BPOrzYNERKRtDC0iItIMhhYREWkGQ4uIiDSDoUVERJrB0CIiIs1gaBERkWYwtIiISDMYWkREpBkMLSIi0gyGFhERaQZDi4iINIOhRUREmsHQIiIizWBoERGRZjC0iIhIMxhaRESkGQwtIiLSDIYWERFpBkOLiIg0g6FFRESawdAiIiLNYGgREZFmMLSIiEgzGFpERKQZDC0iItIMhhYREWkGQ4uIiDSDoUVERJrB0CIiIs1gaBERkWYwtIiISDMYWkREpBkMLSIi0gyGFhERaQZDi4iINMMgugAiqh1WWyF+WbZNdBmaMWjAtTAa+RGoNfyPEfkIi8WGV17/XnQZmtGvb3uGlgbxP+YlqQczsPK3nRg7KgWBgSbR5ZAPG94jH3f3sIouQ7U+WxmIJRsCRJdBNcTQ8pKlP2/D19/+id27j+HtN8fCZOJLT3UjPlJGfJQsugzVqs/XRtM4EMNLQkMDAQDbdxzFczMXweFgwyEichdDy8tuvaMLVq3ZjVdeXwJFUUSXQ0SkKdxG5WUDB3eGzVqIH37aitDQQEyZ3B+SJIkui4hIExha3iYBw0b0gMViw4KF6xEWFohR9/YUXRURkSYwtASQJAmjxvdFvsWKDz5agbDQQNx+W2fRZRERqR73aQmi0+kw4cGBaNWmEV55/Xus+HWH6JKIiFSPoSWQ0WjAg1NvQ9Pm8Xhu5jf4Y8MB0SUREakaQ0uwgAATHnnqDsQnRGHa9AX4e0ea6JKIiFSLoaUCISGBmDptKMIjgjH1qfk4kJohuiQiIlViaKlERGQIHp92F4wmAx6eOg/Hjp0TXRIRkeowtFQkJi4CU6cNRaHdgSmPzUVm5kXRJRERqQpDS2USk2Lw2NN3IjvbgoemzsOFC7miSyIiUg2Glgo1bZ6AKVOH4GRGFh594lPk5XHGbiIigKGlWq3aNsL9UwYh9WAGHn96Pqy2QtElEREJx9BSsWs7XYXRE27G3zuOYvqMhbDbHaJLIiISiqGlcjf1bIvh9/bE73/ux8wXv4Us85QmROS/OPegBvQbcB3ycq34aclGhIYG4vFHb+XM8ETklxhaGjHkrq7Iy7Pi2+82Iiw0EBPH9xVdEhGR1zG0NEKSJNwzqjcseVbM+2w1QkMD8Y/hN4kui4jIqxhaGqLTSRg76Rbk5xfg7Xd/RmhoIAYNuFZ0WUREXsPQ0hiDQY/Jj9yKN1/6Fv95+Ts0b1Yf11zdQHRZRFRDBw+dgsViE12G05GzCAqORQvRdVSCoaVBJpMRw0b0xH9mLED6sbMMLSKNOnbsHO4b847oMlx1GIfXj+ZArTsfGFoeKCy0488NB9C9Wyuvj+YzmfmvI9K67BwLAGBI6wvo1viS4GqAQ+fN+GBjHPIK1HtoDT/5PFBQYMfTzy5A61aJeOD+m3Ftx2aiSyIiDera6BK6NhY/z2hcaCE+2BgnuoxK8eBiDxQWOmeo2LP3BB58ZC4efmwe9u0/IbgqIiLfxZ6WBy6fVmnz1kPYvPUQevVojfsn9EXjRrGCKiMi8k1+G1qPPz0fUZEh0Ol10Osk6PU6GIx6GA0GmEwGmM0GBAaaEBRkRnCQGcHBAQgNCUBISEDJ5ZxL+eWue/XaPVizbi8G3tIB48f2Qf24iEoqkZF7Ih07955HjsOEmOaN0aZFGMx182cTEWma34bW3n11uxlPURT89PM2LFuxA3fe3hkGg/7KheQcbF/wIz5Zdgp5kg56yHDIRsR16YUpk5KRYKzTEomINMevQqtdcmNs/euwV5/Tbnfg62/+LCe0ZJxa/gvmLjuH6JSBeOaea1BfPodNC5Zi/tpVmJtQH9PujPWvfxARURX86jPxlRfvxeYtB50DKBRAVhQosgK7Q4bD4YDd7kBBgQOFhXbYbIWw5BcgP78AFosNublWXMrNR26u1fmTZ4XVWr1zXIWFBqJ5s/rY9nda6Y0Fx/HbLydQkNQJo0a2LOpVxaDLqBQc2fsNVq/dgdRb+6KVqU5eCiIiTfKr0AoOMqNXjza1tr7de45h/KQPK7w/JjoM99x9E2679Xp8+dXvLqFlP5qGvVkSGnS/Bg1LNgPKOL83HSesgJJ3EvtPyGjVlAM8iYiK+VVo1Ta7o/wD8JKS6mHkiB7o3689jMbyX2JrRhayFCM6JEVADwD2HOz49hd8tvQECgJMkBzZyMx0AAwtIqISDC0P2Atdh7xffVUCRt3bAz26t4ZeX1nYyMjPtUGGCUFBEuxnD2PJh8uxYr8Dib0HYEzLI3j93VRY8+0AOBqDiKgYQ8sDxcdpdezQFKPu64FO1zWv5nROEiSdBEBB9p71eOP97ThYGI1ukwbg7m7R0G05AgXOWd2JiKgUQ8sD9etHYM6Hk9CmdUM3HykhKMQMvZKL7T/8hYCkNhg9JQU3JZkAKMjJzocNZoSE8t9DRFQWPxU94MmMF+YG0YjRH8aZJjfiyWk3onFg8T0OpB85B4c+ColJ3J9FRFQWPxUF0TdqitYxEuznsnCmQCm5Xb5wAGu35cHYrBmSo/nvISIqiz0tUQzx6D24Kf6cvR8L3gxE3q3NEes4h80//Im/86PQZ2gy4plZfk9RlJL9pKczLyIuNrxWToNzMs2I9DKzkEkSoDcoCAqW0SBGRiTH/5BKMbSE0SG6e39MyVuJ+Yt34Is3twMATPUaou+D/XBna84+SMD+Aycx77PVGD+mN+Z+ugpnz2Zj+F1d0btXmwoPp6iSrMfy70Lx8fHywk8B9AoSGxaiV2cr7r7ejnrlzEAmRIEO+9MMOHpBQj4U1Iuxo10jGeH8FPMr/HeLpAtEi4GDMbNvHk5nXILNGIzY+FAEsodFRRQFWP/7Pqz/fR9iY8Nx5kw2npu5CLPe+xl3DumMIbd1Qr2o0Jo/gVFGXKgCHQDZIeHSJQkWhw4n0sz4PM2EnzZZMX20BV3Da+1Pcpts0WPZ8iDM3WjESVvZoFVgCrOjT4oFD3a3ox7bjV9gaKmBKRj1GweLroJU7syZ7JLLWVm5mD3vN3wyfw369k7G8LtuRGys+8liaGLBvEm20g98u4TDB034cXUgvkvV40JaAP45V8GsKfloI2BKMTnbiLdnh2DRCR0UKJD0MiLDFZhsOpzNk1CQY8TPS8KwKyMXs+4u4CZ1P8DQ8jGyrJScnLJEmX0gVe4Nkaq7nFS95YoWqt5yUvWWcy2hGsv57vFudrsDvyzfjl+Wb0erlokAANmTM6UbFDRracOjVxeg4zfheHaDHpZjgXh7XQE+7OOAV7cUOvRY9EVRYEky2nTLw5P9CnB1iPPujAMBeGtRENadl3B8SzBeSrLjv91k79ZIXsfQ0rjtO9KwY2d6yfWIiGDcdmsXgRWpl6IoRb8BoOxl5/XSy0X3lrd86cUrH1Pmist6XR7jvEV2yLiUa4Ulz4Z8qw35+QXIz7chL78A+ZYCWPNtyLcWIOdSPjq0bwqrtaDKs2IXn25n3opAFMrAkC42hAcrlT6mQjoF3Qfn4Zb9ofjhgoS9m8zY3dOCdl78xMj6OxCfHXL2sJr2uIT/DrGj7IbQhKuteHEiMPXtIGy26LD1t0Bs6pSHG7k7WNV27DyKltckwmSq2ZuJoaVxaWlnXEJLp5Pw7XcbPVpnUmI0pj01FKGhgVUvrCHFPS7nL3G9r3PnczDt2fk4cza76oVrINeqw8q/zEhubEeH5vaaryiwEP3byli6Tg/HeSM2nQbaJdZenZWSdVi5wYQLCiCFFWB8X9fAKmaIs+L+Lmb89ZsBjmwTVhzIw43JXqqRamT+grU4dOg0xozqhYG3dHR7QBFDy8fIsoKcHItH69iz9xhWr92FwYM61VJVVNaWLQfrLLAMBj16tLHghZG5qHT6y2q6uqEdZuhhkfU4fBqAl0JLzjViQzoAKIi8xoYbK9nle1XbQiStNuCoLGHPYQMKk+2csVPFFAXIPJONl19bgs8+X4Mxo3phQP+O5Z8otxwMLY1r07ohunVtiQOpGVj5285aW2/xvIpU+wrtrr2f+PhIBAWaERRU9BNoRmCQGcEll00ICjRj7/7jWLZ8W7nrNBh0uHVQJxw/dg5tG+6olcACAFOEjCgdYJGBrGwdAE92mFWf/aQBh+3O+TlbNLYjoJJljQl2tDArOJoPZGbqkQs7Ir1SJdWEIpdusj51+iJefGUxPv18DcaOSkH/fu2rDC+GlsZd1SIeN/dtD4vFhskT+0FWFNgLr/xguWLPRjm7Ot6c9SO2bD0EAAgIMCAszAyXnTaVP7zcG8tfzrN1urNej+osZ52V7iG6fJ9YNfS/uSMefnBghfdbLDYcPpIJSQIs+QXlLnPjDVdj7Og+iIkJx/R/LajmM1ePZFZQvIuooMB7m1TzL+hwUQEgyYiPrOLV1MmICwOQL8GRq0OWA4is5HPPYnP+/nHpVgSYjZAkCZKEot9S6fWiia2LL0MCDqSeLFnPhQt5WLNuDyQUPVYnOR/jvAG6MuuFhKLrrvenpWV69kLVkUK7AxaLrczfhXJep9LL7lDKaR0ZGRfw75f+h0/nr8bY0Sno16ddheHF0PIRxd/SPZHYIApbtjovGw06BAbw7VEXTKbSblBwkBFRkRXvO8zIOIen/++zcu9r3qw+Hnt4IK7t2AwAkHUhF7t2p6N389qrVZGlkr6V3lDDQR01cCm/6HklIKiybhYA6BQEFg/HtwO2KhbPsThf/7dmLfWoxiNpmXjm2dr9kqAW3/+wBf9ee8qtx5QXajrnDS63WywV/4dOnMzCC//5Fp/MX41xo3ujb+/kK07zxE8lIi+THaUf/pWfd81V82b1cejwaURGBGPSxH4YNOBatx5fE3KuhJyicsNDvBdaZbYgoYJzrZZSUNq11VXjQ817f4ZfURTFZaStJ44fP4/nZi7C/C/W4r+vjUJcXETJfQwtIi9zlPkUrk7otG6ViHFjeqNNqyTMX7AOY0b2RHBwVd2P2pF5Su/cTKeT0TDGe5/2Qeai8Z2KhDxrFQsrEi4VfXmXghSEVbG1KsDk/Dt69WwDg14HWVagFB++oChF14sOYVAUyErpfYqCousKoBQdviCXuR/OwVDFl5Wi9RUfHqEUPbb4ssVSgBMnz9f4dfJVOp2EAf07YtR9PV0CC1BpaGXnWHDq1AXRZbho3DgWAWaOSSLPuYZW5Tudr7k6AXM+nFyy32DK5P51WpsLWYd1ewxwAJCC7GjvreHuAELDZARJQI4i4XSWBBlKxaekKNDjZDYAKAiLciCyiu8BEUU9xunT7kSwh5vUPbVr9zFMmPyh0BrKM/SOGzD7uQdKQrf0GMfSUC8b4igTxHJxoBcFtMt1AFMemYv0Y2fLfV69XodBA67FqHt7ICEhqtxlVBla/5r8DDYeCxFdhouuN16NN14ZJboM8gHu9LSqOwy4LpzfFYhvjjpH8MW1teEG73TuAACG+g4kScAeBTiUboStWwEq2vNnTTNgX6Gzzqsbc7h7bZIkCXp97Q7AiY4OvSK09HodBg+6DiPv7YH4+pWP/VRlaJ23OMt6sf9xwZU4/d+yJGRne3bsE1Exu6P0cIK63idVU2f2BeKfX5uRqQBScCFG9y6sMDTqgr5eITrEKNiTKSF7vwl/5BWgT3nHaskS1m0x4bwCwFyI7q0q6ZGRKpQdkGsw6HHbrddj5IjuV2wGrIgqQ0uCgs5JuUhpdkl0KQCAdvF5kH14/jryLnf3adUlpUCH9FN6ZAEotOlwOtOAv3absGKfHpdkCTDaMXh4HgZHe7kwgx39Ozqw6BcDCnJNmPOLEdffUYjwy16u87uD8NFOCQoU1G9vRZ/qfe6RSIoCk8mA2wd3woh7uiE2xr2JnlUZWkS+rGxoGQSHluNoEB54LaicexQExdowZlge7mkupvfSvJsFg7aG4ruzEo7+EYIHbfmYnGLDdXEKCrP12LIlEB+sNOGkDOijbHh4QGG5Uz2RugwccC1e+NdwREeH1ejxDC0iL1NTT8tJASTAZFIQGeFA00Q7rm9rw81tHKgn8hMiqBAPjbTg9Jwg/Jmtw6EtwXh8S3HAFm/5UGCqV4CHx+QhReA5v6j6Bt7S0aPHM7SIvKxsaOl0AkJL58DYx7Mw1vvP7LbAJCtenWrHd8sD8d0OI47mlYZVULgD119rxcgUG1qra9wW1SGGFpGXqa+npW6GcDuGDbuEYUMlrPw8AjO266BLzMfsx/LRjCfP8jtsMURextCqIZ2C1o0dMAFwZJjxbap0xfS9tvKnZyQfwp4WkZe5DMQwMLTcUb+9FV1XGrAqV4cl88OQ18OKlEYydHk67E8146c0B554JA/dubnQZzG0iLzMzp5WjenCC/DYMBvSvzDjcL4BK5aFYEXZBSQ9vt+Vj+5dvHMKFfI+hhaRl8kMLY/EJOfh46mFWLTajPVpepzKlSAFyGiYWIieXawY0pKB5csYWkRexn1anguuX4Ax/yjAGNGFkNexxRB5GUOLqObYYmpBXp4VZ8/liC6DNIKhRVRzbDG14HxWLu4Y9hrefPtHhhdVye7GqUmIyBVDq5YUFjqw6NsNDC+qEntaRDXHFlPLahpellMnsHNbOk5c4rnAfZ2j7KlJdDx7AJE7OHqwjhSH1+LvN+P22zpVuBnIdiYNaxb/ieW/n0K2HI6U/xuDEa35b/Fl7GkR1Zzh3tGzRNfgdNoOdBgHjHtPld2/gwdPoaLX6vjxcxU+rji8dEXfqC9eyEVMbARQcA4bvlqFxauO4TxCERumBy7WSemkMgwtopozHDp8WnQNpYJjgSOZuMrbJ5yrBqutEJ68VrLs3Ow3/YlPMGBwJwwe0hyZqVkI7dwd992RDPt38/De77VVLakZQ4uo5rgdyssG3NYJ/W65DpLBjIEzxmOwyQAd7NguujDyGgdHDxLVmOHj9+8XXYPTnDnAJ58A69bh9effEV3NFZo1jcPTTwwp977jJ85j5ovfVvjYsNBAXNUiHlu3HcGAwZ1hNDq/KxhN/M7gjzhhLlHNGZLbNhJdg1O4BFw6CbRpKLqScgUFmVHRaxUREVzu7WGhgbjn7ptw151dsPDrP7B125G6LJE0wiFz8yBRTfGrfh0oG1bBwQGiyyGVcdgZWkQ1xdCqRWGhgRjxj24YemcXBAeZRZdDKsWBGEQ1x9CqBWaTAZMn9mNYUbUwtIhqjqFVC+LiIjDqvp6iyyCNYGgR1RxDSxgrUlduxvZMGYCM80cLocCBw6vW4+vtEqSAOAwb2lJ0kVQHeOZioppjaIkiFyB941as2Od6ltX0DX8hHYAU3JKh5aNcelo6hhaROxhaoujC0PefU9FXdB3kddw8SFRzbDFEXsbQIqo5thgiL5JlGYpSevoZhhaRe9hiNOpk0czyksTzMWlJ8cTJxRhaRO5hi9GgA/uO49OPl6NBgyh0uq656HLIDWVHDgIMLSJ3scVozIF9x/HWK/9DTEwYPpg1ocJ5D0mdHAwtIo+wxWjI5YEVGxsuuiRyk1wmtHQ6iZt3idzEIe8acWDvcbz1alFgvTMBsTEMLC3iyEEiz7DVaAADy3cwtIg8w1ajcgws38LQIvIMW42KMbB8j51TOBF5hPu0VGr/3mN4+9XvEBsTjvffGc/A8hHsaRF5hq1GhRhYvsvhcJRcZmgRuY+tRmUYWL6NPS0iz7DVqMgVgXUyTXRJVMtcQsvA5kfkLrYalSgbWB+8OwGxWaeBfv2AnBzRpVEtYk+LyDNsNSqwf+8xvFUmsGKiw4B//xs4exZ4913R5VEtcg0tvcBKiLSJoSVYcWDVjy0TWAcOAF9+6VzgjTfY2/IhZYe8G9jTInIbW41AZQPr/XeKAgtw9rLkog+3rCz2tnyIzM2DRB5hqxFk354KAqtsL6sYe1s+g/u0iDzDViPAvj3H8PZr5QQWAMycWdrLKpaVBbzzjneLpDrB0CLyDFuNl+3fe7ziwNq/H1i4sPwHsrflExwupyZh8yNyF1uNl7396v+cgy4uDyzAdV/W5S5cYG/LB7CnReQZthovybNYAQCxsRH44J0JiL48sCrrZRVjb0vzOHqQyDNsNV7Su1cyutxwFeZ8OOnKwAIq72UVY29L89jTIvIMW42XtGmdhP++NvrKTYJA9XpZxdjb0jSGFpFneGoSNUhNBR58sPR6Rgbwv/+VXn/oIdfl9+0DOnf2Tm1UqxhaRJ5haKnB4MHOn2JlQys0FJg1S0xdVOtcTk3CCXOpyIyVibihYa7oMnD4vFl0CVViaJEm2e0OnD2Xg/j6kaJLcQt7WlRWQkIk2rZpiPNZl3DQGi26HMgGGxpb0tE6roXoUirE0CJN+nXVLjw3cxEmjOuDcaNTRJdTbQwtKqteVChmfzBJdBmldu0CkpOB8J6iK6kQWw1pUk6OBQAwe+6v+GXZdsHVVB+HvBN5hq2GNMlgcJ7Wo150GGa+9C3Wrd8ruKLqkR1KyWWemoTIfQwt0rSHn7gdDZKi8ey/FuKvbYdFl1Mll4EY7GkRuY2thjQtMMiMqc8MRVS9MDzx9OfYu++E6JIq5Tr3oCSwEiJtYmiR5oWFB+Px/7sLAUEmPPrEJ0hLyxRdUoU4EIPIMwbMmye6BqftRTvTP/lEbB0VOXMGXnutMjK88zw+pF50GB6fdhdefuErPDR1Hj5+fxIS4tU3HJ6hReQZA8aNE12Dq4kTgSGPiq7iSocOAeP+JboKqkR8g3qY+sxQvDrzazz02Fx8/N79qFcvVHRZLlxHD3IgBpG7+FVP7aLFH3CoJY2axOHhJ27HmTPZeHjqPFy6lC+6JBfsaRF5xoBhw0TX4LR7N7B3LzB0KGAXXUw56kXD66+V0Qg88YR3n9MHXN0qCZMfGYx331yCqU99hllvjkVgoEl0WQAYWkSeMuDrr0XX4DRjhjO0Fi4E7npSdDVXuvoq4IM3RVdB1dSuYzOMmzwAs99bimemL8DrL98Ho1H8BDAMLSLPsNWQz7qha0uMGN0bmzYfxHMzF7kEhiguocUJc4ncJv6rJ1EdSunXAZY8GxZ/8zuCg5dg2lO3Q5LEHR/FnhaRZxha5PMGDumMvLx8/PDTVoSHB+HBSf2F1cIZMYg8w9AinydJEoaN6AlLng2fL1iH0NBAjBzRQ0gtjjJzD3LCXCL3MbTIL0iShJHj+8FiseH9D5cjLDQQQwZ38nodrtM4MbSI3MVWQ35Dr9dh4pSBaNmmIV5+bQlW/rbT6zVwnxaRZ9hqyK8YjQZMmToETZvF47mZi7BhY6pXn5+hReQZthryOwEBJjzy9B2oHx+Fp5/9Ajt2HvXac3MgBpFnuE+L/FJISCCmThuKl59fiKlPfYYP3pmAq1ok1PnzeqOn9c4PQTh5noFYkW/WB4ougTzA0CK/FREZgsen3YWXnl+Ih6d+go/fvx8Nk+p2rkfXCXNrN1gkAAEBRtjtMn7cElar6/YlBoMMAw/s1iyGFvm1mLgITJ02FK+88BUeenQu5n40GdHRdfeBX5c9rcjIEKxZ+XytrpNIbfh1g/xeYlIMJj88GJlnsvHb6t11+lyuocVTkxC5i6FFBCCpUQwA1Pn8hBw9SOQZthoiL+KEuUSeYash8iL2tIg8w1ZDqnL2XA6stkLRZdQZl9DSiZttnkirOHqQVOWvbUfw5ls/YsAtHXH7bZ3QqGGMm2uQkXsiHTv3nkeOw4SY5o3RpkUYzHVSrfs4EIPIM6oMLQUSNh0PwbRliaJLAQDsOBWMNlFK1QuSxyLCg5BzKR9fLfoDXy36Ax3bN8GQ2zqhZ/fWMJmqeLvKOdi+4Ed8suwU8iQd9JDhkI2I69ILUyYlI8Honb+hMtw8SOQZVYZWt0EDkLdiOw5ao0SXAgBISFDQrWtL0WX4hYiIYJfr2/5Ow7a/0xAREYxBA67FkMHXI7FBvXIeKePU8l8wd9k5RKcMxDP3XIP68jlsWrAU89euwtyE+ph2Z6zwNzxDi8gzottwuSaO64OJ4/qILsPv2MrsS9qy9RBatUxE+3aNvXoKjctDq9jFi3n44st1+OLLdeh0XXMkJES6LlBwHL/9cgIFSZ0wamTLol5VDLqMSsGRvd9g9dodSL21L1qZ6vxPqBRDi8gzqgwt8i673YF33v8FPy/bXnLbpi2HsGnLIRgMOsTHR8Jscm5bUxQFilL8u8xlKIACyLLzsqIAKLpfLloWJcsCiqyUXi5Zl4L8/KoHYWzeeqjk8vKlW3HXPd0hHU3D3iwJDbpfg4YlmwFlnN+bjhNWQMk7if0nZLRqKjYoGFpEnmFoEf75/NdYvab8mSDsdhnHj5/3ckXVd02rJBiNBuRmZCFLMaJDUgT0AGDPwY5vf8FnS0+gIMAEyZGNzEwHwNAi0jS2Gj+3Y+fRCgNLrUJCAiB8LvsAABFtSURBVNCndzIAoFGTOAAy8nNtkGFCUJAE+9nD+PalL/Dej2cQ0WsAnh7bFMGSDGu+XWzhAOxlTk1S2xPmEvkD9rT83KbNB6u97Kz/joXZZIAkSdDpJAASJMl5KvvS36WXAUCnK7oNAIru00k6oJLHjR7/Hi5ezCu3hoG3dMSDk/tjzdo9+LXkzMMSJJ0EQEH2nvV44/3tOFgYjW6TBuDubtHQbTkCpagW0djTIvIMQ8vPGY3VewtIEtChXeNqL++Jq1rEY/OWQy63NW9WH09OHYx2yY3Lqw5BIWbolVxs/+EvBCS1wegpKbgpyQRAQU52PmwwIyRU/NudoUXkGbYaP9end3KVPRBJAvr2TvZKYAFAZJkRhEFBZkx9ZBA+nfNgBYHlZG4QjRg9YGx+I558rn9RYAGAA+lHzsGhj0Jikvi3O0OLyDNsNX4uKbFeyeEFUgXZVS8qFJMm3uy1miLCnaHV/+b2+ObLqRg29EYYDJXPHqFv1BStYyTYz2XhTEHpgeDyhQNYuy0PxmbNkBwt/u3uOmEuZ8Qgcpf47SUk3OiRvdCgQT18NHslTpx0HSnYqGE0Pnh3IqIiQ7xWT9u2DdGzR2t0aN+k+g8yxKP34Kb4c/Z+LHgzEHm3Nkes4xw2//An/s6PQp+hyYgXnFmKokCWSwOVcw8SuY+hRQCcm//6pLRF2tEzmPfpKvy6ahcAoHu3Vl4NLADok5Jcg0fpEN29P6bkrcT8xTvwxZvOY85M9Rqi74P9cGdr8bMPlg0sgJsHiWqCoUUlJElC0yZxSEwsb5okDdAFosXAwZjZNw+nMy7BZgxGbHwoAlWSDZefYJKhReQ+hhb5HlMw6jcufzookRhaRJ5jqyHykstDy5tzOhL5CrYaIi/hcHciz7HlEHkJp3Ai8hxbDpGXsKdF5Dm2HCIvcT2wmE2PqCbYcoi8xLWnxdkwiGqCoUXkJdw8SOQ5HqdFVMax4+cw8YGP6mTdR9IySy6r4TQpRFrE0CIqw2otwM5d6XX+PBw9SFQzbDlEAtzQ+SrRJRBpkqp6WscDInFsYyqggp3UQYEmtG/XuOQMvOQfGiRE4a3XR9fpcxhNBrSv5NxgRFQxVYXWk62G4ui0L0SXUeLFmfcgpWcb0WWQFwUHB7AXRKRiqgqti8YgJIXb8GxKhtA6jl4w4+U1CbDZCoXWQURErlQVWjpFRnJ8Adon5AutIzzAUfVCRETkdRyIQUREmsHQIiIizWBoERGRZjC0iIhIMxhaRESkGaoaPUhE5E8Wf78JO3cdE11GqYsXgBaDoF99AiO6ZKJJkzjRFV2BoUVEJMi7HyxDXp4N0UEqOia0yTU4t/8iolb8jQfuv1l0NVdgaBERCaLX6TCk1QU80+uU6FJc3PBeK9ElVIj7tIiISDMYWkREpBkMLSIi0gyGFhERaQZDi4iINIOhRaqxbfsRyLJcK+uynDqBndvSceKSUivrIyJ14JB3Uo1X3/gekiRh/Nje6NWjNXQ6979T2c6kYc3iP7H891PIlsOR8n9jMKI13+ZEvoKtmVQl7egZPDtjIZo0jsW4MSlI6dmmeuFVcA4bvlqFxauO4TxCERumBy7Wfb1E5F3cPEiqlHb0DKb/6yuMGDULv67aWfVmQ72MzNQshHbujkdfGYVhbcyQvFMqEXkRe1qkasXhVWXPSx+LgTPGY7DJAB3s2O79UonICwx9bnlBdA1OVjvyjMEAskVXUuLl15bgjbd+FF2G19lspfOgfbXoDyz+frNXnjc311rhfcXh1bhxLMaPSYGiXDnAwmjidzAiX2eo7IPC6yR1bdCx2QpdPsD9UWGhA4WFDtFllDhaFF7x9SNFl0JEAnCfFmlKUKAJo0f2xNA7bhBdChEJYPj+26dE1+D0xhsYtTZHdBUuHntoIHr2aC26DK/74st1+Oa7jQCAO4Z0xqh7e3jlee++7y3k5xeUe19QoAnD7+qKu4d3RXhYEL5bsskrNRGRuhji4iJE1+AUIEEHdR0IGhYeBNW8Pl4UHBJQejnY7LXXIC42HEfTz7rcdnlYEZF/455rUiWGFRGVh6FFqlLzsLIideVmbM+UAcg4f7QQChw4vGo9vt4uQQqIw7ChLeuqbCLyEoYWqcbdw7qiV882NetZyQVI37gVK/a5HoScvuEvpAOQglsytIh8AEOLVGPI4E41f7AuDH3/ORV9a68cIlIhDnknIiLNYGgRAXA4aueUKERUPXa7A+nHzla94GUYWuT3HA4ZX362CgCQ2CBKcDVE/sFud+Due9/CczMXuRVe3KdFfs3hkDH7vaX4a3MqJoztje7dWokuichvKIqCZSv+xvKVO9CvTzLGjk5Bo4YxlT6GoUV+qziwtmw8gAlje2PcmN6iSyLyS4qiYPnKHVjx607065OMMaN6oXGj2HKXZWiRX2JgEalPdcKLoUV+x+GQ8fG7S7F10wFMGNcH40aniC6J3HQgNQMvvboYVmv5c1VqRW6eis6ycZnvf9iMdev31tn6rdaKz6BRHF7OzYbtMHZ0aXgxtMivMLB8w9vv/oz9B06KLsOnZefkIzsnX3QZWPHrDqz4dQduv60THn/0VoYW+Q8Glu/w9/Pc+ZOgQBPuHtYVw4d1hcGgZ2iRfygbWBPH98HYUQwsXzFpQl90ur6F6DJq5KFH54ouoUIDbumIobfX3XnrrNYCPPDwnArvLxtWZad2Y2iRz3MG1k/YuimVgeWDWrZMRKuWiaLLqBG9Xr2HykbXC63T17Wi/ZFBQWbcfdeNV4RVMYYW+TQGFpE2VBVWxRha5LMcDhlz3l6CrVuP4P7xfTFmVC/RJRHRZaobVsUYWuST7HYHZr+3FDcumo0eD0/BnQwsIlWRJAljR/WqdlgVU+8GVaIaKg6stPXbMOzsdty591fRJRHRZcxmIyaO7+v2+fMYWuRTigNr66ZUvBp+EobCQuCLL4CDB0WXRkS1gKFFPqNsYD02tANar1vqvEOWgZkzxRZHRLWCoUU+wW53FB2HlYpJE/pi+JHfAZutdIEFC4DUVHEFElGtYGiR5hUH1l+bnYE1us/VwEcfuS4ky8C//y2mQCKqNQwt0rTimS7+2pyKyRP7YfTIXsArr7j2soqxt0WkeQwt0rSP3/2pJLBG3dcTyMi4spdVjL0tIs1jaJEm2e0OAEDa4dOlgQVU3Msqxt4WkaYxtEiToqJCAAD3jeheGliV9bKKsbdFpGmcEYM0qXevtmjerL7rWU2r6mUVW7AAmD4duOqquiuQiOoEe1qkSZIkuQbWqVPA7NmAJJX+XPkg54+iAP/5j/eKJaJaw9Ai3xAfD1gszs1/xT8pZWZ0X7LE9b7PPhNXKxHVGEOLiIg0g6FFRESawdAiIiLNYGgREZFmGLBnj+ganM6cAWASXYWrkyeBPSqryRvOni1z+RxU8x5xl1brJqIKGdCmjegaSnV6SHQFrp55Bjjrhx98jboDSV2dl+fNBWasEVsPEVERbh4k/2A2i66AiGqBAQ0biq7B6eJF0RVcqV49IFAlr483hYWXuRwG1bxHaqpXL6B3b9FVEFEtMCA9XXQNTjNmAMtVFlxvvQXc3EF0Fd43ewUwv2iT4OTJwKT+YushIirCzYNERKQZDC0iItIMhhYREWkGQ4uIiDSDoUVERJrB0CIiIs1gaBERkWYwtIiISDMYWkREpBkMLSIi0gyGFhERaQZDi4iINMMgugBSt9xcK3JzraLLIHKRl8f3pL9iaFGlFn+/GYu/3yy6DCIiANw8SOXQ6/m2IO0wGPSiSyAvYk+LrjCwf0esWLkDJ05miS6FqEKSBNzQqQVat0oSXQp5EUOLrpCQEIVvFj4uugwioitwOxAREWkGQ4uIiDRDd+/od/HIZ8dQKLoSIiKiKugOpVmQ2DoeRtGVEBERVcGgT2qLW9qpI7JkSYel+yNwIltsPccumoU+PxERlc/QoncHXKOOzMIdp7Zhyy3/gKITu6stsZ6CJgY9OrZvIrQOIvJtdoeMJXsjkZnLgdzVZejXL1Y1494nHluPie+uAgxqqYiIqO4MGtAR27an4Szqiy7FyWoFDhxAi0Yx6NyphehqymXoE88BhEREIkx95FbRJbjatQtIfhp4cgHQoanoasqli2VmERGRRjCyiIhIM7jziPyaI/Nv/Pe1bTjm8GAlkgHt7r0H4zpe1pwcF7F81hIsPSYDAAzNOuHZB9qgnjtfFXP24b2ZG3DADgA6JPW/DU/eHFnOgjJOr/wJr/x8DuX+KZIEnU4Hg8mI4LAQxMTVQ/O2zdG5XRwiVTIQi6g6GFrk3yxZ2L31EPZ7ElowIugWuZzbbTi55xA2HygKrcKrYHNzzXLBRezbeghbi0Irp23Fa8jPOI7NW0+WH1oVMEQ2QO+hvTFh+DVI5JEepAHcPEjkx+wXTmL57M8x9uFl2HC+vOAlUhf2tIhK6NDyvjGY3jcEkluPkxAco7KmpG+AUW/ciZujyvwligxbXh7OnjyNXZv3YNnadJwtAAAFOXvXY8YLofj4ja5oorI/hagsvj2JSkgwh0ehSZNI7W+CkIyISIhF03IOaWnZtjm6978Jow9txMxnfsKaTBmAgkvbV+PjVe3wn34h2v/7yWfxvUnkp4Kb34BnH+uIuOJPAcWCzWsPIVdoVUSVY2gR+bHQ61qjc5lNiNbjZ3DSLrAgoiowtIj8mT4ccfVKQ0uxWmHheAxSMYYWkV9zoLDMyfQksxkB7o1CIfIqhhaRPys4j+NnlZKrpoRoJPJgY1Ixjh4kKqEgc+ufmJPr5lG2kh5NenRH32b6ytd+5hC++cSKQHfWbcvAaaXqxWpGRtYfu7Ett/gJjGh9fVOE1tXTEdUChhZRCRmnNv6BeRvdfZwRPZO6VhlajlOpWPhpao2rq22OzD14Z85eXCjKLF1sWwzr5wPD/cmnMbSI/I3dgkO/b8BHH6zF+oyiURfGaNz62M24KUxsaURVYWgRldChYZ9+uKdDgHsPk/Ro0KrqpqRPaofJdzdBiDvrzk/H1x9sR5q7cyPKZ7Hsra+w01R6k2IvwKWLOcg4ehancsusMDAOg54YgcdvCmUvi1SPoUVUQkLUNW0xeHDdbCKTohogZVAnJLixcvmcA79+uB1p7j6ZnIcDf+7GgcqW0ZmRdH0nTHggBf2acrZc0gaGFpGfMjfvghkv9EPbINGVEFUfQ4vIF+kTMPyFgegVUXbC3Hz89en/MGerBQoAW+o6zHgtDu9Pb4f4yseQEKkGQ4vIF0km1G/RCO0vmzA3+Z934uyUL7HkuAOAjFO/LcH0pEjMGtsQwWIqJXIL97sS+RFdVEs89nxfdAwt6oEpNuyZvxAvrbjg1skjiURhaBH5GXOLm/D8Ux3QoHiToCMbv72xEHN2WoXWRVQdDC0iv6NDTM/BeGF0I4QUd7gsJzD/+e/wcwZnyyV1Y2gR+SUTWt83HE/1jkBJh+vMbrw+YyW2XxJaGFGlGFpE/kofgX5PDseolqVHIFsOrMeMl7biOM+pRSrF0CLyZ0GNMO65wegVXfxRIOPs+h8x/eMjyBFaGFH5OOSdqIQD+76Yg2GL3TyhlGRC5ymT8WRXbZ7TQ5/QEf834wwynlqHA1YAKMSBr7/GzMTxeHFwDLT5V5GvYmgRlWG7eAEnLrr7KCOaW+rs/CFeEdqhL1546AweeGM/zssA5EtYP2sh3k8Yj4euC+ImGVINvheJCIAejQYNxYw74lAyC6HtNL6e+Q2WHOUOLlIPSVEUdXxFnDEDmDkTKCwEDOwAEhF53a5dQHIysGABcM89oqspF3taRESkGQwtIiLSDIYWERFpBkOLiIg0Q30jHv74gwMxiIhE2LVLdAVVUk86BAY6f/fsKbYOIiJ/FxEhuoIKqWfIe2EhsGoVYOcxIUREwhiNQJ8+gE6de4/UE1pERERVUGeUEhERlYOhRUREmsHQIiIizWBoERGRZvw/8vf8VJxxCZwAAAAASUVORK5CYII=;" parent="1" vertex="1">
                    <mxGeometry x="470" y="160" width="99" height="84.01" as="geometry"/>
                </mxCell>
                <mxCell id="8" value="Bypass FIFO" style="text;html=1;strokeColor=none;fillColor=none;align=center;verticalAlign=middle;whiteSpace=wrap;rounded=0;" parent="1" vertex="1">
                    <mxGeometry x="250" y="130" width="90" height="30" as="geometry"/>
                </mxCell>
                <mxCell id="11" value="&lt;font style=&quot;font-size: 6px;&quot;&gt;Combinational&lt;br&gt;Logic&lt;/font&gt;" style="ellipse;shape=cloud;whiteSpace=wrap;html=1;fillColor=none;fontColor=#000000;strokeColor=#000000;" parent="1" vertex="1">
                    <mxGeometry x="390" y="182" width="60" height="40" as="geometry"/>
                </mxCell>
                <mxCell id="12" value="" style="endArrow=none;html=1;strokeColor=#000000;strokeWidth=1;fontSize=6;fontColor=#000000;entryX=0.226;entryY=0.814;entryDx=0;entryDy=0;entryPerimeter=0;" parent="1" target="11" edge="1">
                    <mxGeometry width="50" height="50" relative="1" as="geometry">
                        <mxPoint x="370" y="220" as="sourcePoint"/>
                        <mxPoint x="440" y="190" as="targetPoint"/>
                    </mxGeometry>
                </mxCell>
                <mxCell id="13" value="" style="endArrow=none;html=1;strokeColor=#000000;strokeWidth=1;fontSize=6;fontColor=#000000;entryX=0.226;entryY=0.814;entryDx=0;entryDy=0;entryPerimeter=0;exitX=0.875;exitY=0.5;exitDx=0;exitDy=0;exitPerimeter=0;" parent="1" source="11" edge="1">
                    <mxGeometry width="50" height="50" relative="1" as="geometry">
                        <mxPoint x="436.44" y="195.44" as="sourcePoint"/>
                        <mxPoint x="469.99999999999994" y="190" as="targetPoint"/>
                    </mxGeometry>
                </mxCell>
                <mxCell id="14" value="" style="shape=image;verticalLabelPosition=bottom;labelBackgroundColor=default;verticalAlign=top;aspect=fixed;imageAspect=0;image=data:image/png,iVBORw0KGgoAAAANSUhEUgAAAa0AAAFsCAYAAAB/4uYmAAAgAElEQVR4nO3dd3gU1f4G8He2pjdSSEjoqLRQVBCRFooIiKgIXlE6CIoNKz+5XJV77XoVuxQVRRS9ggWlKFWlCtIhlBBKIJRAQrLZTXZnfn9s2kLaZpM9M7vv53nyZMvs7DebPfvumTlzRlIURQEREZEG6EQXQEREVF0MLSIi0gyGFhERaQZDi4iINIOhRUREmsHQIiIizWBoERGRZjC0iIhIMwyiCyiRng7MmgXIsuhKiIj8V0gIMHUqEBkpupJyqSe0PvkEePNNwGgEDOopi4jIb+TnO3+3agX84x9ia6mAetKhuIdlsTC0iIhE2LULSE4GVDy7H/dpERGRZjC0iIhIMxhaRESkGQwtIiLSDIYWERFpBkOLiIg0g6FFRESawdAiIiLNYGgREZFmMLSIiEgzGFpERKQZDC0iItIMhhYREWmGX02nvmnzQXz6+RrY7Q7RpRCRhgUHm/Hk1NvQICFKdCl+x69C65/Pf4WcnHzRZRCRD3hr1k947eWRosvwO361eTA/v0B0CUTkIyz8PBHCr3paZf1r+l2IjAgWXQYRaci63/fhuyWbRJfh1/w2tG7o1AKRkSGiyyAiDSkosDO0BPOrzYNERKRtDC0iItIMhhYREWkGQ4uIiDSDoUVERJrB0CIiIs1gaBERkWYwtIiISDMYWkREpBkMLSIi0gyGFhERaQZDi4iINIOhRUREmsHQIiIizWBoERGRZjC0iIhIMxhaRESkGQwtIiLSDIYWERFpBkOLiIg0g6FFRESawdAiIiLNYGgREZFmMLSIiEgzGFpERKQZDC0iItIMhhYREWkGQ4uIiDSDoUVERJrB0CIiIs1gaBERkWYwtIiISDMYWkREpBkMLSIi0gyGFhERaQZDi4iINMMgugAiqh1WWyF+WbZNdBmaMWjAtTAa+RGoNfyPEfkIi8WGV17/XnQZmtGvb3uGlgbxP+YlqQczsPK3nRg7KgWBgSbR5ZAPG94jH3f3sIouQ7U+WxmIJRsCRJdBNcTQ8pKlP2/D19/+id27j+HtN8fCZOJLT3UjPlJGfJQsugzVqs/XRtM4EMNLQkMDAQDbdxzFczMXweFgwyEichdDy8tuvaMLVq3ZjVdeXwJFUUSXQ0SkKdxG5WUDB3eGzVqIH37aitDQQEyZ3B+SJIkui4hIExha3iYBw0b0gMViw4KF6xEWFohR9/YUXRURkSYwtASQJAmjxvdFvsWKDz5agbDQQNx+W2fRZRERqR73aQmi0+kw4cGBaNWmEV55/Xus+HWH6JKIiFSPoSWQ0WjAg1NvQ9Pm8Xhu5jf4Y8MB0SUREakaQ0uwgAATHnnqDsQnRGHa9AX4e0ea6JKIiFSLoaUCISGBmDptKMIjgjH1qfk4kJohuiQiIlViaKlERGQIHp92F4wmAx6eOg/Hjp0TXRIRkeowtFQkJi4CU6cNRaHdgSmPzUVm5kXRJRERqQpDS2USk2Lw2NN3IjvbgoemzsOFC7miSyIiUg2Glgo1bZ6AKVOH4GRGFh594lPk5XHGbiIigKGlWq3aNsL9UwYh9WAGHn96Pqy2QtElEREJx9BSsWs7XYXRE27G3zuOYvqMhbDbHaJLIiISiqGlcjf1bIvh9/bE73/ux8wXv4Us85QmROS/OPegBvQbcB3ycq34aclGhIYG4vFHb+XM8ETklxhaGjHkrq7Iy7Pi2+82Iiw0EBPH9xVdEhGR1zG0NEKSJNwzqjcseVbM+2w1QkMD8Y/hN4kui4jIqxhaGqLTSRg76Rbk5xfg7Xd/RmhoIAYNuFZ0WUREXsPQ0hiDQY/Jj9yKN1/6Fv95+Ts0b1Yf11zdQHRZRFRDBw+dgsViE12G05GzCAqORQvRdVSCoaVBJpMRw0b0xH9mLED6sbMMLSKNOnbsHO4b847oMlx1GIfXj+ZArTsfGFoeKCy0488NB9C9Wyuvj+YzmfmvI9K67BwLAGBI6wvo1viS4GqAQ+fN+GBjHPIK1HtoDT/5PFBQYMfTzy5A61aJeOD+m3Ftx2aiSyIiDera6BK6NhY/z2hcaCE+2BgnuoxK8eBiDxQWOmeo2LP3BB58ZC4efmwe9u0/IbgqIiLfxZ6WBy6fVmnz1kPYvPUQevVojfsn9EXjRrGCKiMi8k1+G1qPPz0fUZEh0Ol10Osk6PU6GIx6GA0GmEwGmM0GBAaaEBRkRnCQGcHBAQgNCUBISEDJ5ZxL+eWue/XaPVizbi8G3tIB48f2Qf24iEoqkZF7Ih07955HjsOEmOaN0aZFGMx182cTEWma34bW3n11uxlPURT89PM2LFuxA3fe3hkGg/7KheQcbF/wIz5Zdgp5kg56yHDIRsR16YUpk5KRYKzTEomINMevQqtdcmNs/euwV5/Tbnfg62/+LCe0ZJxa/gvmLjuH6JSBeOaea1BfPodNC5Zi/tpVmJtQH9PujPWvfxARURX86jPxlRfvxeYtB50DKBRAVhQosgK7Q4bD4YDd7kBBgQOFhXbYbIWw5BcgP78AFosNublWXMrNR26u1fmTZ4XVWr1zXIWFBqJ5s/rY9nda6Y0Fx/HbLydQkNQJo0a2LOpVxaDLqBQc2fsNVq/dgdRb+6KVqU5eCiIiTfKr0AoOMqNXjza1tr7de45h/KQPK7w/JjoM99x9E2679Xp8+dXvLqFlP5qGvVkSGnS/Bg1LNgPKOL83HSesgJJ3EvtPyGjVlAM8iYiK+VVo1Ta7o/wD8JKS6mHkiB7o3689jMbyX2JrRhayFCM6JEVADwD2HOz49hd8tvQECgJMkBzZyMx0AAwtIqISDC0P2Atdh7xffVUCRt3bAz26t4ZeX1nYyMjPtUGGCUFBEuxnD2PJh8uxYr8Dib0HYEzLI3j93VRY8+0AOBqDiKgYQ8sDxcdpdezQFKPu64FO1zWv5nROEiSdBEBB9p71eOP97ThYGI1ukwbg7m7R0G05AgXOWd2JiKgUQ8sD9etHYM6Hk9CmdUM3HykhKMQMvZKL7T/8hYCkNhg9JQU3JZkAKMjJzocNZoSE8t9DRFQWPxU94MmMF+YG0YjRH8aZJjfiyWk3onFg8T0OpB85B4c+ColJ3J9FRFQWPxUF0TdqitYxEuznsnCmQCm5Xb5wAGu35cHYrBmSo/nvISIqiz0tUQzx6D24Kf6cvR8L3gxE3q3NEes4h80//Im/86PQZ2gy4plZfk9RlJL9pKczLyIuNrxWToNzMs2I9DKzkEkSoDcoCAqW0SBGRiTH/5BKMbSE0SG6e39MyVuJ+Yt34Is3twMATPUaou+D/XBna84+SMD+Aycx77PVGD+mN+Z+ugpnz2Zj+F1d0btXmwoPp6iSrMfy70Lx8fHywk8B9AoSGxaiV2cr7r7ejnrlzEAmRIEO+9MMOHpBQj4U1Iuxo10jGeH8FPMr/HeLpAtEi4GDMbNvHk5nXILNGIzY+FAEsodFRRQFWP/7Pqz/fR9iY8Nx5kw2npu5CLPe+xl3DumMIbd1Qr2o0Jo/gVFGXKgCHQDZIeHSJQkWhw4n0sz4PM2EnzZZMX20BV3Da+1Pcpts0WPZ8iDM3WjESVvZoFVgCrOjT4oFD3a3ox7bjV9gaKmBKRj1GweLroJU7syZ7JLLWVm5mD3vN3wyfw369k7G8LtuRGys+8liaGLBvEm20g98u4TDB034cXUgvkvV40JaAP45V8GsKfloI2BKMTnbiLdnh2DRCR0UKJD0MiLDFZhsOpzNk1CQY8TPS8KwKyMXs+4u4CZ1P8DQ8jGyrJScnLJEmX0gVe4Nkaq7nFS95YoWqt5yUvWWcy2hGsv57vFudrsDvyzfjl+Wb0erlokAANmTM6UbFDRracOjVxeg4zfheHaDHpZjgXh7XQE+7OOAV7cUOvRY9EVRYEky2nTLw5P9CnB1iPPujAMBeGtRENadl3B8SzBeSrLjv91k79ZIXsfQ0rjtO9KwY2d6yfWIiGDcdmsXgRWpl6IoRb8BoOxl5/XSy0X3lrd86cUrH1Pmist6XR7jvEV2yLiUa4Ulz4Z8qw35+QXIz7chL78A+ZYCWPNtyLcWIOdSPjq0bwqrtaDKs2IXn25n3opAFMrAkC42hAcrlT6mQjoF3Qfn4Zb9ofjhgoS9m8zY3dOCdl78xMj6OxCfHXL2sJr2uIT/DrGj7IbQhKuteHEiMPXtIGy26LD1t0Bs6pSHG7k7WNV27DyKltckwmSq2ZuJoaVxaWlnXEJLp5Pw7XcbPVpnUmI0pj01FKGhgVUvrCHFPS7nL3G9r3PnczDt2fk4cza76oVrINeqw8q/zEhubEeH5vaaryiwEP3byli6Tg/HeSM2nQbaJdZenZWSdVi5wYQLCiCFFWB8X9fAKmaIs+L+Lmb89ZsBjmwTVhzIw43JXqqRamT+grU4dOg0xozqhYG3dHR7QBFDy8fIsoKcHItH69iz9xhWr92FwYM61VJVVNaWLQfrLLAMBj16tLHghZG5qHT6y2q6uqEdZuhhkfU4fBqAl0JLzjViQzoAKIi8xoYbK9nle1XbQiStNuCoLGHPYQMKk+2csVPFFAXIPJONl19bgs8+X4Mxo3phQP+O5Z8otxwMLY1r07ohunVtiQOpGVj5285aW2/xvIpU+wrtrr2f+PhIBAWaERRU9BNoRmCQGcEll00ICjRj7/7jWLZ8W7nrNBh0uHVQJxw/dg5tG+6olcACAFOEjCgdYJGBrGwdAE92mFWf/aQBh+3O+TlbNLYjoJJljQl2tDArOJoPZGbqkQs7Ir1SJdWEIpdusj51+iJefGUxPv18DcaOSkH/fu2rDC+GlsZd1SIeN/dtD4vFhskT+0FWFNgLr/xguWLPRjm7Ot6c9SO2bD0EAAgIMCAszAyXnTaVP7zcG8tfzrN1urNej+osZ52V7iG6fJ9YNfS/uSMefnBghfdbLDYcPpIJSQIs+QXlLnPjDVdj7Og+iIkJx/R/LajmM1ePZFZQvIuooMB7m1TzL+hwUQEgyYiPrOLV1MmICwOQL8GRq0OWA4is5HPPYnP+/nHpVgSYjZAkCZKEot9S6fWiia2LL0MCDqSeLFnPhQt5WLNuDyQUPVYnOR/jvAG6MuuFhKLrrvenpWV69kLVkUK7AxaLrczfhXJep9LL7lDKaR0ZGRfw75f+h0/nr8bY0Sno16ddheHF0PIRxd/SPZHYIApbtjovGw06BAbw7VEXTKbSblBwkBFRkRXvO8zIOIen/++zcu9r3qw+Hnt4IK7t2AwAkHUhF7t2p6N389qrVZGlkr6V3lDDQR01cCm/6HklIKiybhYA6BQEFg/HtwO2KhbPsThf/7dmLfWoxiNpmXjm2dr9kqAW3/+wBf9ee8qtx5QXajrnDS63WywV/4dOnMzCC//5Fp/MX41xo3ujb+/kK07zxE8lIi+THaUf/pWfd81V82b1cejwaURGBGPSxH4YNOBatx5fE3KuhJyicsNDvBdaZbYgoYJzrZZSUNq11VXjQ817f4ZfURTFZaStJ44fP4/nZi7C/C/W4r+vjUJcXETJfQwtIi9zlPkUrk7otG6ViHFjeqNNqyTMX7AOY0b2RHBwVd2P2pF5Su/cTKeT0TDGe5/2Qeai8Z2KhDxrFQsrEi4VfXmXghSEVbG1KsDk/Dt69WwDg14HWVagFB++oChF14sOYVAUyErpfYqCousKoBQdviCXuR/OwVDFl5Wi9RUfHqEUPbb4ssVSgBMnz9f4dfJVOp2EAf07YtR9PV0CC1BpaGXnWHDq1AXRZbho3DgWAWaOSSLPuYZW5Tudr7k6AXM+nFyy32DK5P51WpsLWYd1ewxwAJCC7GjvreHuAELDZARJQI4i4XSWBBlKxaekKNDjZDYAKAiLciCyiu8BEUU9xunT7kSwh5vUPbVr9zFMmPyh0BrKM/SOGzD7uQdKQrf0GMfSUC8b4igTxHJxoBcFtMt1AFMemYv0Y2fLfV69XodBA67FqHt7ICEhqtxlVBla/5r8DDYeCxFdhouuN16NN14ZJboM8gHu9LSqOwy4LpzfFYhvjjpH8MW1teEG73TuAACG+g4kScAeBTiUboStWwEq2vNnTTNgX6Gzzqsbc7h7bZIkCXp97Q7AiY4OvSK09HodBg+6DiPv7YH4+pWP/VRlaJ23OMt6sf9xwZU4/d+yJGRne3bsE1Exu6P0cIK63idVU2f2BeKfX5uRqQBScCFG9y6sMDTqgr5eITrEKNiTKSF7vwl/5BWgT3nHaskS1m0x4bwCwFyI7q0q6ZGRKpQdkGsw6HHbrddj5IjuV2wGrIgqQ0uCgs5JuUhpdkl0KQCAdvF5kH14/jryLnf3adUlpUCH9FN6ZAEotOlwOtOAv3absGKfHpdkCTDaMXh4HgZHe7kwgx39Ozqw6BcDCnJNmPOLEdffUYjwy16u87uD8NFOCQoU1G9vRZ/qfe6RSIoCk8mA2wd3woh7uiE2xr2JnlUZWkS+rGxoGQSHluNoEB54LaicexQExdowZlge7mkupvfSvJsFg7aG4ruzEo7+EYIHbfmYnGLDdXEKCrP12LIlEB+sNOGkDOijbHh4QGG5Uz2RugwccC1e+NdwREeH1ejxDC0iL1NTT8tJASTAZFIQGeFA00Q7rm9rw81tHKgn8hMiqBAPjbTg9Jwg/Jmtw6EtwXh8S3HAFm/5UGCqV4CHx+QhReA5v6j6Bt7S0aPHM7SIvKxsaOl0AkJL58DYx7Mw1vvP7LbAJCtenWrHd8sD8d0OI47mlYZVULgD119rxcgUG1qra9wW1SGGFpGXqa+npW6GcDuGDbuEYUMlrPw8AjO266BLzMfsx/LRjCfP8jtsMURextCqIZ2C1o0dMAFwZJjxbap0xfS9tvKnZyQfwp4WkZe5DMQwMLTcUb+9FV1XGrAqV4cl88OQ18OKlEYydHk67E8146c0B554JA/dubnQZzG0iLzMzp5WjenCC/DYMBvSvzDjcL4BK5aFYEXZBSQ9vt+Vj+5dvHMKFfI+hhaRl8kMLY/EJOfh46mFWLTajPVpepzKlSAFyGiYWIieXawY0pKB5csYWkRexn1anguuX4Ax/yjAGNGFkNexxRB5GUOLqObYYmpBXp4VZ8/liC6DNIKhRVRzbDG14HxWLu4Y9hrefPtHhhdVye7GqUmIyBVDq5YUFjqw6NsNDC+qEntaRDXHFlPLahpellMnsHNbOk5c4rnAfZ2j7KlJdDx7AJE7OHqwjhSH1+LvN+P22zpVuBnIdiYNaxb/ieW/n0K2HI6U/xuDEa35b/Fl7GkR1Zzh3tGzRNfgdNoOdBgHjHtPld2/gwdPoaLX6vjxcxU+rji8dEXfqC9eyEVMbARQcA4bvlqFxauO4TxCERumBy7WSemkMgwtopozHDp8WnQNpYJjgSOZuMrbJ5yrBqutEJ68VrLs3Ow3/YlPMGBwJwwe0hyZqVkI7dwd992RDPt38/De77VVLakZQ4uo5rgdyssG3NYJ/W65DpLBjIEzxmOwyQAd7NguujDyGgdHDxLVmOHj9+8XXYPTnDnAJ58A69bh9effEV3NFZo1jcPTTwwp977jJ85j5ovfVvjYsNBAXNUiHlu3HcGAwZ1hNDq/KxhN/M7gjzhhLlHNGZLbNhJdg1O4BFw6CbRpKLqScgUFmVHRaxUREVzu7WGhgbjn7ptw151dsPDrP7B125G6LJE0wiFz8yBRTfGrfh0oG1bBwQGiyyGVcdgZWkQ1xdCqRWGhgRjxj24YemcXBAeZRZdDKsWBGEQ1x9CqBWaTAZMn9mNYUbUwtIhqjqFVC+LiIjDqvp6iyyCNYGgR1RxDSxgrUlduxvZMGYCM80cLocCBw6vW4+vtEqSAOAwb2lJ0kVQHeOZioppjaIkiFyB941as2Od6ltX0DX8hHYAU3JKh5aNcelo6hhaROxhaoujC0PefU9FXdB3kddw8SFRzbDFEXsbQIqo5thgiL5JlGYpSevoZhhaRe9hiNOpk0czyksTzMWlJ8cTJxRhaRO5hi9GgA/uO49OPl6NBgyh0uq656HLIDWVHDgIMLSJ3scVozIF9x/HWK/9DTEwYPpg1ocJ5D0mdHAwtIo+wxWjI5YEVGxsuuiRyk1wmtHQ6iZt3idzEIe8acWDvcbz1alFgvTMBsTEMLC3iyEEiz7DVaAADy3cwtIg8w1ajcgws38LQIvIMW42KMbB8j51TOBF5hPu0VGr/3mN4+9XvEBsTjvffGc/A8hHsaRF5hq1GhRhYvsvhcJRcZmgRuY+tRmUYWL6NPS0iz7DVqMgVgXUyTXRJVMtcQsvA5kfkLrYalSgbWB+8OwGxWaeBfv2AnBzRpVEtYk+LyDNsNSqwf+8xvFUmsGKiw4B//xs4exZ4913R5VEtcg0tvcBKiLSJoSVYcWDVjy0TWAcOAF9+6VzgjTfY2/IhZYe8G9jTInIbW41AZQPr/XeKAgtw9rLkog+3rCz2tnyIzM2DRB5hqxFk354KAqtsL6sYe1s+g/u0iDzDViPAvj3H8PZr5QQWAMycWdrLKpaVBbzzjneLpDrB0CLyDFuNl+3fe7ziwNq/H1i4sPwHsrflExwupyZh8yNyF1uNl7396v+cgy4uDyzAdV/W5S5cYG/LB7CnReQZthovybNYAQCxsRH44J0JiL48sCrrZRVjb0vzOHqQyDNsNV7Su1cyutxwFeZ8OOnKwAIq72UVY29L89jTIvIMW42XtGmdhP++NvrKTYJA9XpZxdjb0jSGFpFneGoSNUhNBR58sPR6Rgbwv/+VXn/oIdfl9+0DOnf2Tm1UqxhaRJ5haKnB4MHOn2JlQys0FJg1S0xdVOtcTk3CCXOpyIyVibihYa7oMnD4vFl0CVViaJEm2e0OnD2Xg/j6kaJLcQt7WlRWQkIk2rZpiPNZl3DQGi26HMgGGxpb0tE6roXoUirE0CJN+nXVLjw3cxEmjOuDcaNTRJdTbQwtKqteVChmfzBJdBmldu0CkpOB8J6iK6kQWw1pUk6OBQAwe+6v+GXZdsHVVB+HvBN5hq2GNMlgcJ7Wo150GGa+9C3Wrd8ruKLqkR1KyWWemoTIfQwt0rSHn7gdDZKi8ey/FuKvbYdFl1Mll4EY7GkRuY2thjQtMMiMqc8MRVS9MDzx9OfYu++E6JIq5Tr3oCSwEiJtYmiR5oWFB+Px/7sLAUEmPPrEJ0hLyxRdUoU4EIPIMwbMmye6BqftRTvTP/lEbB0VOXMGXnutMjK88zw+pF50GB6fdhdefuErPDR1Hj5+fxIS4tU3HJ6hReQZA8aNE12Dq4kTgSGPiq7iSocOAeP+JboKqkR8g3qY+sxQvDrzazz02Fx8/N79qFcvVHRZLlxHD3IgBpG7+FVP7aLFH3CoJY2axOHhJ27HmTPZeHjqPFy6lC+6JBfsaRF5xoBhw0TX4LR7N7B3LzB0KGAXXUw56kXD66+V0Qg88YR3n9MHXN0qCZMfGYx331yCqU99hllvjkVgoEl0WQAYWkSeMuDrr0XX4DRjhjO0Fi4E7npSdDVXuvoq4IM3RVdB1dSuYzOMmzwAs99bimemL8DrL98Ho1H8BDAMLSLPsNWQz7qha0uMGN0bmzYfxHMzF7kEhiguocUJc4ncJv6rJ1EdSunXAZY8GxZ/8zuCg5dg2lO3Q5LEHR/FnhaRZxha5PMGDumMvLx8/PDTVoSHB+HBSf2F1cIZMYg8w9AinydJEoaN6AlLng2fL1iH0NBAjBzRQ0gtjjJzD3LCXCL3MbTIL0iShJHj+8FiseH9D5cjLDQQQwZ38nodrtM4MbSI3MVWQ35Dr9dh4pSBaNmmIV5+bQlW/rbT6zVwnxaRZ9hqyK8YjQZMmToETZvF47mZi7BhY6pXn5+hReQZthryOwEBJjzy9B2oHx+Fp5/9Ajt2HvXac3MgBpFnuE+L/FJISCCmThuKl59fiKlPfYYP3pmAq1ok1PnzeqOn9c4PQTh5noFYkW/WB4ougTzA0CK/FREZgsen3YWXnl+Ih6d+go/fvx8Nk+p2rkfXCXNrN1gkAAEBRtjtMn7cElar6/YlBoMMAw/s1iyGFvm1mLgITJ02FK+88BUeenQu5n40GdHRdfeBX5c9rcjIEKxZ+XytrpNIbfh1g/xeYlIMJj88GJlnsvHb6t11+lyuocVTkxC5i6FFBCCpUQwA1Pn8hBw9SOQZthoiL+KEuUSeYash8iL2tIg8w1ZDqnL2XA6stkLRZdQZl9DSiZttnkirOHqQVOWvbUfw5ls/YsAtHXH7bZ3QqGGMm2uQkXsiHTv3nkeOw4SY5o3RpkUYzHVSrfs4EIPIM6oMLQUSNh0PwbRliaJLAQDsOBWMNlFK1QuSxyLCg5BzKR9fLfoDXy36Ax3bN8GQ2zqhZ/fWMJmqeLvKOdi+4Ed8suwU8iQd9JDhkI2I69ILUyYlI8Honb+hMtw8SOQZVYZWt0EDkLdiOw5ao0SXAgBISFDQrWtL0WX4hYiIYJfr2/5Ow7a/0xAREYxBA67FkMHXI7FBvXIeKePU8l8wd9k5RKcMxDP3XIP68jlsWrAU89euwtyE+ph2Z6zwNzxDi8gzottwuSaO64OJ4/qILsPv2MrsS9qy9RBatUxE+3aNvXoKjctDq9jFi3n44st1+OLLdeh0XXMkJES6LlBwHL/9cgIFSZ0wamTLol5VDLqMSsGRvd9g9dodSL21L1qZ6vxPqBRDi8gzqgwt8i673YF33v8FPy/bXnLbpi2HsGnLIRgMOsTHR8Jscm5bUxQFilL8u8xlKIACyLLzsqIAKLpfLloWJcsCiqyUXi5Zl4L8/KoHYWzeeqjk8vKlW3HXPd0hHU3D3iwJDbpfg4YlmwFlnN+bjhNWQMk7if0nZLRqKjYoGFpEnmFoEf75/NdYvab8mSDsdhnHj5/3ckXVd02rJBiNBuRmZCFLMaJDUgT0AGDPwY5vf8FnS0+gIMAEyZGNzEwHwNAi0jS2Gj+3Y+fRCgNLrUJCAiB8LvsAABFtSURBVNCndzIAoFGTOAAy8nNtkGFCUJAE+9nD+PalL/Dej2cQ0WsAnh7bFMGSDGu+XWzhAOxlTk1S2xPmEvkD9rT83KbNB6u97Kz/joXZZIAkSdDpJAASJMl5KvvS36WXAUCnK7oNAIru00k6oJLHjR7/Hi5ezCu3hoG3dMSDk/tjzdo9+LXkzMMSJJ0EQEH2nvV44/3tOFgYjW6TBuDubtHQbTkCpagW0djTIvIMQ8vPGY3VewtIEtChXeNqL++Jq1rEY/OWQy63NW9WH09OHYx2yY3Lqw5BIWbolVxs/+EvBCS1wegpKbgpyQRAQU52PmwwIyRU/NudoUXkGbYaP9end3KVPRBJAvr2TvZKYAFAZJkRhEFBZkx9ZBA+nfNgBYHlZG4QjRg9YGx+I558rn9RYAGAA+lHzsGhj0Jikvi3O0OLyDNsNX4uKbFeyeEFUgXZVS8qFJMm3uy1miLCnaHV/+b2+ObLqRg29EYYDJXPHqFv1BStYyTYz2XhTEHpgeDyhQNYuy0PxmbNkBwt/u3uOmEuZ8Qgcpf47SUk3OiRvdCgQT18NHslTpx0HSnYqGE0Pnh3IqIiQ7xWT9u2DdGzR2t0aN+k+g8yxKP34Kb4c/Z+LHgzEHm3Nkes4xw2//An/s6PQp+hyYgXnFmKokCWSwOVcw8SuY+hRQCcm//6pLRF2tEzmPfpKvy6ahcAoHu3Vl4NLADok5Jcg0fpEN29P6bkrcT8xTvwxZvOY85M9Rqi74P9cGdr8bMPlg0sgJsHiWqCoUUlJElC0yZxSEwsb5okDdAFosXAwZjZNw+nMy7BZgxGbHwoAlWSDZefYJKhReQ+hhb5HlMw6jcufzookRhaRJ5jqyHykstDy5tzOhL5CrYaIi/hcHciz7HlEHkJp3Ai8hxbDpGXsKdF5Dm2HCIvcT2wmE2PqCbYcoi8xLWnxdkwiGqCoUXkJdw8SOQ5HqdFVMax4+cw8YGP6mTdR9IySy6r4TQpRFrE0CIqw2otwM5d6XX+PBw9SFQzbDlEAtzQ+SrRJRBpkqp6WscDInFsYyqggp3UQYEmtG/XuOQMvOQfGiRE4a3XR9fpcxhNBrSv5NxgRFQxVYXWk62G4ui0L0SXUeLFmfcgpWcb0WWQFwUHB7AXRKRiqgqti8YgJIXb8GxKhtA6jl4w4+U1CbDZCoXWQURErlQVWjpFRnJ8Adon5AutIzzAUfVCRETkdRyIQUREmsHQIiIizWBoERGRZjC0iIhIMxhaRESkGaoaPUhE5E8Wf78JO3cdE11GqYsXgBaDoF99AiO6ZKJJkzjRFV2BoUVEJMi7HyxDXp4N0UEqOia0yTU4t/8iolb8jQfuv1l0NVdgaBERCaLX6TCk1QU80+uU6FJc3PBeK9ElVIj7tIiISDMYWkREpBkMLSIi0gyGFhERaQZDi4iINIOhRaqxbfsRyLJcK+uynDqBndvSceKSUivrIyJ14JB3Uo1X3/gekiRh/Nje6NWjNXQ6979T2c6kYc3iP7H891PIlsOR8n9jMKI13+ZEvoKtmVQl7egZPDtjIZo0jsW4MSlI6dmmeuFVcA4bvlqFxauO4TxCERumBy7Wfb1E5F3cPEiqlHb0DKb/6yuMGDULv67aWfVmQ72MzNQshHbujkdfGYVhbcyQvFMqEXkRe1qkasXhVWXPSx+LgTPGY7DJAB3s2O79UonICwx9bnlBdA1OVjvyjMEAskVXUuLl15bgjbd+FF2G19lspfOgfbXoDyz+frNXnjc311rhfcXh1bhxLMaPSYGiXDnAwmjidzAiX2eo7IPC6yR1bdCx2QpdPsD9UWGhA4WFDtFllDhaFF7x9SNFl0JEAnCfFmlKUKAJo0f2xNA7bhBdChEJYPj+26dE1+D0xhsYtTZHdBUuHntoIHr2aC26DK/74st1+Oa7jQCAO4Z0xqh7e3jlee++7y3k5xeUe19QoAnD7+qKu4d3RXhYEL5bsskrNRGRuhji4iJE1+AUIEEHdR0IGhYeBNW8Pl4UHBJQejnY7LXXIC42HEfTz7rcdnlYEZF/455rUiWGFRGVh6FFqlLzsLIideVmbM+UAcg4f7QQChw4vGo9vt4uQQqIw7ChLeuqbCLyEoYWqcbdw7qiV882NetZyQVI37gVK/a5HoScvuEvpAOQglsytIh8AEOLVGPI4E41f7AuDH3/ORV9a68cIlIhDnknIiLNYGgRAXA4aueUKERUPXa7A+nHzla94GUYWuT3HA4ZX362CgCQ2CBKcDVE/sFud+Due9/CczMXuRVe3KdFfs3hkDH7vaX4a3MqJoztje7dWokuichvKIqCZSv+xvKVO9CvTzLGjk5Bo4YxlT6GoUV+qziwtmw8gAlje2PcmN6iSyLyS4qiYPnKHVjx607065OMMaN6oXGj2HKXZWiRX2JgEalPdcKLoUV+x+GQ8fG7S7F10wFMGNcH40aniC6J3HQgNQMvvboYVmv5c1VqRW6eis6ycZnvf9iMdev31tn6rdaKz6BRHF7OzYbtMHZ0aXgxtMivMLB8w9vv/oz9B06KLsOnZefkIzsnX3QZWPHrDqz4dQduv60THn/0VoYW+Q8Glu/w9/Pc+ZOgQBPuHtYVw4d1hcGgZ2iRfygbWBPH98HYUQwsXzFpQl90ur6F6DJq5KFH54ouoUIDbumIobfX3XnrrNYCPPDwnArvLxtWZad2Y2iRz3MG1k/YuimVgeWDWrZMRKuWiaLLqBG9Xr2HykbXC63T17Wi/ZFBQWbcfdeNV4RVMYYW+TQGFpE2VBVWxRha5LMcDhlz3l6CrVuP4P7xfTFmVC/RJRHRZaobVsUYWuST7HYHZr+3FDcumo0eD0/BnQwsIlWRJAljR/WqdlgVU+8GVaIaKg6stPXbMOzsdty591fRJRHRZcxmIyaO7+v2+fMYWuRTigNr66ZUvBp+EobCQuCLL4CDB0WXRkS1gKFFPqNsYD02tANar1vqvEOWgZkzxRZHRLWCoUU+wW53FB2HlYpJE/pi+JHfAZutdIEFC4DUVHEFElGtYGiR5hUH1l+bnYE1us/VwEcfuS4ky8C//y2mQCKqNQwt0rTimS7+2pyKyRP7YfTIXsArr7j2soqxt0WkeQwt0rSP3/2pJLBG3dcTyMi4spdVjL0tIs1jaJEm2e0OAEDa4dOlgQVU3Msqxt4WkaYxtEiToqJCAAD3jeheGliV9bKKsbdFpGmcEYM0qXevtmjerL7rWU2r6mUVW7AAmD4duOqquiuQiOoEe1qkSZIkuQbWqVPA7NmAJJX+XPkg54+iAP/5j/eKJaJaw9Ai3xAfD1gszs1/xT8pZWZ0X7LE9b7PPhNXKxHVGEOLiIg0g6FFRESawdAiIiLNYGgREZFmGLBnj+ganM6cAWASXYWrkyeBPSqryRvOni1z+RxU8x5xl1brJqIKGdCmjegaSnV6SHQFrp55Bjjrhx98jboDSV2dl+fNBWasEVsPEVERbh4k/2A2i66AiGqBAQ0biq7B6eJF0RVcqV49IFAlr483hYWXuRwG1bxHaqpXL6B3b9FVEFEtMCA9XXQNTjNmAMtVFlxvvQXc3EF0Fd43ewUwv2iT4OTJwKT+YushIirCzYNERKQZDC0iItIMhhYREWkGQ4uIiDSDoUVERJrB0CIiIs1gaBERkWYwtIiISDMYWkREpBkMLSIi0gyGFhERaQZDi4iINMMgugBSt9xcK3JzraLLIHKRl8f3pL9iaFGlFn+/GYu/3yy6DCIiANw8SOXQ6/m2IO0wGPSiSyAvYk+LrjCwf0esWLkDJ05miS6FqEKSBNzQqQVat0oSXQp5EUOLrpCQEIVvFj4uugwioitwOxAREWkGQ4uIiDRDd+/od/HIZ8dQKLoSIiKiKugOpVmQ2DoeRtGVEBERVcGgT2qLW9qpI7JkSYel+yNwIltsPccumoU+PxERlc/QoncHXKOOzMIdp7Zhyy3/gKITu6stsZ6CJgY9OrZvIrQOIvJtdoeMJXsjkZnLgdzVZejXL1Y1494nHluPie+uAgxqqYiIqO4MGtAR27an4Szqiy7FyWoFDhxAi0Yx6NyphehqymXoE88BhEREIkx95FbRJbjatQtIfhp4cgHQoanoasqli2VmERGRRjCyiIhIM7jziPyaI/Nv/Pe1bTjm8GAlkgHt7r0H4zpe1pwcF7F81hIsPSYDAAzNOuHZB9qgnjtfFXP24b2ZG3DADgA6JPW/DU/eHFnOgjJOr/wJr/x8DuX+KZIEnU4Hg8mI4LAQxMTVQ/O2zdG5XRwiVTIQi6g6GFrk3yxZ2L31EPZ7ElowIugWuZzbbTi55xA2HygKrcKrYHNzzXLBRezbeghbi0Irp23Fa8jPOI7NW0+WH1oVMEQ2QO+hvTFh+DVI5JEepAHcPEjkx+wXTmL57M8x9uFl2HC+vOAlUhf2tIhK6NDyvjGY3jcEkluPkxAco7KmpG+AUW/ciZujyvwligxbXh7OnjyNXZv3YNnadJwtAAAFOXvXY8YLofj4ja5oorI/hagsvj2JSkgwh0ehSZNI7W+CkIyISIhF03IOaWnZtjm6978Jow9txMxnfsKaTBmAgkvbV+PjVe3wn34h2v/7yWfxvUnkp4Kb34BnH+uIuOJPAcWCzWsPIVdoVUSVY2gR+bHQ61qjc5lNiNbjZ3DSLrAgoiowtIj8mT4ccfVKQ0uxWmHheAxSMYYWkV9zoLDMyfQksxkB7o1CIfIqhhaRPys4j+NnlZKrpoRoJPJgY1Ixjh4kKqEgc+ufmJPr5lG2kh5NenRH32b6ytd+5hC++cSKQHfWbcvAaaXqxWpGRtYfu7Ett/gJjGh9fVOE1tXTEdUChhZRCRmnNv6BeRvdfZwRPZO6VhlajlOpWPhpao2rq22OzD14Z85eXCjKLF1sWwzr5wPD/cmnMbSI/I3dgkO/b8BHH6zF+oyiURfGaNz62M24KUxsaURVYWgRldChYZ9+uKdDgHsPk/Ro0KrqpqRPaofJdzdBiDvrzk/H1x9sR5q7cyPKZ7Hsra+w01R6k2IvwKWLOcg4ehancsusMDAOg54YgcdvCmUvi1SPoUVUQkLUNW0xeHDdbCKTohogZVAnJLixcvmcA79+uB1p7j6ZnIcDf+7GgcqW0ZmRdH0nTHggBf2acrZc0gaGFpGfMjfvghkv9EPbINGVEFUfQ4vIF+kTMPyFgegVUXbC3Hz89en/MGerBQoAW+o6zHgtDu9Pb4f4yseQEKkGQ4vIF0km1G/RCO0vmzA3+Z934uyUL7HkuAOAjFO/LcH0pEjMGtsQwWIqJXIL97sS+RFdVEs89nxfdAwt6oEpNuyZvxAvrbjg1skjiURhaBH5GXOLm/D8Ux3QoHiToCMbv72xEHN2WoXWRVQdDC0iv6NDTM/BeGF0I4QUd7gsJzD/+e/wcwZnyyV1Y2gR+SUTWt83HE/1jkBJh+vMbrw+YyW2XxJaGFGlGFpE/kofgX5PDseolqVHIFsOrMeMl7biOM+pRSrF0CLyZ0GNMO65wegVXfxRIOPs+h8x/eMjyBFaGFH5OOSdqIQD+76Yg2GL3TyhlGRC5ymT8WRXbZ7TQ5/QEf834wwynlqHA1YAKMSBr7/GzMTxeHFwDLT5V5GvYmgRlWG7eAEnLrr7KCOaW+rs/CFeEdqhL1546AweeGM/zssA5EtYP2sh3k8Yj4euC+ImGVINvheJCIAejQYNxYw74lAyC6HtNL6e+Q2WHOUOLlIPSVEUdXxFnDEDmDkTKCwEDOwAEhF53a5dQHIysGABcM89oqspF3taRESkGQwtIiLSDIYWERFpBkOLiIg0Q30jHv74gwMxiIhE2LVLdAVVUk86BAY6f/fsKbYOIiJ/FxEhuoIKqWfIe2EhsGoVYOcxIUREwhiNQJ8+gE6de4/UE1pERERVUGeUEhERlYOhRUREmsHQIiIizWBoERGRZvw/8vf8VJxxCZwAAAAASUVORK5CYII=;" parent="1" vertex="1">
                    <mxGeometry x="669" y="160" width="99" height="84.01" as="geometry"/>
                </mxCell>
                <mxCell id="15" value="&lt;font style=&quot;font-size: 6px;&quot;&gt;Combinational&lt;br&gt;Logic&lt;/font&gt;" style="ellipse;shape=cloud;whiteSpace=wrap;html=1;fillColor=none;fontColor=#000000;strokeColor=#000000;" parent="1" vertex="1">
                    <mxGeometry x="589" y="182" width="60" height="40" as="geometry"/>
                </mxCell>
                <mxCell id="16" value="" style="endArrow=none;html=1;strokeColor=#000000;strokeWidth=1;fontSize=6;fontColor=#000000;entryX=0.226;entryY=0.814;entryDx=0;entryDy=0;entryPerimeter=0;" parent="1" target="15" edge="1">
                    <mxGeometry width="50" height="50" relative="1" as="geometry">
                        <mxPoint x="569" y="220" as="sourcePoint"/>
                        <mxPoint x="639" y="190" as="targetPoint"/>
                    </mxGeometry>
                </mxCell>
                <mxCell id="17" value="" style="endArrow=none;html=1;strokeColor=#000000;strokeWidth=1;fontSize=6;fontColor=#000000;entryX=0.226;entryY=0.814;entryDx=0;entryDy=0;entryPerimeter=0;exitX=0.875;exitY=0.5;exitDx=0;exitDy=0;exitPerimeter=0;" parent="1" source="15" edge="1">
                    <mxGeometry width="50" height="50" relative="1" as="geometry">
                        <mxPoint x="635.44" y="195.44" as="sourcePoint"/>
                        <mxPoint x="669" y="190" as="targetPoint"/>
                    </mxGeometry>
                </mxCell>
                <mxCell id="19" value="" style="shape=image;verticalLabelPosition=bottom;labelBackgroundColor=default;verticalAlign=top;aspect=fixed;imageAspect=0;image=data:image/png,iVBORw0KGgoAAAANSUhEUgAAAa0AAAFsCAYAAAB/4uYmAAAgAElEQVR4nO3dd3gU1f4G8He2pjdSSEjoqLRQVBCRFooIiKgIXlE6CIoNKz+5XJV77XoVuxQVRRS9ggWlKFWlCtIhlBBKIJRAQrLZTXZnfn9s2kLaZpM9M7vv53nyZMvs7DebPfvumTlzRlIURQEREZEG6EQXQEREVF0MLSIi0gyGFhERaQZDi4iINIOhRUREmsHQIiIizWBoERGRZjC0iIhIMwyiCyiRng7MmgXIsuhKiIj8V0gIMHUqEBkpupJyqSe0PvkEePNNwGgEDOopi4jIb+TnO3+3agX84x9ia6mAetKhuIdlsTC0iIhE2LULSE4GVDy7H/dpERGRZjC0iIhIMxhaRESkGQwtIiLSDIYWERFpBkOLiIg0g6FFRESawdAiIiLNYGgREZFmMLSIiEgzGFpERKQZDC0iItIMhhYREWmGX02nvmnzQXz6+RrY7Q7RpRCRhgUHm/Hk1NvQICFKdCl+x69C65/Pf4WcnHzRZRCRD3hr1k947eWRosvwO361eTA/v0B0CUTkIyz8PBHCr3paZf1r+l2IjAgWXQYRaci63/fhuyWbRJfh1/w2tG7o1AKRkSGiyyAiDSkosDO0BPOrzYNERKRtDC0iItIMhhYREWkGQ4uIiDSDoUVERJrB0CIiIs1gaBERkWYwtIiISDMYWkREpBkMLSIi0gyGFhERaQZDi4iINIOhRUREmsHQIiIizWBoERGRZjC0iIhIMxhaRESkGQwtIiLSDIYWERFpBkOLiIg0g6FFRESawdAiIiLNYGgREZFmMLSIiEgzGFpERKQZDC0iItIMhhYREWkGQ4uIiDSDoUVERJrB0CIiIs1gaBERkWYwtIiISDMYWkREpBkMLSIi0gyGFhERaQZDi4iINMMgugAiqh1WWyF+WbZNdBmaMWjAtTAa+RGoNfyPEfkIi8WGV17/XnQZmtGvb3uGlgbxP+YlqQczsPK3nRg7KgWBgSbR5ZAPG94jH3f3sIouQ7U+WxmIJRsCRJdBNcTQ8pKlP2/D19/+id27j+HtN8fCZOJLT3UjPlJGfJQsugzVqs/XRtM4EMNLQkMDAQDbdxzFczMXweFgwyEichdDy8tuvaMLVq3ZjVdeXwJFUUSXQ0SkKdxG5WUDB3eGzVqIH37aitDQQEyZ3B+SJIkui4hIExha3iYBw0b0gMViw4KF6xEWFohR9/YUXRURkSYwtASQJAmjxvdFvsWKDz5agbDQQNx+W2fRZRERqR73aQmi0+kw4cGBaNWmEV55/Xus+HWH6JKIiFSPoSWQ0WjAg1NvQ9Pm8Xhu5jf4Y8MB0SUREakaQ0uwgAATHnnqDsQnRGHa9AX4e0ea6JKIiFSLoaUCISGBmDptKMIjgjH1qfk4kJohuiQiIlViaKlERGQIHp92F4wmAx6eOg/Hjp0TXRIRkeowtFQkJi4CU6cNRaHdgSmPzUVm5kXRJRERqQpDS2USk2Lw2NN3IjvbgoemzsOFC7miSyIiUg2Glgo1bZ6AKVOH4GRGFh594lPk5XHGbiIigKGlWq3aNsL9UwYh9WAGHn96Pqy2QtElEREJx9BSsWs7XYXRE27G3zuOYvqMhbDbHaJLIiISiqGlcjf1bIvh9/bE73/ux8wXv4Us85QmROS/OPegBvQbcB3ycq34aclGhIYG4vFHb+XM8ETklxhaGjHkrq7Iy7Pi2+82Iiw0EBPH9xVdEhGR1zG0NEKSJNwzqjcseVbM+2w1QkMD8Y/hN4kui4jIqxhaGqLTSRg76Rbk5xfg7Xd/RmhoIAYNuFZ0WUREXsPQ0hiDQY/Jj9yKN1/6Fv95+Ts0b1Yf11zdQHRZRFRDBw+dgsViE12G05GzCAqORQvRdVSCoaVBJpMRw0b0xH9mLED6sbMMLSKNOnbsHO4b847oMlx1GIfXj+ZArTsfGFoeKCy0488NB9C9Wyuvj+YzmfmvI9K67BwLAGBI6wvo1viS4GqAQ+fN+GBjHPIK1HtoDT/5PFBQYMfTzy5A61aJeOD+m3Ftx2aiSyIiDera6BK6NhY/z2hcaCE+2BgnuoxK8eBiDxQWOmeo2LP3BB58ZC4efmwe9u0/IbgqIiLfxZ6WBy6fVmnz1kPYvPUQevVojfsn9EXjRrGCKiMi8k1+G1qPPz0fUZEh0Ol10Osk6PU6GIx6GA0GmEwGmM0GBAaaEBRkRnCQGcHBAQgNCUBISEDJ5ZxL+eWue/XaPVizbi8G3tIB48f2Qf24iEoqkZF7Ih07955HjsOEmOaN0aZFGMx182cTEWma34bW3n11uxlPURT89PM2LFuxA3fe3hkGg/7KheQcbF/wIz5Zdgp5kg56yHDIRsR16YUpk5KRYKzTEomINMevQqtdcmNs/euwV5/Tbnfg62/+LCe0ZJxa/gvmLjuH6JSBeOaea1BfPodNC5Zi/tpVmJtQH9PujPWvfxARURX86jPxlRfvxeYtB50DKBRAVhQosgK7Q4bD4YDd7kBBgQOFhXbYbIWw5BcgP78AFosNublWXMrNR26u1fmTZ4XVWr1zXIWFBqJ5s/rY9nda6Y0Fx/HbLydQkNQJo0a2LOpVxaDLqBQc2fsNVq/dgdRb+6KVqU5eCiIiTfKr0AoOMqNXjza1tr7de45h/KQPK7w/JjoM99x9E2679Xp8+dXvLqFlP5qGvVkSGnS/Bg1LNgPKOL83HSesgJJ3EvtPyGjVlAM8iYiK+VVo1Ta7o/wD8JKS6mHkiB7o3689jMbyX2JrRhayFCM6JEVADwD2HOz49hd8tvQECgJMkBzZyMx0AAwtIqISDC0P2Atdh7xffVUCRt3bAz26t4ZeX1nYyMjPtUGGCUFBEuxnD2PJh8uxYr8Dib0HYEzLI3j93VRY8+0AOBqDiKgYQ8sDxcdpdezQFKPu64FO1zWv5nROEiSdBEBB9p71eOP97ThYGI1ukwbg7m7R0G05AgXOWd2JiKgUQ8sD9etHYM6Hk9CmdUM3HykhKMQMvZKL7T/8hYCkNhg9JQU3JZkAKMjJzocNZoSE8t9DRFQWPxU94MmMF+YG0YjRH8aZJjfiyWk3onFg8T0OpB85B4c+ColJ3J9FRFQWPxUF0TdqitYxEuznsnCmQCm5Xb5wAGu35cHYrBmSo/nvISIqiz0tUQzx6D24Kf6cvR8L3gxE3q3NEes4h80//Im/86PQZ2gy4plZfk9RlJL9pKczLyIuNrxWToNzMs2I9DKzkEkSoDcoCAqW0SBGRiTH/5BKMbSE0SG6e39MyVuJ+Yt34Is3twMATPUaou+D/XBna84+SMD+Aycx77PVGD+mN+Z+ugpnz2Zj+F1d0btXmwoPp6iSrMfy70Lx8fHywk8B9AoSGxaiV2cr7r7ejnrlzEAmRIEO+9MMOHpBQj4U1Iuxo10jGeH8FPMr/HeLpAtEi4GDMbNvHk5nXILNGIzY+FAEsodFRRQFWP/7Pqz/fR9iY8Nx5kw2npu5CLPe+xl3DumMIbd1Qr2o0Jo/gVFGXKgCHQDZIeHSJQkWhw4n0sz4PM2EnzZZMX20BV3Da+1Pcpts0WPZ8iDM3WjESVvZoFVgCrOjT4oFD3a3ox7bjV9gaKmBKRj1GweLroJU7syZ7JLLWVm5mD3vN3wyfw369k7G8LtuRGys+8liaGLBvEm20g98u4TDB034cXUgvkvV40JaAP45V8GsKfloI2BKMTnbiLdnh2DRCR0UKJD0MiLDFZhsOpzNk1CQY8TPS8KwKyMXs+4u4CZ1P8DQ8jGyrJScnLJEmX0gVe4Nkaq7nFS95YoWqt5yUvWWcy2hGsv57vFudrsDvyzfjl+Wb0erlokAANmTM6UbFDRracOjVxeg4zfheHaDHpZjgXh7XQE+7OOAV7cUOvRY9EVRYEky2nTLw5P9CnB1iPPujAMBeGtRENadl3B8SzBeSrLjv91k79ZIXsfQ0rjtO9KwY2d6yfWIiGDcdmsXgRWpl6IoRb8BoOxl5/XSy0X3lrd86cUrH1Pmist6XR7jvEV2yLiUa4Ulz4Z8qw35+QXIz7chL78A+ZYCWPNtyLcWIOdSPjq0bwqrtaDKs2IXn25n3opAFMrAkC42hAcrlT6mQjoF3Qfn4Zb9ofjhgoS9m8zY3dOCdl78xMj6OxCfHXL2sJr2uIT/DrGj7IbQhKuteHEiMPXtIGy26LD1t0Bs6pSHG7k7WNV27DyKltckwmSq2ZuJoaVxaWlnXEJLp5Pw7XcbPVpnUmI0pj01FKGhgVUvrCHFPS7nL3G9r3PnczDt2fk4cza76oVrINeqw8q/zEhubEeH5vaaryiwEP3byli6Tg/HeSM2nQbaJdZenZWSdVi5wYQLCiCFFWB8X9fAKmaIs+L+Lmb89ZsBjmwTVhzIw43JXqqRamT+grU4dOg0xozqhYG3dHR7QBFDy8fIsoKcHItH69iz9xhWr92FwYM61VJVVNaWLQfrLLAMBj16tLHghZG5qHT6y2q6uqEdZuhhkfU4fBqAl0JLzjViQzoAKIi8xoYbK9nle1XbQiStNuCoLGHPYQMKk+2csVPFFAXIPJONl19bgs8+X4Mxo3phQP+O5Z8otxwMLY1r07ohunVtiQOpGVj5285aW2/xvIpU+wrtrr2f+PhIBAWaERRU9BNoRmCQGcEll00ICjRj7/7jWLZ8W7nrNBh0uHVQJxw/dg5tG+6olcACAFOEjCgdYJGBrGwdAE92mFWf/aQBh+3O+TlbNLYjoJJljQl2tDArOJoPZGbqkQs7Ir1SJdWEIpdusj51+iJefGUxPv18DcaOSkH/fu2rDC+GlsZd1SIeN/dtD4vFhskT+0FWFNgLr/xguWLPRjm7Ot6c9SO2bD0EAAgIMCAszAyXnTaVP7zcG8tfzrN1urNej+osZ52V7iG6fJ9YNfS/uSMefnBghfdbLDYcPpIJSQIs+QXlLnPjDVdj7Og+iIkJx/R/LajmM1ePZFZQvIuooMB7m1TzL+hwUQEgyYiPrOLV1MmICwOQL8GRq0OWA4is5HPPYnP+/nHpVgSYjZAkCZKEot9S6fWiia2LL0MCDqSeLFnPhQt5WLNuDyQUPVYnOR/jvAG6MuuFhKLrrvenpWV69kLVkUK7AxaLrczfhXJep9LL7lDKaR0ZGRfw75f+h0/nr8bY0Sno16ddheHF0PIRxd/SPZHYIApbtjovGw06BAbw7VEXTKbSblBwkBFRkRXvO8zIOIen/++zcu9r3qw+Hnt4IK7t2AwAkHUhF7t2p6N389qrVZGlkr6V3lDDQR01cCm/6HklIKiybhYA6BQEFg/HtwO2KhbPsThf/7dmLfWoxiNpmXjm2dr9kqAW3/+wBf9ee8qtx5QXajrnDS63WywV/4dOnMzCC//5Fp/MX41xo3ujb+/kK07zxE8lIi+THaUf/pWfd81V82b1cejwaURGBGPSxH4YNOBatx5fE3KuhJyicsNDvBdaZbYgoYJzrZZSUNq11VXjQ817f4ZfURTFZaStJ44fP4/nZi7C/C/W4r+vjUJcXETJfQwtIi9zlPkUrk7otG6ViHFjeqNNqyTMX7AOY0b2RHBwVd2P2pF5Su/cTKeT0TDGe5/2Qeai8Z2KhDxrFQsrEi4VfXmXghSEVbG1KsDk/Dt69WwDg14HWVagFB++oChF14sOYVAUyErpfYqCousKoBQdviCXuR/OwVDFl5Wi9RUfHqEUPbb4ssVSgBMnz9f4dfJVOp2EAf07YtR9PV0CC1BpaGXnWHDq1AXRZbho3DgWAWaOSSLPuYZW5Tudr7k6AXM+nFyy32DK5P51WpsLWYd1ewxwAJCC7GjvreHuAELDZARJQI4i4XSWBBlKxaekKNDjZDYAKAiLciCyiu8BEUU9xunT7kSwh5vUPbVr9zFMmPyh0BrKM/SOGzD7uQdKQrf0GMfSUC8b4igTxHJxoBcFtMt1AFMemYv0Y2fLfV69XodBA67FqHt7ICEhqtxlVBla/5r8DDYeCxFdhouuN16NN14ZJboM8gHu9LSqOwy4LpzfFYhvjjpH8MW1teEG73TuAACG+g4kScAeBTiUboStWwEq2vNnTTNgX6Gzzqsbc7h7bZIkCXp97Q7AiY4OvSK09HodBg+6DiPv7YH4+pWP/VRlaJ23OMt6sf9xwZU4/d+yJGRne3bsE1Exu6P0cIK63idVU2f2BeKfX5uRqQBScCFG9y6sMDTqgr5eITrEKNiTKSF7vwl/5BWgT3nHaskS1m0x4bwCwFyI7q0q6ZGRKpQdkGsw6HHbrddj5IjuV2wGrIgqQ0uCgs5JuUhpdkl0KQCAdvF5kH14/jryLnf3adUlpUCH9FN6ZAEotOlwOtOAv3absGKfHpdkCTDaMXh4HgZHe7kwgx39Ozqw6BcDCnJNmPOLEdffUYjwy16u87uD8NFOCQoU1G9vRZ/qfe6RSIoCk8mA2wd3woh7uiE2xr2JnlUZWkS+rGxoGQSHluNoEB54LaicexQExdowZlge7mkupvfSvJsFg7aG4ruzEo7+EYIHbfmYnGLDdXEKCrP12LIlEB+sNOGkDOijbHh4QGG5Uz2RugwccC1e+NdwREeH1ejxDC0iL1NTT8tJASTAZFIQGeFA00Q7rm9rw81tHKgn8hMiqBAPjbTg9Jwg/Jmtw6EtwXh8S3HAFm/5UGCqV4CHx+QhReA5v6j6Bt7S0aPHM7SIvKxsaOl0AkJL58DYx7Mw1vvP7LbAJCtenWrHd8sD8d0OI47mlYZVULgD119rxcgUG1qra9wW1SGGFpGXqa+npW6GcDuGDbuEYUMlrPw8AjO266BLzMfsx/LRjCfP8jtsMURextCqIZ2C1o0dMAFwZJjxbap0xfS9tvKnZyQfwp4WkZe5DMQwMLTcUb+9FV1XGrAqV4cl88OQ18OKlEYydHk67E8146c0B554JA/dubnQZzG0iLzMzp5WjenCC/DYMBvSvzDjcL4BK5aFYEXZBSQ9vt+Vj+5dvHMKFfI+hhaRl8kMLY/EJOfh46mFWLTajPVpepzKlSAFyGiYWIieXawY0pKB5csYWkRexn1anguuX4Ax/yjAGNGFkNexxRB5GUOLqObYYmpBXp4VZ8/liC6DNIKhRVRzbDG14HxWLu4Y9hrefPtHhhdVye7GqUmIyBVDq5YUFjqw6NsNDC+qEntaRDXHFlPLahpellMnsHNbOk5c4rnAfZ2j7KlJdDx7AJE7OHqwjhSH1+LvN+P22zpVuBnIdiYNaxb/ieW/n0K2HI6U/xuDEa35b/Fl7GkR1Zzh3tGzRNfgdNoOdBgHjHtPld2/gwdPoaLX6vjxcxU+rji8dEXfqC9eyEVMbARQcA4bvlqFxauO4TxCERumBy7WSemkMgwtopozHDp8WnQNpYJjgSOZuMrbJ5yrBqutEJ68VrLs3Ow3/YlPMGBwJwwe0hyZqVkI7dwd992RDPt38/De77VVLakZQ4uo5rgdyssG3NYJ/W65DpLBjIEzxmOwyQAd7NguujDyGgdHDxLVmOHj9+8XXYPTnDnAJ58A69bh9effEV3NFZo1jcPTTwwp977jJ85j5ovfVvjYsNBAXNUiHlu3HcGAwZ1hNDq/KxhN/M7gjzhhLlHNGZLbNhJdg1O4BFw6CbRpKLqScgUFmVHRaxUREVzu7WGhgbjn7ptw151dsPDrP7B125G6LJE0wiFz8yBRTfGrfh0oG1bBwQGiyyGVcdgZWkQ1xdCqRWGhgRjxj24YemcXBAeZRZdDKsWBGEQ1x9CqBWaTAZMn9mNYUbUwtIhqjqFVC+LiIjDqvp6iyyCNYGgR1RxDSxgrUlduxvZMGYCM80cLocCBw6vW4+vtEqSAOAwb2lJ0kVQHeOZioppjaIkiFyB941as2Od6ltX0DX8hHYAU3JKh5aNcelo6hhaROxhaoujC0PefU9FXdB3kddw8SFRzbDFEXsbQIqo5thgiL5JlGYpSevoZhhaRe9hiNOpk0czyksTzMWlJ8cTJxRhaRO5hi9GgA/uO49OPl6NBgyh0uq656HLIDWVHDgIMLSJ3scVozIF9x/HWK/9DTEwYPpg1ocJ5D0mdHAwtIo+wxWjI5YEVGxsuuiRyk1wmtHQ6iZt3idzEIe8acWDvcbz1alFgvTMBsTEMLC3iyEEiz7DVaAADy3cwtIg8w1ajcgws38LQIvIMW42KMbB8j51TOBF5hPu0VGr/3mN4+9XvEBsTjvffGc/A8hHsaRF5hq1GhRhYvsvhcJRcZmgRuY+tRmUYWL6NPS0iz7DVqMgVgXUyTXRJVMtcQsvA5kfkLrYalSgbWB+8OwGxWaeBfv2AnBzRpVEtYk+LyDNsNSqwf+8xvFUmsGKiw4B//xs4exZ4913R5VEtcg0tvcBKiLSJoSVYcWDVjy0TWAcOAF9+6VzgjTfY2/IhZYe8G9jTInIbW41AZQPr/XeKAgtw9rLkog+3rCz2tnyIzM2DRB5hqxFk354KAqtsL6sYe1s+g/u0iDzDViPAvj3H8PZr5QQWAMycWdrLKpaVBbzzjneLpDrB0CLyDFuNl+3fe7ziwNq/H1i4sPwHsrflExwupyZh8yNyF1uNl7396v+cgy4uDyzAdV/W5S5cYG/LB7CnReQZthovybNYAQCxsRH44J0JiL48sCrrZRVjb0vzOHqQyDNsNV7Su1cyutxwFeZ8OOnKwAIq72UVY29L89jTIvIMW42XtGmdhP++NvrKTYJA9XpZxdjb0jSGFpFneGoSNUhNBR58sPR6Rgbwv/+VXn/oIdfl9+0DOnf2Tm1UqxhaRJ5haKnB4MHOn2JlQys0FJg1S0xdVOtcTk3CCXOpyIyVibihYa7oMnD4vFl0CVViaJEm2e0OnD2Xg/j6kaJLcQt7WlRWQkIk2rZpiPNZl3DQGi26HMgGGxpb0tE6roXoUirE0CJN+nXVLjw3cxEmjOuDcaNTRJdTbQwtKqteVChmfzBJdBmldu0CkpOB8J6iK6kQWw1pUk6OBQAwe+6v+GXZdsHVVB+HvBN5hq2GNMlgcJ7Wo150GGa+9C3Wrd8ruKLqkR1KyWWemoTIfQwt0rSHn7gdDZKi8ey/FuKvbYdFl1Mll4EY7GkRuY2thjQtMMiMqc8MRVS9MDzx9OfYu++E6JIq5Tr3oCSwEiJtYmiR5oWFB+Px/7sLAUEmPPrEJ0hLyxRdUoU4EIPIMwbMmye6BqftRTvTP/lEbB0VOXMGXnutMjK88zw+pF50GB6fdhdefuErPDR1Hj5+fxIS4tU3HJ6hReQZA8aNE12Dq4kTgSGPiq7iSocOAeP+JboKqkR8g3qY+sxQvDrzazz02Fx8/N79qFcvVHRZLlxHD3IgBpG7+FVP7aLFH3CoJY2axOHhJ27HmTPZeHjqPFy6lC+6JBfsaRF5xoBhw0TX4LR7N7B3LzB0KGAXXUw56kXD66+V0Qg88YR3n9MHXN0qCZMfGYx331yCqU99hllvjkVgoEl0WQAYWkSeMuDrr0XX4DRjhjO0Fi4E7npSdDVXuvoq4IM3RVdB1dSuYzOMmzwAs99bimemL8DrL98Ho1H8BDAMLSLPsNWQz7qha0uMGN0bmzYfxHMzF7kEhiguocUJc4ncJv6rJ1EdSunXAZY8GxZ/8zuCg5dg2lO3Q5LEHR/FnhaRZxha5PMGDumMvLx8/PDTVoSHB+HBSf2F1cIZMYg8w9AinydJEoaN6AlLng2fL1iH0NBAjBzRQ0gtjjJzD3LCXCL3MbTIL0iShJHj+8FiseH9D5cjLDQQQwZ38nodrtM4MbSI3MVWQ35Dr9dh4pSBaNmmIV5+bQlW/rbT6zVwnxaRZ9hqyK8YjQZMmToETZvF47mZi7BhY6pXn5+hReQZthryOwEBJjzy9B2oHx+Fp5/9Ajt2HvXac3MgBpFnuE+L/FJISCCmThuKl59fiKlPfYYP3pmAq1ok1PnzeqOn9c4PQTh5noFYkW/WB4ougTzA0CK/FREZgsen3YWXnl+Ih6d+go/fvx8Nk+p2rkfXCXNrN1gkAAEBRtjtMn7cElar6/YlBoMMAw/s1iyGFvm1mLgITJ02FK+88BUeenQu5n40GdHRdfeBX5c9rcjIEKxZ+XytrpNIbfh1g/xeYlIMJj88GJlnsvHb6t11+lyuocVTkxC5i6FFBCCpUQwA1Pn8hBw9SOQZthoiL+KEuUSeYash8iL2tIg8w1ZDqnL2XA6stkLRZdQZl9DSiZttnkirOHqQVOWvbUfw5ls/YsAtHXH7bZ3QqGGMm2uQkXsiHTv3nkeOw4SY5o3RpkUYzHVSrfs4EIPIM6oMLQUSNh0PwbRliaJLAQDsOBWMNlFK1QuSxyLCg5BzKR9fLfoDXy36Ax3bN8GQ2zqhZ/fWMJmqeLvKOdi+4Ed8suwU8iQd9JDhkI2I69ILUyYlI8Honb+hMtw8SOQZVYZWt0EDkLdiOw5ao0SXAgBISFDQrWtL0WX4hYiIYJfr2/5Ow7a/0xAREYxBA67FkMHXI7FBvXIeKePU8l8wd9k5RKcMxDP3XIP68jlsWrAU89euwtyE+ph2Z6zwNzxDi8gzottwuSaO64OJ4/qILsPv2MrsS9qy9RBatUxE+3aNvXoKjctDq9jFi3n44st1+OLLdeh0XXMkJES6LlBwHL/9cgIFSZ0wamTLol5VDLqMSsGRvd9g9dodSL21L1qZ6vxPqBRDi8gzqgwt8i673YF33v8FPy/bXnLbpi2HsGnLIRgMOsTHR8Jscm5bUxQFilL8u8xlKIACyLLzsqIAKLpfLloWJcsCiqyUXi5Zl4L8/KoHYWzeeqjk8vKlW3HXPd0hHU3D3iwJDbpfg4YlmwFlnN+bjhNWQMk7if0nZLRqKjYoGFpEnmFoEf75/NdYvab8mSDsdhnHj5/3ckXVd02rJBiNBuRmZCFLMaJDUgT0AGDPwY5vf8FnS0+gIMAEyZGNzEwHwNAi0jS2Gj+3Y+fRCgNLrUJCAiB8LvsAABFtSURBVNCndzIAoFGTOAAy8nNtkGFCUJAE+9nD+PalL/Dej2cQ0WsAnh7bFMGSDGu+XWzhAOxlTk1S2xPmEvkD9rT83KbNB6u97Kz/joXZZIAkSdDpJAASJMl5KvvS36WXAUCnK7oNAIru00k6oJLHjR7/Hi5ezCu3hoG3dMSDk/tjzdo9+LXkzMMSJJ0EQEH2nvV44/3tOFgYjW6TBuDubtHQbTkCpagW0djTIvIMQ8vPGY3VewtIEtChXeNqL++Jq1rEY/OWQy63NW9WH09OHYx2yY3Lqw5BIWbolVxs/+EvBCS1wegpKbgpyQRAQU52PmwwIyRU/NudoUXkGbYaP9end3KVPRBJAvr2TvZKYAFAZJkRhEFBZkx9ZBA+nfNgBYHlZG4QjRg9YGx+I558rn9RYAGAA+lHzsGhj0Jikvi3O0OLyDNsNX4uKbFeyeEFUgXZVS8qFJMm3uy1miLCnaHV/+b2+ObLqRg29EYYDJXPHqFv1BStYyTYz2XhTEHpgeDyhQNYuy0PxmbNkBwt/u3uOmEuZ8Qgcpf47SUk3OiRvdCgQT18NHslTpx0HSnYqGE0Pnh3IqIiQ7xWT9u2DdGzR2t0aN+k+g8yxKP34Kb4c/Z+LHgzEHm3Nkes4xw2//An/s6PQp+hyYgXnFmKokCWSwOVcw8SuY+hRQCcm//6pLRF2tEzmPfpKvy6ahcAoHu3Vl4NLADok5Jcg0fpEN29P6bkrcT8xTvwxZvOY85M9Rqi74P9cGdr8bMPlg0sgJsHiWqCoUUlJElC0yZxSEwsb5okDdAFosXAwZjZNw+nMy7BZgxGbHwoAlWSDZefYJKhReQ+hhb5HlMw6jcufzookRhaRJ5jqyHykstDy5tzOhL5CrYaIi/hcHciz7HlEHkJp3Ai8hxbDpGXsKdF5Dm2HCIvcT2wmE2PqCbYcoi8xLWnxdkwiGqCoUXkJdw8SOQ5HqdFVMax4+cw8YGP6mTdR9IySy6r4TQpRFrE0CIqw2otwM5d6XX+PBw9SFQzbDlEAtzQ+SrRJRBpkqp6WscDInFsYyqggp3UQYEmtG/XuOQMvOQfGiRE4a3XR9fpcxhNBrSv5NxgRFQxVYXWk62G4ui0L0SXUeLFmfcgpWcb0WWQFwUHB7AXRKRiqgqti8YgJIXb8GxKhtA6jl4w4+U1CbDZCoXWQURErlQVWjpFRnJ8Adon5AutIzzAUfVCRETkdRyIQUREmsHQIiIizWBoERGRZjC0iIhIMxhaRESkGaoaPUhE5E8Wf78JO3cdE11GqYsXgBaDoF99AiO6ZKJJkzjRFV2BoUVEJMi7HyxDXp4N0UEqOia0yTU4t/8iolb8jQfuv1l0NVdgaBERCaLX6TCk1QU80+uU6FJc3PBeK9ElVIj7tIiISDMYWkREpBkMLSIi0gyGFhERaQZDi4iINIOhRaqxbfsRyLJcK+uynDqBndvSceKSUivrIyJ14JB3Uo1X3/gekiRh/Nje6NWjNXQ6979T2c6kYc3iP7H891PIlsOR8n9jMKI13+ZEvoKtmVQl7egZPDtjIZo0jsW4MSlI6dmmeuFVcA4bvlqFxauO4TxCERumBy7Wfb1E5F3cPEiqlHb0DKb/6yuMGDULv67aWfVmQ72MzNQshHbujkdfGYVhbcyQvFMqEXkRe1qkasXhVWXPSx+LgTPGY7DJAB3s2O79UonICwx9bnlBdA1OVjvyjMEAskVXUuLl15bgjbd+FF2G19lspfOgfbXoDyz+frNXnjc311rhfcXh1bhxLMaPSYGiXDnAwmjidzAiX2eo7IPC6yR1bdCx2QpdPsD9UWGhA4WFDtFllDhaFF7x9SNFl0JEAnCfFmlKUKAJo0f2xNA7bhBdChEJYPj+26dE1+D0xhsYtTZHdBUuHntoIHr2aC26DK/74st1+Oa7jQCAO4Z0xqh7e3jlee++7y3k5xeUe19QoAnD7+qKu4d3RXhYEL5bsskrNRGRuhji4iJE1+AUIEEHdR0IGhYeBNW8Pl4UHBJQejnY7LXXIC42HEfTz7rcdnlYEZF/455rUiWGFRGVh6FFqlLzsLIideVmbM+UAcg4f7QQChw4vGo9vt4uQQqIw7ChLeuqbCLyEoYWqcbdw7qiV882NetZyQVI37gVK/a5HoScvuEvpAOQglsytIh8AEOLVGPI4E41f7AuDH3/ORV9a68cIlIhDnknIiLNYGgRAXA4aueUKERUPXa7A+nHzla94GUYWuT3HA4ZX362CgCQ2CBKcDVE/sFud+Due9/CczMXuRVe3KdFfs3hkDH7vaX4a3MqJoztje7dWokuichvKIqCZSv+xvKVO9CvTzLGjk5Bo4YxlT6GoUV+qziwtmw8gAlje2PcmN6iSyLyS4qiYPnKHVjx607065OMMaN6oXGj2HKXZWiRX2JgEalPdcKLoUV+x+GQ8fG7S7F10wFMGNcH40aniC6J3HQgNQMvvboYVmv5c1VqRW6eis6ycZnvf9iMdev31tn6rdaKz6BRHF7OzYbtMHZ0aXgxtMivMLB8w9vv/oz9B06KLsOnZefkIzsnX3QZWPHrDqz4dQduv60THn/0VoYW+Q8Glu/w9/Pc+ZOgQBPuHtYVw4d1hcGgZ2iRfygbWBPH98HYUQwsXzFpQl90ur6F6DJq5KFH54ouoUIDbumIobfX3XnrrNYCPPDwnArvLxtWZad2Y2iRz3MG1k/YuimVgeWDWrZMRKuWiaLLqBG9Xr2HykbXC63T17Wi/ZFBQWbcfdeNV4RVMYYW+TQGFpE2VBVWxRha5LMcDhlz3l6CrVuP4P7xfTFmVC/RJRHRZaobVsUYWuST7HYHZr+3FDcumo0eD0/BnQwsIlWRJAljR/WqdlgVU+8GVaIaKg6stPXbMOzsdty591fRJRHRZcxmIyaO7+v2+fMYWuRTigNr66ZUvBp+EobCQuCLL4CDB0WXRkS1gKFFPqNsYD02tANar1vqvEOWgZkzxRZHRLWCoUU+wW53FB2HlYpJE/pi+JHfAZutdIEFC4DUVHEFElGtYGiR5hUH1l+bnYE1us/VwEcfuS4ky8C//y2mQCKqNQwt0rTimS7+2pyKyRP7YfTIXsArr7j2soqxt0WkeQwt0rSP3/2pJLBG3dcTyMi4spdVjL0tIs1jaJEm2e0OAEDa4dOlgQVU3Msqxt4WkaYxtEiToqJCAAD3jeheGliV9bKKsbdFpGmcEYM0qXevtmjerL7rWU2r6mUVW7AAmD4duOqquiuQiOoEe1qkSZIkuQbWqVPA7NmAJJX+XPkg54+iAP/5j/eKJaJaw9Ai3xAfD1gszs1/xT8pZWZ0X7LE9b7PPhNXKxHVGEOLiIg0g6FFRESawdAiIiLNYGgREZFmGLBnj+ganM6cAWASXYWrkyeBPSqryRvOni1z+RxU8x5xl1brJqIKGdCmjegaSnV6SHQFrp55Bjjrhx98jboDSV2dl+fNBWasEVsPEVERbh4k/2A2i66AiGqBAQ0biq7B6eJF0RVcqV49IFAlr483hYWXuRwG1bxHaqpXL6B3b9FVEFEtMCA9XXQNTjNmAMtVFlxvvQXc3EF0Fd43ewUwv2iT4OTJwKT+YushIirCzYNERKQZDC0iItIMhhYREWkGQ4uIiDSDoUVERJrB0CIiIs1gaBERkWYwtIiISDMYWkREpBkMLSIi0gyGFhERaQZDi4iINMMgugBSt9xcK3JzraLLIHKRl8f3pL9iaFGlFn+/GYu/3yy6DCIiANw8SOXQ6/m2IO0wGPSiSyAvYk+LrjCwf0esWLkDJ05miS6FqEKSBNzQqQVat0oSXQp5EUOLrpCQEIVvFj4uugwioitwOxAREWkGQ4uIiDRDd+/od/HIZ8dQKLoSIiKiKugOpVmQ2DoeRtGVEBERVcGgT2qLW9qpI7JkSYel+yNwIltsPccumoU+PxERlc/QoncHXKOOzMIdp7Zhyy3/gKITu6stsZ6CJgY9OrZvIrQOIvJtdoeMJXsjkZnLgdzVZejXL1Y1494nHluPie+uAgxqqYiIqO4MGtAR27an4Szqiy7FyWoFDhxAi0Yx6NyphehqymXoE88BhEREIkx95FbRJbjatQtIfhp4cgHQoanoasqli2VmERGRRjCyiIhIM7jziPyaI/Nv/Pe1bTjm8GAlkgHt7r0H4zpe1pwcF7F81hIsPSYDAAzNOuHZB9qgnjtfFXP24b2ZG3DADgA6JPW/DU/eHFnOgjJOr/wJr/x8DuX+KZIEnU4Hg8mI4LAQxMTVQ/O2zdG5XRwiVTIQi6g6GFrk3yxZ2L31EPZ7ElowIugWuZzbbTi55xA2HygKrcKrYHNzzXLBRezbeghbi0Irp23Fa8jPOI7NW0+WH1oVMEQ2QO+hvTFh+DVI5JEepAHcPEjkx+wXTmL57M8x9uFl2HC+vOAlUhf2tIhK6NDyvjGY3jcEkluPkxAco7KmpG+AUW/ciZujyvwligxbXh7OnjyNXZv3YNnadJwtAAAFOXvXY8YLofj4ja5oorI/hagsvj2JSkgwh0ehSZNI7W+CkIyISIhF03IOaWnZtjm6978Jow9txMxnfsKaTBmAgkvbV+PjVe3wn34h2v/7yWfxvUnkp4Kb34BnH+uIuOJPAcWCzWsPIVdoVUSVY2gR+bHQ61qjc5lNiNbjZ3DSLrAgoiowtIj8mT4ccfVKQ0uxWmHheAxSMYYWkV9zoLDMyfQksxkB7o1CIfIqhhaRPys4j+NnlZKrpoRoJPJgY1Ixjh4kKqEgc+ufmJPr5lG2kh5NenRH32b6ytd+5hC++cSKQHfWbcvAaaXqxWpGRtYfu7Ett/gJjGh9fVOE1tXTEdUChhZRCRmnNv6BeRvdfZwRPZO6VhlajlOpWPhpao2rq22OzD14Z85eXCjKLF1sWwzr5wPD/cmnMbSI/I3dgkO/b8BHH6zF+oyiURfGaNz62M24KUxsaURVYWgRldChYZ9+uKdDgHsPk/Ro0KrqpqRPaofJdzdBiDvrzk/H1x9sR5q7cyPKZ7Hsra+w01R6k2IvwKWLOcg4ehancsusMDAOg54YgcdvCmUvi1SPoUVUQkLUNW0xeHDdbCKTohogZVAnJLixcvmcA79+uB1p7j6ZnIcDf+7GgcqW0ZmRdH0nTHggBf2acrZc0gaGFpGfMjfvghkv9EPbINGVEFUfQ4vIF+kTMPyFgegVUXbC3Hz89en/MGerBQoAW+o6zHgtDu9Pb4f4yseQEKkGQ4vIF0km1G/RCO0vmzA3+Z934uyUL7HkuAOAjFO/LcH0pEjMGtsQwWIqJXIL97sS+RFdVEs89nxfdAwt6oEpNuyZvxAvrbjg1skjiURhaBH5GXOLm/D8Ux3QoHiToCMbv72xEHN2WoXWRVQdDC0iv6NDTM/BeGF0I4QUd7gsJzD/+e/wcwZnyyV1Y2gR+SUTWt83HE/1jkBJh+vMbrw+YyW2XxJaGFGlGFpE/kofgX5PDseolqVHIFsOrMeMl7biOM+pRSrF0CLyZ0GNMO65wegVXfxRIOPs+h8x/eMjyBFaGFH5OOSdqIQD+76Yg2GL3TyhlGRC5ymT8WRXbZ7TQ5/QEf834wwynlqHA1YAKMSBr7/GzMTxeHFwDLT5V5GvYmgRlWG7eAEnLrr7KCOaW+rs/CFeEdqhL1546AweeGM/zssA5EtYP2sh3k8Yj4euC+ImGVINvheJCIAejQYNxYw74lAyC6HtNL6e+Q2WHOUOLlIPSVEUdXxFnDEDmDkTKCwEDOwAEhF53a5dQHIysGABcM89oqspF3taRESkGQwtIiLSDIYWERFpBkOLiIg0Q30jHv74gwMxiIhE2LVLdAVVUk86BAY6f/fsKbYOIiJ/FxEhuoIKqWfIe2EhsGoVYOcxIUREwhiNQJ8+gE6de4/UE1pERERVUGeUEhERlYOhRUREmsHQIiIizWBoERGRZvw/8vf8VJxxCZwAAAAASUVORK5CYII=;" parent="1" vertex="1">
                    <mxGeometry x="270" y="300" width="99" height="84.01" as="geometry"/>
                </mxCell>
                <mxCell id="20" value="" style="shape=image;verticalLabelPosition=bottom;labelBackgroundColor=default;verticalAlign=top;aspect=fixed;imageAspect=0;image=data:image/png,iVBORw0KGgoAAAANSUhEUgAAAa0AAAFsCAYAAAB/4uYmAAAgAElEQVR4nO3dd3gU1f4G8He2pjdSSEjoqLRQVBCRFooIiKgIXlE6CIoNKz+5XJV77XoVuxQVRRS9ggWlKFWlCtIhlBBKIJRAQrLZTXZnfn9s2kLaZpM9M7vv53nyZMvs7DebPfvumTlzRlIURQEREZEG6EQXQEREVF0MLSIi0gyGFhERaQZDi4iINIOhRUREmsHQIiIizWBoERGRZjC0iIhIMwyiCyiRng7MmgXIsuhKiIj8V0gIMHUqEBkpupJyqSe0PvkEePNNwGgEDOopi4jIb+TnO3+3agX84x9ia6mAetKhuIdlsTC0iIhE2LULSE4GVDy7H/dpERGRZjC0iIhIMxhaRESkGQwtIiLSDIYWERFpBkOLiIg0g6FFRESawdAiIiLNYGgREZFmMLSIiEgzGFpERKQZDC0iItIMhhYREWmGX02nvmnzQXz6+RrY7Q7RpRCRhgUHm/Hk1NvQICFKdCl+x69C65/Pf4WcnHzRZRCRD3hr1k947eWRosvwO361eTA/v0B0CUTkIyz8PBHCr3paZf1r+l2IjAgWXQYRaci63/fhuyWbRJfh1/w2tG7o1AKRkSGiyyAiDSkosDO0BPOrzYNERKRtDC0iItIMhhYREWkGQ4uIiDSDoUVERJrB0CIiIs1gaBERkWYwtIiISDMYWkREpBkMLSIi0gyGFhERaQZDi4iINIOhRUREmsHQIiIizWBoERGRZjC0iIhIMxhaRESkGQwtIiLSDIYWERFpBkOLiIg0g6FFRESawdAiIiLNYGgREZFmMLSIiEgzGFpERKQZDC0iItIMhhYREWkGQ4uIiDSDoUVERJrB0CIiIs1gaBERkWYwtIiISDMYWkREpBkMLSIi0gyGFhERaQZDi4iINMMgugAiqh1WWyF+WbZNdBmaMWjAtTAa+RGoNfyPEfkIi8WGV17/XnQZmtGvb3uGlgbxP+YlqQczsPK3nRg7KgWBgSbR5ZAPG94jH3f3sIouQ7U+WxmIJRsCRJdBNcTQ8pKlP2/D19/+id27j+HtN8fCZOJLT3UjPlJGfJQsugzVqs/XRtM4EMNLQkMDAQDbdxzFczMXweFgwyEichdDy8tuvaMLVq3ZjVdeXwJFUUSXQ0SkKdxG5WUDB3eGzVqIH37aitDQQEyZ3B+SJIkui4hIExha3iYBw0b0gMViw4KF6xEWFohR9/YUXRURkSYwtASQJAmjxvdFvsWKDz5agbDQQNx+W2fRZRERqR73aQmi0+kw4cGBaNWmEV55/Xus+HWH6JKIiFSPoSWQ0WjAg1NvQ9Pm8Xhu5jf4Y8MB0SUREakaQ0uwgAATHnnqDsQnRGHa9AX4e0ea6JKIiFSLoaUCISGBmDptKMIjgjH1qfk4kJohuiQiIlViaKlERGQIHp92F4wmAx6eOg/Hjp0TXRIRkeowtFQkJi4CU6cNRaHdgSmPzUVm5kXRJRERqQpDS2USk2Lw2NN3IjvbgoemzsOFC7miSyIiUg2Glgo1bZ6AKVOH4GRGFh594lPk5XHGbiIigKGlWq3aNsL9UwYh9WAGHn96Pqy2QtElEREJx9BSsWs7XYXRE27G3zuOYvqMhbDbHaJLIiISiqGlcjf1bIvh9/bE73/ux8wXv4Us85QmROS/OPegBvQbcB3ycq34aclGhIYG4vFHb+XM8ETklxhaGjHkrq7Iy7Pi2+82Iiw0EBPH9xVdEhGR1zG0NEKSJNwzqjcseVbM+2w1QkMD8Y/hN4kui4jIqxhaGqLTSRg76Rbk5xfg7Xd/RmhoIAYNuFZ0WUREXsPQ0hiDQY/Jj9yKN1/6Fv95+Ts0b1Yf11zdQHRZRFRDBw+dgsViE12G05GzCAqORQvRdVSCoaVBJpMRw0b0xH9mLED6sbMMLSKNOnbsHO4b847oMlx1GIfXj+ZArTsfGFoeKCy0488NB9C9Wyuvj+YzmfmvI9K67BwLAGBI6wvo1viS4GqAQ+fN+GBjHPIK1HtoDT/5PFBQYMfTzy5A61aJeOD+m3Ftx2aiSyIiDera6BK6NhY/z2hcaCE+2BgnuoxK8eBiDxQWOmeo2LP3BB58ZC4efmwe9u0/IbgqIiLfxZ6WBy6fVmnz1kPYvPUQevVojfsn9EXjRrGCKiMi8k1+G1qPPz0fUZEh0Ol10Osk6PU6GIx6GA0GmEwGmM0GBAaaEBRkRnCQGcHBAQgNCUBISEDJ5ZxL+eWue/XaPVizbi8G3tIB48f2Qf24iEoqkZF7Ih07955HjsOEmOaN0aZFGMx182cTEWma34bW3n11uxlPURT89PM2LFuxA3fe3hkGg/7KheQcbF/wIz5Zdgp5kg56yHDIRsR16YUpk5KRYKzTEomINMevQqtdcmNs/euwV5/Tbnfg62/+LCe0ZJxa/gvmLjuH6JSBeOaea1BfPodNC5Zi/tpVmJtQH9PujPWvfxARURX86jPxlRfvxeYtB50DKBRAVhQosgK7Q4bD4YDd7kBBgQOFhXbYbIWw5BcgP78AFosNublWXMrNR26u1fmTZ4XVWr1zXIWFBqJ5s/rY9nda6Y0Fx/HbLydQkNQJo0a2LOpVxaDLqBQc2fsNVq/dgdRb+6KVqU5eCiIiTfKr0AoOMqNXjza1tr7de45h/KQPK7w/JjoM99x9E2679Xp8+dXvLqFlP5qGvVkSGnS/Bg1LNgPKOL83HSesgJJ3EvtPyGjVlAM8iYiK+VVo1Ta7o/wD8JKS6mHkiB7o3689jMbyX2JrRhayFCM6JEVADwD2HOz49hd8tvQECgJMkBzZyMx0AAwtIqISDC0P2Atdh7xffVUCRt3bAz26t4ZeX1nYyMjPtUGGCUFBEuxnD2PJh8uxYr8Dib0HYEzLI3j93VRY8+0AOBqDiKgYQ8sDxcdpdezQFKPu64FO1zWv5nROEiSdBEBB9p71eOP97ThYGI1ukwbg7m7R0G05AgXOWd2JiKgUQ8sD9etHYM6Hk9CmdUM3HykhKMQMvZKL7T/8hYCkNhg9JQU3JZkAKMjJzocNZoSE8t9DRFQWPxU94MmMF+YG0YjRH8aZJjfiyWk3onFg8T0OpB85B4c+ColJ3J9FRFQWPxUF0TdqitYxEuznsnCmQCm5Xb5wAGu35cHYrBmSo/nvISIqiz0tUQzx6D24Kf6cvR8L3gxE3q3NEes4h80//Im/86PQZ2gy4plZfk9RlJL9pKczLyIuNrxWToNzMs2I9DKzkEkSoDcoCAqW0SBGRiTH/5BKMbSE0SG6e39MyVuJ+Yt34Is3twMATPUaou+D/XBna84+SMD+Aycx77PVGD+mN+Z+ugpnz2Zj+F1d0btXmwoPp6iSrMfy70Lx8fHywk8B9AoSGxaiV2cr7r7ejnrlzEAmRIEO+9MMOHpBQj4U1Iuxo10jGeH8FPMr/HeLpAtEi4GDMbNvHk5nXILNGIzY+FAEsodFRRQFWP/7Pqz/fR9iY8Nx5kw2npu5CLPe+xl3DumMIbd1Qr2o0Jo/gVFGXKgCHQDZIeHSJQkWhw4n0sz4PM2EnzZZMX20BV3Da+1Pcpts0WPZ8iDM3WjESVvZoFVgCrOjT4oFD3a3ox7bjV9gaKmBKRj1GweLroJU7syZ7JLLWVm5mD3vN3wyfw369k7G8LtuRGys+8liaGLBvEm20g98u4TDB034cXUgvkvV40JaAP45V8GsKfloI2BKMTnbiLdnh2DRCR0UKJD0MiLDFZhsOpzNk1CQY8TPS8KwKyMXs+4u4CZ1P8DQ8jGyrJScnLJEmX0gVe4Nkaq7nFS95YoWqt5yUvWWcy2hGsv57vFudrsDvyzfjl+Wb0erlokAANmTM6UbFDRracOjVxeg4zfheHaDHpZjgXh7XQE+7OOAV7cUOvRY9EVRYEky2nTLw5P9CnB1iPPujAMBeGtRENadl3B8SzBeSrLjv91k79ZIXsfQ0rjtO9KwY2d6yfWIiGDcdmsXgRWpl6IoRb8BoOxl5/XSy0X3lrd86cUrH1Pmist6XR7jvEV2yLiUa4Ulz4Z8qw35+QXIz7chL78A+ZYCWPNtyLcWIOdSPjq0bwqrtaDKs2IXn25n3opAFMrAkC42hAcrlT6mQjoF3Qfn4Zb9ofjhgoS9m8zY3dOCdl78xMj6OxCfHXL2sJr2uIT/DrGj7IbQhKuteHEiMPXtIGy26LD1t0Bs6pSHG7k7WNV27DyKltckwmSq2ZuJoaVxaWlnXEJLp5Pw7XcbPVpnUmI0pj01FKGhgVUvrCHFPS7nL3G9r3PnczDt2fk4cza76oVrINeqw8q/zEhubEeH5vaaryiwEP3byli6Tg/HeSM2nQbaJdZenZWSdVi5wYQLCiCFFWB8X9fAKmaIs+L+Lmb89ZsBjmwTVhzIw43JXqqRamT+grU4dOg0xozqhYG3dHR7QBFDy8fIsoKcHItH69iz9xhWr92FwYM61VJVVNaWLQfrLLAMBj16tLHghZG5qHT6y2q6uqEdZuhhkfU4fBqAl0JLzjViQzoAKIi8xoYbK9nle1XbQiStNuCoLGHPYQMKk+2csVPFFAXIPJONl19bgs8+X4Mxo3phQP+O5Z8otxwMLY1r07ohunVtiQOpGVj5285aW2/xvIpU+wrtrr2f+PhIBAWaERRU9BNoRmCQGcEll00ICjRj7/7jWLZ8W7nrNBh0uHVQJxw/dg5tG+6olcACAFOEjCgdYJGBrGwdAE92mFWf/aQBh+3O+TlbNLYjoJJljQl2tDArOJoPZGbqkQs7Ir1SJdWEIpdusj51+iJefGUxPv18DcaOSkH/fu2rDC+GlsZd1SIeN/dtD4vFhskT+0FWFNgLr/xguWLPRjm7Ot6c9SO2bD0EAAgIMCAszAyXnTaVP7zcG8tfzrN1urNej+osZ52V7iG6fJ9YNfS/uSMefnBghfdbLDYcPpIJSQIs+QXlLnPjDVdj7Og+iIkJx/R/LajmM1ePZFZQvIuooMB7m1TzL+hwUQEgyYiPrOLV1MmICwOQL8GRq0OWA4is5HPPYnP+/nHpVgSYjZAkCZKEot9S6fWiia2LL0MCDqSeLFnPhQt5WLNuDyQUPVYnOR/jvAG6MuuFhKLrrvenpWV69kLVkUK7AxaLrczfhXJep9LL7lDKaR0ZGRfw75f+h0/nr8bY0Sno16ddheHF0PIRxd/SPZHYIApbtjovGw06BAbw7VEXTKbSblBwkBFRkRXvO8zIOIen/++zcu9r3qw+Hnt4IK7t2AwAkHUhF7t2p6N389qrVZGlkr6V3lDDQR01cCm/6HklIKiybhYA6BQEFg/HtwO2KhbPsThf/7dmLfWoxiNpmXjm2dr9kqAW3/+wBf9ee8qtx5QXajrnDS63WywV/4dOnMzCC//5Fp/MX41xo3ujb+/kK07zxE8lIi+THaUf/pWfd81V82b1cejwaURGBGPSxH4YNOBatx5fE3KuhJyicsNDvBdaZbYgoYJzrZZSUNq11VXjQ817f4ZfURTFZaStJ44fP4/nZi7C/C/W4r+vjUJcXETJfQwtIi9zlPkUrk7otG6ViHFjeqNNqyTMX7AOY0b2RHBwVd2P2pF5Su/cTKeT0TDGe5/2Qeai8Z2KhDxrFQsrEi4VfXmXghSEVbG1KsDk/Dt69WwDg14HWVagFB++oChF14sOYVAUyErpfYqCousKoBQdviCXuR/OwVDFl5Wi9RUfHqEUPbb4ssVSgBMnz9f4dfJVOp2EAf07YtR9PV0CC1BpaGXnWHDq1AXRZbho3DgWAWaOSSLPuYZW5Tudr7k6AXM+nFyy32DK5P51WpsLWYd1ewxwAJCC7GjvreHuAELDZARJQI4i4XSWBBlKxaekKNDjZDYAKAiLciCyiu8BEUU9xunT7kSwh5vUPbVr9zFMmPyh0BrKM/SOGzD7uQdKQrf0GMfSUC8b4igTxHJxoBcFtMt1AFMemYv0Y2fLfV69XodBA67FqHt7ICEhqtxlVBla/5r8DDYeCxFdhouuN16NN14ZJboM8gHu9LSqOwy4LpzfFYhvjjpH8MW1teEG73TuAACG+g4kScAeBTiUboStWwEq2vNnTTNgX6Gzzqsbc7h7bZIkCXp97Q7AiY4OvSK09HodBg+6DiPv7YH4+pWP/VRlaJ23OMt6sf9xwZU4/d+yJGRne3bsE1Exu6P0cIK63idVU2f2BeKfX5uRqQBScCFG9y6sMDTqgr5eITrEKNiTKSF7vwl/5BWgT3nHaskS1m0x4bwCwFyI7q0q6ZGRKpQdkGsw6HHbrddj5IjuV2wGrIgqQ0uCgs5JuUhpdkl0KQCAdvF5kH14/jryLnf3adUlpUCH9FN6ZAEotOlwOtOAv3absGKfHpdkCTDaMXh4HgZHe7kwgx39Ozqw6BcDCnJNmPOLEdffUYjwy16u87uD8NFOCQoU1G9vRZ/qfe6RSIoCk8mA2wd3woh7uiE2xr2JnlUZWkS+rGxoGQSHluNoEB54LaicexQExdowZlge7mkupvfSvJsFg7aG4ruzEo7+EYIHbfmYnGLDdXEKCrP12LIlEB+sNOGkDOijbHh4QGG5Uz2RugwccC1e+NdwREeH1ejxDC0iL1NTT8tJASTAZFIQGeFA00Q7rm9rw81tHKgn8hMiqBAPjbTg9Jwg/Jmtw6EtwXh8S3HAFm/5UGCqV4CHx+QhReA5v6j6Bt7S0aPHM7SIvKxsaOl0AkJL58DYx7Mw1vvP7LbAJCtenWrHd8sD8d0OI47mlYZVULgD119rxcgUG1qra9wW1SGGFpGXqa+npW6GcDuGDbuEYUMlrPw8AjO266BLzMfsx/LRjCfP8jtsMURextCqIZ2C1o0dMAFwZJjxbap0xfS9tvKnZyQfwp4WkZe5DMQwMLTcUb+9FV1XGrAqV4cl88OQ18OKlEYydHk67E8146c0B554JA/dubnQZzG0iLzMzp5WjenCC/DYMBvSvzDjcL4BK5aFYEXZBSQ9vt+Vj+5dvHMKFfI+hhaRl8kMLY/EJOfh46mFWLTajPVpepzKlSAFyGiYWIieXawY0pKB5csYWkRexn1anguuX4Ax/yjAGNGFkNexxRB5GUOLqObYYmpBXp4VZ8/liC6DNIKhRVRzbDG14HxWLu4Y9hrefPtHhhdVye7GqUmIyBVDq5YUFjqw6NsNDC+qEntaRDXHFlPLahpellMnsHNbOk5c4rnAfZ2j7KlJdDx7AJE7OHqwjhSH1+LvN+P22zpVuBnIdiYNaxb/ieW/n0K2HI6U/xuDEa35b/Fl7GkR1Zzh3tGzRNfgdNoOdBgHjHtPld2/gwdPoaLX6vjxcxU+rji8dEXfqC9eyEVMbARQcA4bvlqFxauO4TxCERumBy7WSemkMgwtopozHDp8WnQNpYJjgSOZuMrbJ5yrBqutEJ68VrLs3Ow3/YlPMGBwJwwe0hyZqVkI7dwd992RDPt38/De77VVLakZQ4uo5rgdyssG3NYJ/W65DpLBjIEzxmOwyQAd7NguujDyGgdHDxLVmOHj9+8XXYPTnDnAJ58A69bh9effEV3NFZo1jcPTTwwp977jJ85j5ovfVvjYsNBAXNUiHlu3HcGAwZ1hNDq/KxhN/M7gjzhhLlHNGZLbNhJdg1O4BFw6CbRpKLqScgUFmVHRaxUREVzu7WGhgbjn7ptw151dsPDrP7B125G6LJE0wiFz8yBRTfGrfh0oG1bBwQGiyyGVcdgZWkQ1xdCqRWGhgRjxj24YemcXBAeZRZdDKsWBGEQ1x9CqBWaTAZMn9mNYUbUwtIhqjqFVC+LiIjDqvp6iyyCNYGgR1RxDSxgrUlduxvZMGYCM80cLocCBw6vW4+vtEqSAOAwb2lJ0kVQHeOZioppjaIkiFyB941as2Od6ltX0DX8hHYAU3JKh5aNcelo6hhaROxhaoujC0PefU9FXdB3kddw8SFRzbDFEXsbQIqo5thgiL5JlGYpSevoZhhaRe9hiNOpk0czyksTzMWlJ8cTJxRhaRO5hi9GgA/uO49OPl6NBgyh0uq656HLIDWVHDgIMLSJ3scVozIF9x/HWK/9DTEwYPpg1ocJ5D0mdHAwtIo+wxWjI5YEVGxsuuiRyk1wmtHQ6iZt3idzEIe8acWDvcbz1alFgvTMBsTEMLC3iyEEiz7DVaAADy3cwtIg8w1ajcgws38LQIvIMW42KMbB8j51TOBF5hPu0VGr/3mN4+9XvEBsTjvffGc/A8hHsaRF5hq1GhRhYvsvhcJRcZmgRuY+tRmUYWL6NPS0iz7DVqMgVgXUyTXRJVMtcQsvA5kfkLrYalSgbWB+8OwGxWaeBfv2AnBzRpVEtYk+LyDNsNSqwf+8xvFUmsGKiw4B//xs4exZ4913R5VEtcg0tvcBKiLSJoSVYcWDVjy0TWAcOAF9+6VzgjTfY2/IhZYe8G9jTInIbW41AZQPr/XeKAgtw9rLkog+3rCz2tnyIzM2DRB5hqxFk354KAqtsL6sYe1s+g/u0iDzDViPAvj3H8PZr5QQWAMycWdrLKpaVBbzzjneLpDrB0CLyDFuNl+3fe7ziwNq/H1i4sPwHsrflExwupyZh8yNyF1uNl7396v+cgy4uDyzAdV/W5S5cYG/LB7CnReQZthovybNYAQCxsRH44J0JiL48sCrrZRVjb0vzOHqQyDNsNV7Su1cyutxwFeZ8OOnKwAIq72UVY29L89jTIvIMW42XtGmdhP++NvrKTYJA9XpZxdjb0jSGFpFneGoSNUhNBR58sPR6Rgbwv/+VXn/oIdfl9+0DOnf2Tm1UqxhaRJ5haKnB4MHOn2JlQys0FJg1S0xdVOtcTk3CCXOpyIyVibihYa7oMnD4vFl0CVViaJEm2e0OnD2Xg/j6kaJLcQt7WlRWQkIk2rZpiPNZl3DQGi26HMgGGxpb0tE6roXoUirE0CJN+nXVLjw3cxEmjOuDcaNTRJdTbQwtKqteVChmfzBJdBmldu0CkpOB8J6iK6kQWw1pUk6OBQAwe+6v+GXZdsHVVB+HvBN5hq2GNMlgcJ7Wo150GGa+9C3Wrd8ruKLqkR1KyWWemoTIfQwt0rSHn7gdDZKi8ey/FuKvbYdFl1Mll4EY7GkRuY2thjQtMMiMqc8MRVS9MDzx9OfYu++E6JIq5Tr3oCSwEiJtYmiR5oWFB+Px/7sLAUEmPPrEJ0hLyxRdUoU4EIPIMwbMmye6BqftRTvTP/lEbB0VOXMGXnutMjK88zw+pF50GB6fdhdefuErPDR1Hj5+fxIS4tU3HJ6hReQZA8aNE12Dq4kTgSGPiq7iSocOAeP+JboKqkR8g3qY+sxQvDrzazz02Fx8/N79qFcvVHRZLlxHD3IgBpG7+FVP7aLFH3CoJY2axOHhJ27HmTPZeHjqPFy6lC+6JBfsaRF5xoBhw0TX4LR7N7B3LzB0KGAXXUw56kXD66+V0Qg88YR3n9MHXN0qCZMfGYx331yCqU99hllvjkVgoEl0WQAYWkSeMuDrr0XX4DRjhjO0Fi4E7npSdDVXuvoq4IM3RVdB1dSuYzOMmzwAs99bimemL8DrL98Ho1H8BDAMLSLPsNWQz7qha0uMGN0bmzYfxHMzF7kEhiguocUJc4ncJv6rJ1EdSunXAZY8GxZ/8zuCg5dg2lO3Q5LEHR/FnhaRZxha5PMGDumMvLx8/PDTVoSHB+HBSf2F1cIZMYg8w9AinydJEoaN6AlLng2fL1iH0NBAjBzRQ0gtjjJzD3LCXCL3MbTIL0iShJHj+8FiseH9D5cjLDQQQwZ38nodrtM4MbSI3MVWQ35Dr9dh4pSBaNmmIV5+bQlW/rbT6zVwnxaRZ9hqyK8YjQZMmToETZvF47mZi7BhY6pXn5+hReQZthryOwEBJjzy9B2oHx+Fp5/9Ajt2HvXac3MgBpFnuE+L/FJISCCmThuKl59fiKlPfYYP3pmAq1ok1PnzeqOn9c4PQTh5noFYkW/WB4ougTzA0CK/FREZgsen3YWXnl+Ih6d+go/fvx8Nk+p2rkfXCXNrN1gkAAEBRtjtMn7cElar6/YlBoMMAw/s1iyGFvm1mLgITJ02FK+88BUeenQu5n40GdHRdfeBX5c9rcjIEKxZ+XytrpNIbfh1g/xeYlIMJj88GJlnsvHb6t11+lyuocVTkxC5i6FFBCCpUQwA1Pn8hBw9SOQZthoiL+KEuUSeYash8iL2tIg8w1ZDqnL2XA6stkLRZdQZl9DSiZttnkirOHqQVOWvbUfw5ls/YsAtHXH7bZ3QqGGMm2uQkXsiHTv3nkeOw4SY5o3RpkUYzHVSrfs4EIPIM6oMLQUSNh0PwbRliaJLAQDsOBWMNlFK1QuSxyLCg5BzKR9fLfoDXy36Ax3bN8GQ2zqhZ/fWMJmqeLvKOdi+4Ed8suwU8iQd9JDhkI2I69ILUyYlI8Honb+hMtw8SOQZVYZWt0EDkLdiOw5ao0SXAgBISFDQrWtL0WX4hYiIYJfr2/5Ow7a/0xAREYxBA67FkMHXI7FBvXIeKePU8l8wd9k5RKcMxDP3XIP68jlsWrAU89euwtyE+ph2Z6zwNzxDi8gzottwuSaO64OJ4/qILsPv2MrsS9qy9RBatUxE+3aNvXoKjctDq9jFi3n44st1+OLLdeh0XXMkJES6LlBwHL/9cgIFSZ0wamTLol5VDLqMSsGRvd9g9dodSL21L1qZ6vxPqBRDi8gzqgwt8i673YF33v8FPy/bXnLbpi2HsGnLIRgMOsTHR8Jscm5bUxQFilL8u8xlKIACyLLzsqIAKLpfLloWJcsCiqyUXi5Zl4L8/KoHYWzeeqjk8vKlW3HXPd0hHU3D3iwJDbpfg4YlmwFlnN+bjhNWQMk7if0nZLRqKjYoGFpEnmFoEf75/NdYvab8mSDsdhnHj5/3ckXVd02rJBiNBuRmZCFLMaJDUgT0AGDPwY5vf8FnS0+gIMAEyZGNzEwHwNAi0jS2Gj+3Y+fRCgNLrUJCAiB8LvsAABFtSURBVNCndzIAoFGTOAAy8nNtkGFCUJAE+9nD+PalL/Dej2cQ0WsAnh7bFMGSDGu+XWzhAOxlTk1S2xPmEvkD9rT83KbNB6u97Kz/joXZZIAkSdDpJAASJMl5KvvS36WXAUCnK7oNAIru00k6oJLHjR7/Hi5ezCu3hoG3dMSDk/tjzdo9+LXkzMMSJJ0EQEH2nvV44/3tOFgYjW6TBuDubtHQbTkCpagW0djTIvIMQ8vPGY3VewtIEtChXeNqL++Jq1rEY/OWQy63NW9WH09OHYx2yY3Lqw5BIWbolVxs/+EvBCS1wegpKbgpyQRAQU52PmwwIyRU/NudoUXkGbYaP9end3KVPRBJAvr2TvZKYAFAZJkRhEFBZkx9ZBA+nfNgBYHlZG4QjRg9YGx+I558rn9RYAGAA+lHzsGhj0Jikvi3O0OLyDNsNX4uKbFeyeEFUgXZVS8qFJMm3uy1miLCnaHV/+b2+ObLqRg29EYYDJXPHqFv1BStYyTYz2XhTEHpgeDyhQNYuy0PxmbNkBwt/u3uOmEuZ8Qgcpf47SUk3OiRvdCgQT18NHslTpx0HSnYqGE0Pnh3IqIiQ7xWT9u2DdGzR2t0aN+k+g8yxKP34Kb4c/Z+LHgzEHm3Nkes4xw2//An/s6PQp+hyYgXnFmKokCWSwOVcw8SuY+hRQCcm//6pLRF2tEzmPfpKvy6ahcAoHu3Vl4NLADok5Jcg0fpEN29P6bkrcT8xTvwxZvOY85M9Rqi74P9cGdr8bMPlg0sgJsHiWqCoUUlJElC0yZxSEwsb5okDdAFosXAwZjZNw+nMy7BZgxGbHwoAlWSDZefYJKhReQ+hhb5HlMw6jcufzookRhaRJ5jqyHykstDy5tzOhL5CrYaIi/hcHciz7HlEHkJp3Ai8hxbDpGXsKdF5Dm2HCIvcT2wmE2PqCbYcoi8xLWnxdkwiGqCoUXkJdw8SOQ5HqdFVMax4+cw8YGP6mTdR9IySy6r4TQpRFrE0CIqw2otwM5d6XX+PBw9SFQzbDlEAtzQ+SrRJRBpkqp6WscDInFsYyqggp3UQYEmtG/XuOQMvOQfGiRE4a3XR9fpcxhNBrSv5NxgRFQxVYXWk62G4ui0L0SXUeLFmfcgpWcb0WWQFwUHB7AXRKRiqgqti8YgJIXb8GxKhtA6jl4w4+U1CbDZCoXWQURErlQVWjpFRnJ8Adon5AutIzzAUfVCRETkdRyIQUREmsHQIiIizWBoERGRZjC0iIhIMxhaRESkGaoaPUhE5E8Wf78JO3cdE11GqYsXgBaDoF99AiO6ZKJJkzjRFV2BoUVEJMi7HyxDXp4N0UEqOia0yTU4t/8iolb8jQfuv1l0NVdgaBERCaLX6TCk1QU80+uU6FJc3PBeK9ElVIj7tIiISDMYWkREpBkMLSIi0gyGFhERaQZDi4iINIOhRaqxbfsRyLJcK+uynDqBndvSceKSUivrIyJ14JB3Uo1X3/gekiRh/Nje6NWjNXQ6979T2c6kYc3iP7H891PIlsOR8n9jMKI13+ZEvoKtmVQl7egZPDtjIZo0jsW4MSlI6dmmeuFVcA4bvlqFxauO4TxCERumBy7Wfb1E5F3cPEiqlHb0DKb/6yuMGDULv67aWfVmQ72MzNQshHbujkdfGYVhbcyQvFMqEXkRe1qkasXhVWXPSx+LgTPGY7DJAB3s2O79UonICwx9bnlBdA1OVjvyjMEAskVXUuLl15bgjbd+FF2G19lspfOgfbXoDyz+frNXnjc311rhfcXh1bhxLMaPSYGiXDnAwmjidzAiX2eo7IPC6yR1bdCx2QpdPsD9UWGhA4WFDtFllDhaFF7x9SNFl0JEAnCfFmlKUKAJo0f2xNA7bhBdChEJYPj+26dE1+D0xhsYtTZHdBUuHntoIHr2aC26DK/74st1+Oa7jQCAO4Z0xqh7e3jlee++7y3k5xeUe19QoAnD7+qKu4d3RXhYEL5bsskrNRGRuhji4iJE1+AUIEEHdR0IGhYeBNW8Pl4UHBJQejnY7LXXIC42HEfTz7rcdnlYEZF/455rUiWGFRGVh6FFqlLzsLIideVmbM+UAcg4f7QQChw4vGo9vt4uQQqIw7ChLeuqbCLyEoYWqcbdw7qiV882NetZyQVI37gVK/a5HoScvuEvpAOQglsytIh8AEOLVGPI4E41f7AuDH3/ORV9a68cIlIhDnknIiLNYGgRAXA4aueUKERUPXa7A+nHzla94GUYWuT3HA4ZX362CgCQ2CBKcDVE/sFud+Due9/CczMXuRVe3KdFfs3hkDH7vaX4a3MqJoztje7dWokuichvKIqCZSv+xvKVO9CvTzLGjk5Bo4YxlT6GoUV+qziwtmw8gAlje2PcmN6iSyLyS4qiYPnKHVjx607065OMMaN6oXGj2HKXZWiRX2JgEalPdcKLoUV+x+GQ8fG7S7F10wFMGNcH40aniC6J3HQgNQMvvboYVmv5c1VqRW6eis6ycZnvf9iMdev31tn6rdaKz6BRHF7OzYbtMHZ0aXgxtMivMLB8w9vv/oz9B06KLsOnZefkIzsnX3QZWPHrDqz4dQduv60THn/0VoYW+Q8Glu/w9/Pc+ZOgQBPuHtYVw4d1hcGgZ2iRfygbWBPH98HYUQwsXzFpQl90ur6F6DJq5KFH54ouoUIDbumIobfX3XnrrNYCPPDwnArvLxtWZad2Y2iRz3MG1k/YuimVgeWDWrZMRKuWiaLLqBG9Xr2HykbXC63T17Wi/ZFBQWbcfdeNV4RVMYYW+TQGFpE2VBVWxRha5LMcDhlz3l6CrVuP4P7xfTFmVC/RJRHRZaobVsUYWuST7HYHZr+3FDcumo0eD0/BnQwsIlWRJAljR/WqdlgVU+8GVaIaKg6stPXbMOzsdty591fRJRHRZcxmIyaO7+v2+fMYWuRTigNr66ZUvBp+EobCQuCLL4CDB0WXRkS1gKFFPqNsYD02tANar1vqvEOWgZkzxRZHRLWCoUU+wW53FB2HlYpJE/pi+JHfAZutdIEFC4DUVHEFElGtYGiR5hUH1l+bnYE1us/VwEcfuS4ky8C//y2mQCKqNQwt0rTimS7+2pyKyRP7YfTIXsArr7j2soqxt0WkeQwt0rSP3/2pJLBG3dcTyMi4spdVjL0tIs1jaJEm2e0OAEDa4dOlgQVU3Msqxt4WkaYxtEiToqJCAAD3jeheGliV9bKKsbdFpGmcEYM0qXevtmjerL7rWU2r6mUVW7AAmD4duOqquiuQiOoEe1qkSZIkuQbWqVPA7NmAJJX+XPkg54+iAP/5j/eKJaJaw9Ai3xAfD1gszs1/xT8pZWZ0X7LE9b7PPhNXKxHVGEOLiIg0g6FFRESawdAiIiLNYGgREZFmGLBnj+ganM6cAWASXYWrkyeBPSqryRvOni1z+RxU8x5xl1brJqIKGdCmjegaSnV6SHQFrp55Bjjrhx98jboDSV2dl+fNBWasEVsPEVERbh4k/2A2i66AiGqBAQ0biq7B6eJF0RVcqV49IFAlr483hYWXuRwG1bxHaqpXL6B3b9FVEFEtMCA9XXQNTjNmAMtVFlxvvQXc3EF0Fd43ewUwv2iT4OTJwKT+YushIirCzYNERKQZDC0iItIMhhYREWkGQ4uIiDSDoUVERJrB0CIiIs1gaBERkWYwtIiISDMYWkREpBkMLSIi0gyGFhERaQZDi4iINMMgugBSt9xcK3JzraLLIHKRl8f3pL9iaFGlFn+/GYu/3yy6DCIiANw8SOXQ6/m2IO0wGPSiSyAvYk+LrjCwf0esWLkDJ05miS6FqEKSBNzQqQVat0oSXQp5EUOLrpCQEIVvFj4uugwioitwOxAREWkGQ4uIiDRDd+/od/HIZ8dQKLoSIiKiKugOpVmQ2DoeRtGVEBERVcGgT2qLW9qpI7JkSYel+yNwIltsPccumoU+PxERlc/QoncHXKOOzMIdp7Zhyy3/gKITu6stsZ6CJgY9OrZvIrQOIvJtdoeMJXsjkZnLgdzVZejXL1Y1494nHluPie+uAgxqqYiIqO4MGtAR27an4Szqiy7FyWoFDhxAi0Yx6NyphehqymXoE88BhEREIkx95FbRJbjatQtIfhp4cgHQoanoasqli2VmERGRRjCyiIhIM7jziPyaI/Nv/Pe1bTjm8GAlkgHt7r0H4zpe1pwcF7F81hIsPSYDAAzNOuHZB9qgnjtfFXP24b2ZG3DADgA6JPW/DU/eHFnOgjJOr/wJr/x8DuX+KZIEnU4Hg8mI4LAQxMTVQ/O2zdG5XRwiVTIQi6g6GFrk3yxZ2L31EPZ7ElowIugWuZzbbTi55xA2HygKrcKrYHNzzXLBRezbeghbi0Irp23Fa8jPOI7NW0+WH1oVMEQ2QO+hvTFh+DVI5JEepAHcPEjkx+wXTmL57M8x9uFl2HC+vOAlUhf2tIhK6NDyvjGY3jcEkluPkxAco7KmpG+AUW/ciZujyvwligxbXh7OnjyNXZv3YNnadJwtAAAFOXvXY8YLofj4ja5oorI/hagsvj2JSkgwh0ehSZNI7W+CkIyISIhF03IOaWnZtjm6978Jow9txMxnfsKaTBmAgkvbV+PjVe3wn34h2v/7yWfxvUnkp4Kb34BnH+uIuOJPAcWCzWsPIVdoVUSVY2gR+bHQ61qjc5lNiNbjZ3DSLrAgoiowtIj8mT4ccfVKQ0uxWmHheAxSMYYWkV9zoLDMyfQksxkB7o1CIfIqhhaRPys4j+NnlZKrpoRoJPJgY1Ixjh4kKqEgc+ufmJPr5lG2kh5NenRH32b6ytd+5hC++cSKQHfWbcvAaaXqxWpGRtYfu7Ett/gJjGh9fVOE1tXTEdUChhZRCRmnNv6BeRvdfZwRPZO6VhlajlOpWPhpao2rq22OzD14Z85eXCjKLF1sWwzr5wPD/cmnMbSI/I3dgkO/b8BHH6zF+oyiURfGaNz62M24KUxsaURVYWgRldChYZ9+uKdDgHsPk/Ro0KrqpqRPaofJdzdBiDvrzk/H1x9sR5q7cyPKZ7Hsra+w01R6k2IvwKWLOcg4ehancsusMDAOg54YgcdvCmUvi1SPoUVUQkLUNW0xeHDdbCKTohogZVAnJLixcvmcA79+uB1p7j6ZnIcDf+7GgcqW0ZmRdH0nTHggBf2acrZc0gaGFpGfMjfvghkv9EPbINGVEFUfQ4vIF+kTMPyFgegVUXbC3Hz89en/MGerBQoAW+o6zHgtDu9Pb4f4yseQEKkGQ4vIF0km1G/RCO0vmzA3+Z934uyUL7HkuAOAjFO/LcH0pEjMGtsQwWIqJXIL97sS+RFdVEs89nxfdAwt6oEpNuyZvxAvrbjg1skjiURhaBH5GXOLm/D8Ux3QoHiToCMbv72xEHN2WoXWRVQdDC0iv6NDTM/BeGF0I4QUd7gsJzD/+e/wcwZnyyV1Y2gR+SUTWt83HE/1jkBJh+vMbrw+YyW2XxJaGFGlGFpE/kofgX5PDseolqVHIFsOrMeMl7biOM+pRSrF0CLyZ0GNMO65wegVXfxRIOPs+h8x/eMjyBFaGFH5OOSdqIQD+76Yg2GL3TyhlGRC5ymT8WRXbZ7TQ5/QEf834wwynlqHA1YAKMSBr7/GzMTxeHFwDLT5V5GvYmgRlWG7eAEnLrr7KCOaW+rs/CFeEdqhL1546AweeGM/zssA5EtYP2sh3k8Yj4euC+ImGVINvheJCIAejQYNxYw74lAyC6HtNL6e+Q2WHOUOLlIPSVEUdXxFnDEDmDkTKCwEDOwAEhF53a5dQHIysGABcM89oqspF3taRESkGQwtIiLSDIYWERFpBkOLiIg0Q30jHv74gwMxiIhE2LVLdAVVUk86BAY6f/fsKbYOIiJ/FxEhuoIKqWfIe2EhsGoVYOcxIUREwhiNQJ8+gE6de4/UE1pERERVUGeUEhERlYOhRUREmsHQIiIizWBoERGRZvw/8vf8VJxxCZwAAAAASUVORK5CYII=;" parent="1" vertex="1">
                    <mxGeometry x="470" y="300" width="99" height="84.01" as="geometry"/>
                </mxCell>
                <mxCell id="21" value="Pipeline FIFO" style="text;html=1;strokeColor=none;fillColor=none;align=center;verticalAlign=middle;whiteSpace=wrap;rounded=0;" parent="1" vertex="1">
                    <mxGeometry x="250" y="270" width="90" height="30" as="geometry"/>
                </mxCell>
                <mxCell id="22" value="&lt;font style=&quot;font-size: 6px;&quot;&gt;Combinational&lt;br&gt;Logic&lt;/font&gt;" style="ellipse;shape=cloud;whiteSpace=wrap;html=1;fillColor=none;fontColor=#000000;strokeColor=#000000;" parent="1" vertex="1">
                    <mxGeometry x="390" y="322" width="60" height="40" as="geometry"/>
                </mxCell>
                <mxCell id="23" value="" style="endArrow=none;html=1;strokeColor=#000000;strokeWidth=1;fontSize=6;fontColor=#000000;entryX=0.07;entryY=0.4;entryDx=0;entryDy=0;entryPerimeter=0;exitX=0.983;exitY=0.326;exitDx=0;exitDy=0;exitPerimeter=0;" parent="1" source="19" target="22" edge="1">
                    <mxGeometry width="50" height="50" relative="1" as="geometry">
                        <mxPoint x="370" y="330" as="sourcePoint"/>
                        <mxPoint x="440" y="330" as="targetPoint"/>
                    </mxGeometry>
                </mxCell>
                <mxCell id="24" value="" style="endArrow=none;html=1;strokeColor=#000000;strokeWidth=1;fontSize=6;fontColor=#000000;entryX=0.226;entryY=0.814;entryDx=0;entryDy=0;entryPerimeter=0;exitX=0.875;exitY=0.5;exitDx=0;exitDy=0;exitPerimeter=0;" parent="1" source="22" edge="1">
                    <mxGeometry width="50" height="50" relative="1" as="geometry">
                        <mxPoint x="436.44" y="335.44" as="sourcePoint"/>
                        <mxPoint x="470.0000000000001" y="330" as="targetPoint"/>
                    </mxGeometry>
                </mxCell>
                <mxCell id="25" value="" style="shape=image;verticalLabelPosition=bottom;labelBackgroundColor=default;verticalAlign=top;aspect=fixed;imageAspect=0;image=data:image/png,iVBORw0KGgoAAAANSUhEUgAAAa0AAAFsCAYAAAB/4uYmAAAgAElEQVR4nO3dd3gU1f4G8He2pjdSSEjoqLRQVBCRFooIiKgIXlE6CIoNKz+5XJV77XoVuxQVRRS9ggWlKFWlCtIhlBBKIJRAQrLZTXZnfn9s2kLaZpM9M7vv53nyZMvs7DebPfvumTlzRlIURQEREZEG6EQXQEREVF0MLSIi0gyGFhERaQZDi4iINIOhRUREmsHQIiIizWBoERGRZjC0iIhIMwyiCyiRng7MmgXIsuhKiIj8V0gIMHUqEBkpupJyqSe0PvkEePNNwGgEDOopi4jIb+TnO3+3agX84x9ia6mAetKhuIdlsTC0iIhE2LULSE4GVDy7H/dpERGRZjC0iIhIMxhaRESkGQwtIiLSDIYWERFpBkOLiIg0g6FFRESawdAiIiLNYGgREZFmMLSIiEgzGFpERKQZDC0iItIMhhYREWmGX02nvmnzQXz6+RrY7Q7RpRCRhgUHm/Hk1NvQICFKdCl+x69C65/Pf4WcnHzRZRCRD3hr1k947eWRosvwO361eTA/v0B0CUTkIyz8PBHCr3paZf1r+l2IjAgWXQYRaci63/fhuyWbRJfh1/w2tG7o1AKRkSGiyyAiDSkosDO0BPOrzYNERKRtDC0iItIMhhYREWkGQ4uIiDSDoUVERJrB0CIiIs1gaBERkWYwtIiISDMYWkREpBkMLSIi0gyGFhERaQZDi4iINIOhRUREmsHQIiIizWBoERGRZjC0iIhIMxhaRESkGQwtIiLSDIYWERFpBkOLiIg0g6FFRESawdAiIiLNYGgREZFmMLSIiEgzGFpERKQZDC0iItIMhhYREWkGQ4uIiDSDoUVERJrB0CIiIs1gaBERkWYwtIiISDMYWkREpBkMLSIi0gyGFhERaQZDi4iINMMgugAiqh1WWyF+WbZNdBmaMWjAtTAa+RGoNfyPEfkIi8WGV17/XnQZmtGvb3uGlgbxP+YlqQczsPK3nRg7KgWBgSbR5ZAPG94jH3f3sIouQ7U+WxmIJRsCRJdBNcTQ8pKlP2/D19/+id27j+HtN8fCZOJLT3UjPlJGfJQsugzVqs/XRtM4EMNLQkMDAQDbdxzFczMXweFgwyEichdDy8tuvaMLVq3ZjVdeXwJFUUSXQ0SkKdxG5WUDB3eGzVqIH37aitDQQEyZ3B+SJIkui4hIExha3iYBw0b0gMViw4KF6xEWFohR9/YUXRURkSYwtASQJAmjxvdFvsWKDz5agbDQQNx+W2fRZRERqR73aQmi0+kw4cGBaNWmEV55/Xus+HWH6JKIiFSPoSWQ0WjAg1NvQ9Pm8Xhu5jf4Y8MB0SUREakaQ0uwgAATHnnqDsQnRGHa9AX4e0ea6JKIiFSLoaUCISGBmDptKMIjgjH1qfk4kJohuiQiIlViaKlERGQIHp92F4wmAx6eOg/Hjp0TXRIRkeowtFQkJi4CU6cNRaHdgSmPzUVm5kXRJRERqQpDS2USk2Lw2NN3IjvbgoemzsOFC7miSyIiUg2Glgo1bZ6AKVOH4GRGFh594lPk5XHGbiIigKGlWq3aNsL9UwYh9WAGHn96Pqy2QtElEREJx9BSsWs7XYXRE27G3zuOYvqMhbDbHaJLIiISiqGlcjf1bIvh9/bE73/ux8wXv4Us85QmROS/OPegBvQbcB3ycq34aclGhIYG4vFHb+XM8ETklxhaGjHkrq7Iy7Pi2+82Iiw0EBPH9xVdEhGR1zG0NEKSJNwzqjcseVbM+2w1QkMD8Y/hN4kui4jIqxhaGqLTSRg76Rbk5xfg7Xd/RmhoIAYNuFZ0WUREXsPQ0hiDQY/Jj9yKN1/6Fv95+Ts0b1Yf11zdQHRZRFRDBw+dgsViE12G05GzCAqORQvRdVSCoaVBJpMRw0b0xH9mLED6sbMMLSKNOnbsHO4b847oMlx1GIfXj+ZArTsfGFoeKCy0488NB9C9Wyuvj+YzmfmvI9K67BwLAGBI6wvo1viS4GqAQ+fN+GBjHPIK1HtoDT/5PFBQYMfTzy5A61aJeOD+m3Ftx2aiSyIiDera6BK6NhY/z2hcaCE+2BgnuoxK8eBiDxQWOmeo2LP3BB58ZC4efmwe9u0/IbgqIiLfxZ6WBy6fVmnz1kPYvPUQevVojfsn9EXjRrGCKiMi8k1+G1qPPz0fUZEh0Ol10Osk6PU6GIx6GA0GmEwGmM0GBAaaEBRkRnCQGcHBAQgNCUBISEDJ5ZxL+eWue/XaPVizbi8G3tIB48f2Qf24iEoqkZF7Ih07955HjsOEmOaN0aZFGMx182cTEWma34bW3n11uxlPURT89PM2LFuxA3fe3hkGg/7KheQcbF/wIz5Zdgp5kg56yHDIRsR16YUpk5KRYKzTEomINMevQqtdcmNs/euwV5/Tbnfg62/+LCe0ZJxa/gvmLjuH6JSBeOaea1BfPodNC5Zi/tpVmJtQH9PujPWvfxARURX86jPxlRfvxeYtB50DKBRAVhQosgK7Q4bD4YDd7kBBgQOFhXbYbIWw5BcgP78AFosNublWXMrNR26u1fmTZ4XVWr1zXIWFBqJ5s/rY9nda6Y0Fx/HbLydQkNQJo0a2LOpVxaDLqBQc2fsNVq/dgdRb+6KVqU5eCiIiTfKr0AoOMqNXjza1tr7de45h/KQPK7w/JjoM99x9E2679Xp8+dXvLqFlP5qGvVkSGnS/Bg1LNgPKOL83HSesgJJ3EvtPyGjVlAM8iYiK+VVo1Ta7o/wD8JKS6mHkiB7o3689jMbyX2JrRhayFCM6JEVADwD2HOz49hd8tvQECgJMkBzZyMx0AAwtIqISDC0P2Atdh7xffVUCRt3bAz26t4ZeX1nYyMjPtUGGCUFBEuxnD2PJh8uxYr8Dib0HYEzLI3j93VRY8+0AOBqDiKgYQ8sDxcdpdezQFKPu64FO1zWv5nROEiSdBEBB9p71eOP97ThYGI1ukwbg7m7R0G05AgXOWd2JiKgUQ8sD9etHYM6Hk9CmdUM3HykhKMQMvZKL7T/8hYCkNhg9JQU3JZkAKMjJzocNZoSE8t9DRFQWPxU94MmMF+YG0YjRH8aZJjfiyWk3onFg8T0OpB85B4c+ColJ3J9FRFQWPxUF0TdqitYxEuznsnCmQCm5Xb5wAGu35cHYrBmSo/nvISIqiz0tUQzx6D24Kf6cvR8L3gxE3q3NEes4h80//Im/86PQZ2gy4plZfk9RlJL9pKczLyIuNrxWToNzMs2I9DKzkEkSoDcoCAqW0SBGRiTH/5BKMbSE0SG6e39MyVuJ+Yt34Is3twMATPUaou+D/XBna84+SMD+Aycx77PVGD+mN+Z+ugpnz2Zj+F1d0btXmwoPp6iSrMfy70Lx8fHywk8B9AoSGxaiV2cr7r7ejnrlzEAmRIEO+9MMOHpBQj4U1Iuxo10jGeH8FPMr/HeLpAtEi4GDMbNvHk5nXILNGIzY+FAEsodFRRQFWP/7Pqz/fR9iY8Nx5kw2npu5CLPe+xl3DumMIbd1Qr2o0Jo/gVFGXKgCHQDZIeHSJQkWhw4n0sz4PM2EnzZZMX20BV3Da+1Pcpts0WPZ8iDM3WjESVvZoFVgCrOjT4oFD3a3ox7bjV9gaKmBKRj1GweLroJU7syZ7JLLWVm5mD3vN3wyfw369k7G8LtuRGys+8liaGLBvEm20g98u4TDB034cXUgvkvV40JaAP45V8GsKfloI2BKMTnbiLdnh2DRCR0UKJD0MiLDFZhsOpzNk1CQY8TPS8KwKyMXs+4u4CZ1P8DQ8jGyrJScnLJEmX0gVe4Nkaq7nFS95YoWqt5yUvWWcy2hGsv57vFudrsDvyzfjl+Wb0erlokAANmTM6UbFDRracOjVxeg4zfheHaDHpZjgXh7XQE+7OOAV7cUOvRY9EVRYEky2nTLw5P9CnB1iPPujAMBeGtRENadl3B8SzBeSrLjv91k79ZIXsfQ0rjtO9KwY2d6yfWIiGDcdmsXgRWpl6IoRb8BoOxl5/XSy0X3lrd86cUrH1Pmist6XR7jvEV2yLiUa4Ulz4Z8qw35+QXIz7chL78A+ZYCWPNtyLcWIOdSPjq0bwqrtaDKs2IXn25n3opAFMrAkC42hAcrlT6mQjoF3Qfn4Zb9ofjhgoS9m8zY3dOCdl78xMj6OxCfHXL2sJr2uIT/DrGj7IbQhKuteHEiMPXtIGy26LD1t0Bs6pSHG7k7WNV27DyKltckwmSq2ZuJoaVxaWlnXEJLp5Pw7XcbPVpnUmI0pj01FKGhgVUvrCHFPS7nL3G9r3PnczDt2fk4cza76oVrINeqw8q/zEhubEeH5vaaryiwEP3byli6Tg/HeSM2nQbaJdZenZWSdVi5wYQLCiCFFWB8X9fAKmaIs+L+Lmb89ZsBjmwTVhzIw43JXqqRamT+grU4dOg0xozqhYG3dHR7QBFDy8fIsoKcHItH69iz9xhWr92FwYM61VJVVNaWLQfrLLAMBj16tLHghZG5qHT6y2q6uqEdZuhhkfU4fBqAl0JLzjViQzoAKIi8xoYbK9nle1XbQiStNuCoLGHPYQMKk+2csVPFFAXIPJONl19bgs8+X4Mxo3phQP+O5Z8otxwMLY1r07ohunVtiQOpGVj5285aW2/xvIpU+wrtrr2f+PhIBAWaERRU9BNoRmCQGcEll00ICjRj7/7jWLZ8W7nrNBh0uHVQJxw/dg5tG+6olcACAFOEjCgdYJGBrGwdAE92mFWf/aQBh+3O+TlbNLYjoJJljQl2tDArOJoPZGbqkQs7Ir1SJdWEIpdusj51+iJefGUxPv18DcaOSkH/fu2rDC+GlsZd1SIeN/dtD4vFhskT+0FWFNgLr/xguWLPRjm7Ot6c9SO2bD0EAAgIMCAszAyXnTaVP7zcG8tfzrN1urNej+osZ52V7iG6fJ9YNfS/uSMefnBghfdbLDYcPpIJSQIs+QXlLnPjDVdj7Og+iIkJx/R/LajmM1ePZFZQvIuooMB7m1TzL+hwUQEgyYiPrOLV1MmICwOQL8GRq0OWA4is5HPPYnP+/nHpVgSYjZAkCZKEot9S6fWiia2LL0MCDqSeLFnPhQt5WLNuDyQUPVYnOR/jvAG6MuuFhKLrrvenpWV69kLVkUK7AxaLrczfhXJep9LL7lDKaR0ZGRfw75f+h0/nr8bY0Sno16ddheHF0PIRxd/SPZHYIApbtjovGw06BAbw7VEXTKbSblBwkBFRkRXvO8zIOIen/++zcu9r3qw+Hnt4IK7t2AwAkHUhF7t2p6N389qrVZGlkr6V3lDDQR01cCm/6HklIKiybhYA6BQEFg/HtwO2KhbPsThf/7dmLfWoxiNpmXjm2dr9kqAW3/+wBf9ee8qtx5QXajrnDS63WywV/4dOnMzCC//5Fp/MX41xo3ujb+/kK07zxE8lIi+THaUf/pWfd81V82b1cejwaURGBGPSxH4YNOBatx5fE3KuhJyicsNDvBdaZbYgoYJzrZZSUNq11VXjQ817f4ZfURTFZaStJ44fP4/nZi7C/C/W4r+vjUJcXETJfQwtIi9zlPkUrk7otG6ViHFjeqNNqyTMX7AOY0b2RHBwVd2P2pF5Su/cTKeT0TDGe5/2Qeai8Z2KhDxrFQsrEi4VfXmXghSEVbG1KsDk/Dt69WwDg14HWVagFB++oChF14sOYVAUyErpfYqCousKoBQdviCXuR/OwVDFl5Wi9RUfHqEUPbb4ssVSgBMnz9f4dfJVOp2EAf07YtR9PV0CC1BpaGXnWHDq1AXRZbho3DgWAWaOSSLPuYZW5Tudr7k6AXM+nFyy32DK5P51WpsLWYd1ewxwAJCC7GjvreHuAELDZARJQI4i4XSWBBlKxaekKNDjZDYAKAiLciCyiu8BEUU9xunT7kSwh5vUPbVr9zFMmPyh0BrKM/SOGzD7uQdKQrf0GMfSUC8b4igTxHJxoBcFtMt1AFMemYv0Y2fLfV69XodBA67FqHt7ICEhqtxlVBla/5r8DDYeCxFdhouuN16NN14ZJboM8gHu9LSqOwy4LpzfFYhvjjpH8MW1teEG73TuAACG+g4kScAeBTiUboStWwEq2vNnTTNgX6Gzzqsbc7h7bZIkCXp97Q7AiY4OvSK09HodBg+6DiPv7YH4+pWP/VRlaJ23OMt6sf9xwZU4/d+yJGRne3bsE1Exu6P0cIK63idVU2f2BeKfX5uRqQBScCFG9y6sMDTqgr5eITrEKNiTKSF7vwl/5BWgT3nHaskS1m0x4bwCwFyI7q0q6ZGRKpQdkGsw6HHbrddj5IjuV2wGrIgqQ0uCgs5JuUhpdkl0KQCAdvF5kH14/jryLnf3adUlpUCH9FN6ZAEotOlwOtOAv3absGKfHpdkCTDaMXh4HgZHe7kwgx39Ozqw6BcDCnJNmPOLEdffUYjwy16u87uD8NFOCQoU1G9vRZ/qfe6RSIoCk8mA2wd3woh7uiE2xr2JnlUZWkS+rGxoGQSHluNoEB54LaicexQExdowZlge7mkupvfSvJsFg7aG4ruzEo7+EYIHbfmYnGLDdXEKCrP12LIlEB+sNOGkDOijbHh4QGG5Uz2RugwccC1e+NdwREeH1ejxDC0iL1NTT8tJASTAZFIQGeFA00Q7rm9rw81tHKgn8hMiqBAPjbTg9Jwg/Jmtw6EtwXh8S3HAFm/5UGCqV4CHx+QhReA5v6j6Bt7S0aPHM7SIvKxsaOl0AkJL58DYx7Mw1vvP7LbAJCtenWrHd8sD8d0OI47mlYZVULgD119rxcgUG1qra9wW1SGGFpGXqa+npW6GcDuGDbuEYUMlrPw8AjO266BLzMfsx/LRjCfP8jtsMURextCqIZ2C1o0dMAFwZJjxbap0xfS9tvKnZyQfwp4WkZe5DMQwMLTcUb+9FV1XGrAqV4cl88OQ18OKlEYydHk67E8146c0B554JA/dubnQZzG0iLzMzp5WjenCC/DYMBvSvzDjcL4BK5aFYEXZBSQ9vt+Vj+5dvHMKFfI+hhaRl8kMLY/EJOfh46mFWLTajPVpepzKlSAFyGiYWIieXawY0pKB5csYWkRexn1anguuX4Ax/yjAGNGFkNexxRB5GUOLqObYYmpBXp4VZ8/liC6DNIKhRVRzbDG14HxWLu4Y9hrefPtHhhdVye7GqUmIyBVDq5YUFjqw6NsNDC+qEntaRDXHFlPLahpellMnsHNbOk5c4rnAfZ2j7KlJdDx7AJE7OHqwjhSH1+LvN+P22zpVuBnIdiYNaxb/ieW/n0K2HI6U/xuDEa35b/Fl7GkR1Zzh3tGzRNfgdNoOdBgHjHtPld2/gwdPoaLX6vjxcxU+rji8dEXfqC9eyEVMbARQcA4bvlqFxauO4TxCERumBy7WSemkMgwtopozHDp8WnQNpYJjgSOZuMrbJ5yrBqutEJ68VrLs3Ow3/YlPMGBwJwwe0hyZqVkI7dwd992RDPt38/De77VVLakZQ4uo5rgdyssG3NYJ/W65DpLBjIEzxmOwyQAd7NguujDyGgdHDxLVmOHj9+8XXYPTnDnAJ58A69bh9effEV3NFZo1jcPTTwwp977jJ85j5ovfVvjYsNBAXNUiHlu3HcGAwZ1hNDq/KxhN/M7gjzhhLlHNGZLbNhJdg1O4BFw6CbRpKLqScgUFmVHRaxUREVzu7WGhgbjn7ptw151dsPDrP7B125G6LJE0wiFz8yBRTfGrfh0oG1bBwQGiyyGVcdgZWkQ1xdCqRWGhgRjxj24YemcXBAeZRZdDKsWBGEQ1x9CqBWaTAZMn9mNYUbUwtIhqjqFVC+LiIjDqvp6iyyCNYGgR1RxDSxgrUlduxvZMGYCM80cLocCBw6vW4+vtEqSAOAwb2lJ0kVQHeOZioppjaIkiFyB941as2Od6ltX0DX8hHYAU3JKh5aNcelo6hhaROxhaoujC0PefU9FXdB3kddw8SFRzbDFEXsbQIqo5thgiL5JlGYpSevoZhhaRe9hiNOpk0czyksTzMWlJ8cTJxRhaRO5hi9GgA/uO49OPl6NBgyh0uq656HLIDWVHDgIMLSJ3scVozIF9x/HWK/9DTEwYPpg1ocJ5D0mdHAwtIo+wxWjI5YEVGxsuuiRyk1wmtHQ6iZt3idzEIe8acWDvcbz1alFgvTMBsTEMLC3iyEEiz7DVaAADy3cwtIg8w1ajcgws38LQIvIMW42KMbB8j51TOBF5hPu0VGr/3mN4+9XvEBsTjvffGc/A8hHsaRF5hq1GhRhYvsvhcJRcZmgRuY+tRmUYWL6NPS0iz7DVqMgVgXUyTXRJVMtcQsvA5kfkLrYalSgbWB+8OwGxWaeBfv2AnBzRpVEtYk+LyDNsNSqwf+8xvFUmsGKiw4B//xs4exZ4913R5VEtcg0tvcBKiLSJoSVYcWDVjy0TWAcOAF9+6VzgjTfY2/IhZYe8G9jTInIbW41AZQPr/XeKAgtw9rLkog+3rCz2tnyIzM2DRB5hqxFk354KAqtsL6sYe1s+g/u0iDzDViPAvj3H8PZr5QQWAMycWdrLKpaVBbzzjneLpDrB0CLyDFuNl+3fe7ziwNq/H1i4sPwHsrflExwupyZh8yNyF1uNl7396v+cgy4uDyzAdV/W5S5cYG/LB7CnReQZthovybNYAQCxsRH44J0JiL48sCrrZRVjb0vzOHqQyDNsNV7Su1cyutxwFeZ8OOnKwAIq72UVY29L89jTIvIMW42XtGmdhP++NvrKTYJA9XpZxdjb0jSGFpFneGoSNUhNBR58sPR6Rgbwv/+VXn/oIdfl9+0DOnf2Tm1UqxhaRJ5haKnB4MHOn2JlQys0FJg1S0xdVOtcTk3CCXOpyIyVibihYa7oMnD4vFl0CVViaJEm2e0OnD2Xg/j6kaJLcQt7WlRWQkIk2rZpiPNZl3DQGi26HMgGGxpb0tE6roXoUirE0CJN+nXVLjw3cxEmjOuDcaNTRJdTbQwtKqteVChmfzBJdBmldu0CkpOB8J6iK6kQWw1pUk6OBQAwe+6v+GXZdsHVVB+HvBN5hq2GNMlgcJ7Wo150GGa+9C3Wrd8ruKLqkR1KyWWemoTIfQwt0rSHn7gdDZKi8ey/FuKvbYdFl1Mll4EY7GkRuY2thjQtMMiMqc8MRVS9MDzx9OfYu++E6JIq5Tr3oCSwEiJtYmiR5oWFB+Px/7sLAUEmPPrEJ0hLyxRdUoU4EIPIMwbMmye6BqftRTvTP/lEbB0VOXMGXnutMjK88zw+pF50GB6fdhdefuErPDR1Hj5+fxIS4tU3HJ6hReQZA8aNE12Dq4kTgSGPiq7iSocOAeP+JboKqkR8g3qY+sxQvDrzazz02Fx8/N79qFcvVHRZLlxHD3IgBpG7+FVP7aLFH3CoJY2axOHhJ27HmTPZeHjqPFy6lC+6JBfsaRF5xoBhw0TX4LR7N7B3LzB0KGAXXUw56kXD66+V0Qg88YR3n9MHXN0qCZMfGYx331yCqU99hllvjkVgoEl0WQAYWkSeMuDrr0XX4DRjhjO0Fi4E7npSdDVXuvoq4IM3RVdB1dSuYzOMmzwAs99bimemL8DrL98Ho1H8BDAMLSLPsNWQz7qha0uMGN0bmzYfxHMzF7kEhiguocUJc4ncJv6rJ1EdSunXAZY8GxZ/8zuCg5dg2lO3Q5LEHR/FnhaRZxha5PMGDumMvLx8/PDTVoSHB+HBSf2F1cIZMYg8w9AinydJEoaN6AlLng2fL1iH0NBAjBzRQ0gtjjJzD3LCXCL3MbTIL0iShJHj+8FiseH9D5cjLDQQQwZ38nodrtM4MbSI3MVWQ35Dr9dh4pSBaNmmIV5+bQlW/rbT6zVwnxaRZ9hqyK8YjQZMmToETZvF47mZi7BhY6pXn5+hReQZthryOwEBJjzy9B2oHx+Fp5/9Ajt2HvXac3MgBpFnuE+L/FJISCCmThuKl59fiKlPfYYP3pmAq1ok1PnzeqOn9c4PQTh5noFYkW/WB4ougTzA0CK/FREZgsen3YWXnl+Ih6d+go/fvx8Nk+p2rkfXCXNrN1gkAAEBRtjtMn7cElar6/YlBoMMAw/s1iyGFvm1mLgITJ02FK+88BUeenQu5n40GdHRdfeBX5c9rcjIEKxZ+XytrpNIbfh1g/xeYlIMJj88GJlnsvHb6t11+lyuocVTkxC5i6FFBCCpUQwA1Pn8hBw9SOQZthoiL+KEuUSeYash8iL2tIg8w1ZDqnL2XA6stkLRZdQZl9DSiZttnkirOHqQVOWvbUfw5ls/YsAtHXH7bZ3QqGGMm2uQkXsiHTv3nkeOw4SY5o3RpkUYzHVSrfs4EIPIM6oMLQUSNh0PwbRliaJLAQDsOBWMNlFK1QuSxyLCg5BzKR9fLfoDXy36Ax3bN8GQ2zqhZ/fWMJmqeLvKOdi+4Ed8suwU8iQd9JDhkI2I69ILUyYlI8Honb+hMtw8SOQZVYZWt0EDkLdiOw5ao0SXAgBISFDQrWtL0WX4hYiIYJfr2/5Ow7a/0xAREYxBA67FkMHXI7FBvXIeKePU8l8wd9k5RKcMxDP3XIP68jlsWrAU89euwtyE+ph2Z6zwNzxDi8gzottwuSaO64OJ4/qILsPv2MrsS9qy9RBatUxE+3aNvXoKjctDq9jFi3n44st1+OLLdeh0XXMkJES6LlBwHL/9cgIFSZ0wamTLol5VDLqMSsGRvd9g9dodSL21L1qZ6vxPqBRDi8gzqgwt8i673YF33v8FPy/bXnLbpi2HsGnLIRgMOsTHR8Jscm5bUxQFilL8u8xlKIACyLLzsqIAKLpfLloWJcsCiqyUXi5Zl4L8/KoHYWzeeqjk8vKlW3HXPd0hHU3D3iwJDbpfg4YlmwFlnN+bjhNWQMk7if0nZLRqKjYoGFpEnmFoEf75/NdYvab8mSDsdhnHj5/3ckXVd02rJBiNBuRmZCFLMaJDUgT0AGDPwY5vf8FnS0+gIMAEyZGNzEwHwNAi0jS2Gj+3Y+fRCgNLrUJCAiB8LvsAABFtSURBVNCndzIAoFGTOAAy8nNtkGFCUJAE+9nD+PalL/Dej2cQ0WsAnh7bFMGSDGu+XWzhAOxlTk1S2xPmEvkD9rT83KbNB6u97Kz/joXZZIAkSdDpJAASJMl5KvvS36WXAUCnK7oNAIru00k6oJLHjR7/Hi5ezCu3hoG3dMSDk/tjzdo9+LXkzMMSJJ0EQEH2nvV44/3tOFgYjW6TBuDubtHQbTkCpagW0djTIvIMQ8vPGY3VewtIEtChXeNqL++Jq1rEY/OWQy63NW9WH09OHYx2yY3Lqw5BIWbolVxs/+EvBCS1wegpKbgpyQRAQU52PmwwIyRU/NudoUXkGbYaP9end3KVPRBJAvr2TvZKYAFAZJkRhEFBZkx9ZBA+nfNgBYHlZG4QjRg9YGx+I558rn9RYAGAA+lHzsGhj0Jikvi3O0OLyDNsNX4uKbFeyeEFUgXZVS8qFJMm3uy1miLCnaHV/+b2+ObLqRg29EYYDJXPHqFv1BStYyTYz2XhTEHpgeDyhQNYuy0PxmbNkBwt/u3uOmEuZ8Qgcpf47SUk3OiRvdCgQT18NHslTpx0HSnYqGE0Pnh3IqIiQ7xWT9u2DdGzR2t0aN+k+g8yxKP34Kb4c/Z+LHgzEHm3Nkes4xw2//An/s6PQp+hyYgXnFmKokCWSwOVcw8SuY+hRQCcm//6pLRF2tEzmPfpKvy6ahcAoHu3Vl4NLADok5Jcg0fpEN29P6bkrcT8xTvwxZvOY85M9Rqi74P9cGdr8bMPlg0sgJsHiWqCoUUlJElC0yZxSEwsb5okDdAFosXAwZjZNw+nMy7BZgxGbHwoAlWSDZefYJKhReQ+hhb5HlMw6jcufzookRhaRJ5jqyHykstDy5tzOhL5CrYaIi/hcHciz7HlEHkJp3Ai8hxbDpGXsKdF5Dm2HCIvcT2wmE2PqCbYcoi8xLWnxdkwiGqCoUXkJdw8SOQ5HqdFVMax4+cw8YGP6mTdR9IySy6r4TQpRFrE0CIqw2otwM5d6XX+PBw9SFQzbDlEAtzQ+SrRJRBpkqp6WscDInFsYyqggp3UQYEmtG/XuOQMvOQfGiRE4a3XR9fpcxhNBrSv5NxgRFQxVYXWk62G4ui0L0SXUeLFmfcgpWcb0WWQFwUHB7AXRKRiqgqti8YgJIXb8GxKhtA6jl4w4+U1CbDZCoXWQURErlQVWjpFRnJ8Adon5AutIzzAUfVCRETkdRyIQUREmsHQIiIizWBoERGRZjC0iIhIMxhaRESkGaoaPUhE5E8Wf78JO3cdE11GqYsXgBaDoF99AiO6ZKJJkzjRFV2BoUVEJMi7HyxDXp4N0UEqOia0yTU4t/8iolb8jQfuv1l0NVdgaBERCaLX6TCk1QU80+uU6FJc3PBeK9ElVIj7tIiISDMYWkREpBkMLSIi0gyGFhERaQZDi4iINIOhRaqxbfsRyLJcK+uynDqBndvSceKSUivrIyJ14JB3Uo1X3/gekiRh/Nje6NWjNXQ6979T2c6kYc3iP7H891PIlsOR8n9jMKI13+ZEvoKtmVQl7egZPDtjIZo0jsW4MSlI6dmmeuFVcA4bvlqFxauO4TxCERumBy7Wfb1E5F3cPEiqlHb0DKb/6yuMGDULv67aWfVmQ72MzNQshHbujkdfGYVhbcyQvFMqEXkRe1qkasXhVWXPSx+LgTPGY7DJAB3s2O79UonICwx9bnlBdA1OVjvyjMEAskVXUuLl15bgjbd+FF2G19lspfOgfbXoDyz+frNXnjc311rhfcXh1bhxLMaPSYGiXDnAwmjidzAiX2eo7IPC6yR1bdCx2QpdPsD9UWGhA4WFDtFllDhaFF7x9SNFl0JEAnCfFmlKUKAJo0f2xNA7bhBdChEJYPj+26dE1+D0xhsYtTZHdBUuHntoIHr2aC26DK/74st1+Oa7jQCAO4Z0xqh7e3jlee++7y3k5xeUe19QoAnD7+qKu4d3RXhYEL5bsskrNRGRuhji4iJE1+AUIEEHdR0IGhYeBNW8Pl4UHBJQejnY7LXXIC42HEfTz7rcdnlYEZF/455rUiWGFRGVh6FFqlLzsLIideVmbM+UAcg4f7QQChw4vGo9vt4uQQqIw7ChLeuqbCLyEoYWqcbdw7qiV882NetZyQVI37gVK/a5HoScvuEvpAOQglsytIh8AEOLVGPI4E41f7AuDH3/ORV9a68cIlIhDnknIiLNYGgRAXA4aueUKERUPXa7A+nHzla94GUYWuT3HA4ZX362CgCQ2CBKcDVE/sFud+Due9/CczMXuRVe3KdFfs3hkDH7vaX4a3MqJoztje7dWokuichvKIqCZSv+xvKVO9CvTzLGjk5Bo4YxlT6GoUV+qziwtmw8gAlje2PcmN6iSyLyS4qiYPnKHVjx607065OMMaN6oXGj2HKXZWiRX2JgEalPdcKLoUV+x+GQ8fG7S7F10wFMGNcH40aniC6J3HQgNQMvvboYVmv5c1VqRW6eis6ycZnvf9iMdev31tn6rdaKz6BRHF7OzYbtMHZ0aXgxtMivMLB8w9vv/oz9B06KLsOnZefkIzsnX3QZWPHrDqz4dQduv60THn/0VoYW+Q8Glu/w9/Pc+ZOgQBPuHtYVw4d1hcGgZ2iRfygbWBPH98HYUQwsXzFpQl90ur6F6DJq5KFH54ouoUIDbumIobfX3XnrrNYCPPDwnArvLxtWZad2Y2iRz3MG1k/YuimVgeWDWrZMRKuWiaLLqBG9Xr2HykbXC63T17Wi/ZFBQWbcfdeNV4RVMYYW+TQGFpE2VBVWxRha5LMcDhlz3l6CrVuP4P7xfTFmVC/RJRHRZaobVsUYWuST7HYHZr+3FDcumo0eD0/BnQwsIlWRJAljR/WqdlgVU+8GVaIaKg6stPXbMOzsdty591fRJRHRZcxmIyaO7+v2+fMYWuRTigNr66ZUvBp+EobCQuCLL4CDB0WXRkS1gKFFPqNsYD02tANar1vqvEOWgZkzxRZHRLWCoUU+wW53FB2HlYpJE/pi+JHfAZutdIEFC4DUVHEFElGtYGiR5hUH1l+bnYE1us/VwEcfuS4ky8C//y2mQCKqNQwt0rTimS7+2pyKyRP7YfTIXsArr7j2soqxt0WkeQwt0rSP3/2pJLBG3dcTyMi4spdVjL0tIs1jaJEm2e0OAEDa4dOlgQVU3Msqxt4WkaYxtEiToqJCAAD3jeheGliV9bKKsbdFpGmcEYM0qXevtmjerL7rWU2r6mUVW7AAmD4duOqquiuQiOoEe1qkSZIkuQbWqVPA7NmAJJX+XPkg54+iAP/5j/eKJaJaw9Ai3xAfD1gszs1/xT8pZWZ0X7LE9b7PPhNXKxHVGEOLiIg0g6FFRESawdAiIiLNYGgREZFmGLBnj+ganM6cAWASXYWrkyeBPSqryRvOni1z+RxU8x5xl1brJqIKGdCmjegaSnV6SHQFrp55Bjjrhx98jboDSV2dl+fNBWasEVsPEVERbh4k/2A2i66AiGqBAQ0biq7B6eJF0RVcqV49IFAlr483hYWXuRwG1bxHaqpXL6B3b9FVEFEtMCA9XXQNTjNmAMtVFlxvvQXc3EF0Fd43ewUwv2iT4OTJwKT+YushIirCzYNERKQZDC0iItIMhhYREWkGQ4uIiDSDoUVERJrB0CIiIs1gaBERkWYwtIiISDMYWkREpBkMLSIi0gyGFhERaQZDi4iINMMgugBSt9xcK3JzraLLIHKRl8f3pL9iaFGlFn+/GYu/3yy6DCIiANw8SOXQ6/m2IO0wGPSiSyAvYk+LrjCwf0esWLkDJ05miS6FqEKSBNzQqQVat0oSXQp5EUOLrpCQEIVvFj4uugwioitwOxAREWkGQ4uIiDRDd+/od/HIZ8dQKLoSIiKiKugOpVmQ2DoeRtGVEBERVcGgT2qLW9qpI7JkSYel+yNwIltsPccumoU+PxERlc/QoncHXKOOzMIdp7Zhyy3/gKITu6stsZ6CJgY9OrZvIrQOIvJtdoeMJXsjkZnLgdzVZejXL1Y1494nHluPie+uAgxqqYiIqO4MGtAR27an4Szqiy7FyWoFDhxAi0Yx6NyphehqymXoE88BhEREIkx95FbRJbjatQtIfhp4cgHQoanoasqli2VmERGRRjCyiIhIM7jziPyaI/Nv/Pe1bTjm8GAlkgHt7r0H4zpe1pwcF7F81hIsPSYDAAzNOuHZB9qgnjtfFXP24b2ZG3DADgA6JPW/DU/eHFnOgjJOr/wJr/x8DuX+KZIEnU4Hg8mI4LAQxMTVQ/O2zdG5XRwiVTIQi6g6GFrk3yxZ2L31EPZ7ElowIugWuZzbbTi55xA2HygKrcKrYHNzzXLBRezbeghbi0Irp23Fa8jPOI7NW0+WH1oVMEQ2QO+hvTFh+DVI5JEepAHcPEjkx+wXTmL57M8x9uFl2HC+vOAlUhf2tIhK6NDyvjGY3jcEkluPkxAco7KmpG+AUW/ciZujyvwligxbXh7OnjyNXZv3YNnadJwtAAAFOXvXY8YLofj4ja5oorI/hagsvj2JSkgwh0ehSZNI7W+CkIyISIhF03IOaWnZtjm6978Jow9txMxnfsKaTBmAgkvbV+PjVe3wn34h2v/7yWfxvUnkp4Kb34BnH+uIuOJPAcWCzWsPIVdoVUSVY2gR+bHQ61qjc5lNiNbjZ3DSLrAgoiowtIj8mT4ccfVKQ0uxWmHheAxSMYYWkV9zoLDMyfQksxkB7o1CIfIqhhaRPys4j+NnlZKrpoRoJPJgY1Ixjh4kKqEgc+ufmJPr5lG2kh5NenRH32b6ytd+5hC++cSKQHfWbcvAaaXqxWpGRtYfu7Ett/gJjGh9fVOE1tXTEdUChhZRCRmnNv6BeRvdfZwRPZO6VhlajlOpWPhpao2rq22OzD14Z85eXCjKLF1sWwzr5wPD/cmnMbSI/I3dgkO/b8BHH6zF+oyiURfGaNz62M24KUxsaURVYWgRldChYZ9+uKdDgHsPk/Ro0KrqpqRPaofJdzdBiDvrzk/H1x9sR5q7cyPKZ7Hsra+w01R6k2IvwKWLOcg4ehancsusMDAOg54YgcdvCmUvi1SPoUVUQkLUNW0xeHDdbCKTohogZVAnJLixcvmcA79+uB1p7j6ZnIcDf+7GgcqW0ZmRdH0nTHggBf2acrZc0gaGFpGfMjfvghkv9EPbINGVEFUfQ4vIF+kTMPyFgegVUXbC3Hz89en/MGerBQoAW+o6zHgtDu9Pb4f4yseQEKkGQ4vIF0km1G/RCO0vmzA3+Z934uyUL7HkuAOAjFO/LcH0pEjMGtsQwWIqJXIL97sS+RFdVEs89nxfdAwt6oEpNuyZvxAvrbjg1skjiURhaBH5GXOLm/D8Ux3QoHiToCMbv72xEHN2WoXWRVQdDC0iv6NDTM/BeGF0I4QUd7gsJzD/+e/wcwZnyyV1Y2gR+SUTWt83HE/1jkBJh+vMbrw+YyW2XxJaGFGlGFpE/kofgX5PDseolqVHIFsOrMeMl7biOM+pRSrF0CLyZ0GNMO65wegVXfxRIOPs+h8x/eMjyBFaGFH5OOSdqIQD+76Yg2GL3TyhlGRC5ymT8WRXbZ7TQ5/QEf834wwynlqHA1YAKMSBr7/GzMTxeHFwDLT5V5GvYmgRlWG7eAEnLrr7KCOaW+rs/CFeEdqhL1546AweeGM/zssA5EtYP2sh3k8Yj4euC+ImGVINvheJCIAejQYNxYw74lAyC6HtNL6e+Q2WHOUOLlIPSVEUdXxFnDEDmDkTKCwEDOwAEhF53a5dQHIysGABcM89oqspF3taRESkGQwtIiLSDIYWERFpBkOLiIg0Q30jHv74gwMxiIhE2LVLdAVVUk86BAY6f/fsKbYOIiJ/FxEhuoIKqWfIe2EhsGoVYOcxIUREwhiNQJ8+gE6de4/UE1pERERVUGeUEhERlYOhRUREmsHQIiIizWBoERGRZvw/8vf8VJxxCZwAAAAASUVORK5CYII=;" parent="1" vertex="1">
                    <mxGeometry x="669" y="300" width="99" height="84.01" as="geometry"/>
                </mxCell>
                <mxCell id="26" value="&lt;font style=&quot;font-size: 6px;&quot;&gt;Combinational&lt;br&gt;Logic&lt;/font&gt;" style="ellipse;shape=cloud;whiteSpace=wrap;html=1;fillColor=none;fontColor=#000000;strokeColor=#000000;" parent="1" vertex="1">
                    <mxGeometry x="589" y="322" width="60" height="40" as="geometry"/>
                </mxCell>
                <mxCell id="27" value="" style="endArrow=none;html=1;strokeColor=#000000;strokeWidth=1;fontSize=6;fontColor=#000000;entryX=0.07;entryY=0.4;entryDx=0;entryDy=0;entryPerimeter=0;exitX=1.006;exitY=0.318;exitDx=0;exitDy=0;exitPerimeter=0;" parent="1" source="20" target="26" edge="1">
                    <mxGeometry width="50" height="50" relative="1" as="geometry">
                        <mxPoint x="569" y="360" as="sourcePoint"/>
                        <mxPoint x="639" y="330" as="targetPoint"/>
                    </mxGeometry>
                </mxCell>
                <mxCell id="28" value="" style="endArrow=none;html=1;strokeColor=#000000;strokeWidth=1;fontSize=6;fontColor=#000000;entryX=0.226;entryY=0.814;entryDx=0;entryDy=0;entryPerimeter=0;exitX=0.875;exitY=0.5;exitDx=0;exitDy=0;exitPerimeter=0;" parent="1" source="26" edge="1">
                    <mxGeometry width="50" height="50" relative="1" as="geometry">
                        <mxPoint x="635.44" y="335.44" as="sourcePoint"/>
                        <mxPoint x="669" y="330" as="targetPoint"/>
                    </mxGeometry>
                </mxCell>
                <mxCell id="29" value="" style="shape=image;verticalLabelPosition=bottom;labelBackgroundColor=default;verticalAlign=top;aspect=fixed;imageAspect=0;image=data:image/png,iVBORw0KGgoAAAANSUhEUgAAAa0AAAFsCAYAAAB/4uYmAAAgAElEQVR4nO3dd3gU1f4G8He2pjdSSEjoqLRQVBCRFooIiKgIXlE6CIoNKz+5XJV77XoVuxQVRRS9ggWlKFWlCtIhlBBKIJRAQrLZTXZnfn9s2kLaZpM9M7vv53nyZMvs7DebPfvumTlzRlIURQEREZEG6EQXQEREVF0MLSIi0gyGFhERaQZDi4iINIOhRUREmsHQIiIizWBoERGRZjC0iIhIMwyiCyiRng7MmgXIsuhKiIj8V0gIMHUqEBkpupJyqSe0PvkEePNNwGgEDOopi4jIb+TnO3+3agX84x9ia6mAetKhuIdlsTC0iIhE2LULSE4GVDy7H/dpERGRZjC0iIhIMxhaRESkGQwtIiLSDIYWERFpBkOLiIg0g6FFRESawdAiIiLNYGgREZFmMLSIiEgzGFpERKQZDC0iItIMhhYREWmGX02nvmnzQXz6+RrY7Q7RpRCRhgUHm/Hk1NvQICFKdCl+x69C65/Pf4WcnHzRZRCRD3hr1k947eWRosvwO361eTA/v0B0CUTkIyz8PBHCr3paZf1r+l2IjAgWXQYRaci63/fhuyWbRJfh1/w2tG7o1AKRkSGiyyAiDSkosDO0BPOrzYNERKRtDC0iItIMhhYREWkGQ4uIiDSDoUVERJrB0CIiIs1gaBERkWYwtIiISDMYWkREpBkMLSIi0gyGFhERaQZDi4iINIOhRUREmsHQIiIizWBoERGRZjC0iIhIMxhaRESkGQwtIiLSDIYWERFpBkOLiIg0g6FFRESawdAiIiLNYGgREZFmMLSIiEgzGFpERKQZDC0iItIMhhYREWkGQ4uIiDSDoUVERJrB0CIiIs1gaBERkWYwtIiISDMYWkREpBkMLSIi0gyGFhERaQZDi4iINMMgugAiqh1WWyF+WbZNdBmaMWjAtTAa+RGoNfyPEfkIi8WGV17/XnQZmtGvb3uGlgbxP+YlqQczsPK3nRg7KgWBgSbR5ZAPG94jH3f3sIouQ7U+WxmIJRsCRJdBNcTQ8pKlP2/D19/+id27j+HtN8fCZOJLT3UjPlJGfJQsugzVqs/XRtM4EMNLQkMDAQDbdxzFczMXweFgwyEichdDy8tuvaMLVq3ZjVdeXwJFUUSXQ0SkKdxG5WUDB3eGzVqIH37aitDQQEyZ3B+SJIkui4hIExha3iYBw0b0gMViw4KF6xEWFohR9/YUXRURkSYwtASQJAmjxvdFvsWKDz5agbDQQNx+W2fRZRERqR73aQmi0+kw4cGBaNWmEV55/Xus+HWH6JKIiFSPoSWQ0WjAg1NvQ9Pm8Xhu5jf4Y8MB0SUREakaQ0uwgAATHnnqDsQnRGHa9AX4e0ea6JKIiFSLoaUCISGBmDptKMIjgjH1qfk4kJohuiQiIlViaKlERGQIHp92F4wmAx6eOg/Hjp0TXRIRkeowtFQkJi4CU6cNRaHdgSmPzUVm5kXRJRERqQpDS2USk2Lw2NN3IjvbgoemzsOFC7miSyIiUg2Glgo1bZ6AKVOH4GRGFh594lPk5XHGbiIigKGlWq3aNsL9UwYh9WAGHn96Pqy2QtElEREJx9BSsWs7XYXRE27G3zuOYvqMhbDbHaJLIiISiqGlcjf1bIvh9/bE73/ux8wXv4Us85QmROS/OPegBvQbcB3ycq34aclGhIYG4vFHb+XM8ETklxhaGjHkrq7Iy7Pi2+82Iiw0EBPH9xVdEhGR1zG0NEKSJNwzqjcseVbM+2w1QkMD8Y/hN4kui4jIqxhaGqLTSRg76Rbk5xfg7Xd/RmhoIAYNuFZ0WUREXsPQ0hiDQY/Jj9yKN1/6Fv95+Ts0b1Yf11zdQHRZRFRDBw+dgsViE12G05GzCAqORQvRdVSCoaVBJpMRw0b0xH9mLED6sbMMLSKNOnbsHO4b847oMlx1GIfXj+ZArTsfGFoeKCy0488NB9C9Wyuvj+YzmfmvI9K67BwLAGBI6wvo1viS4GqAQ+fN+GBjHPIK1HtoDT/5PFBQYMfTzy5A61aJeOD+m3Ftx2aiSyIiDera6BK6NhY/z2hcaCE+2BgnuoxK8eBiDxQWOmeo2LP3BB58ZC4efmwe9u0/IbgqIiLfxZ6WBy6fVmnz1kPYvPUQevVojfsn9EXjRrGCKiMi8k1+G1qPPz0fUZEh0Ol10Osk6PU6GIx6GA0GmEwGmM0GBAaaEBRkRnCQGcHBAQgNCUBISEDJ5ZxL+eWue/XaPVizbi8G3tIB48f2Qf24iEoqkZF7Ih07955HjsOEmOaN0aZFGMx182cTEWma34bW3n11uxlPURT89PM2LFuxA3fe3hkGg/7KheQcbF/wIz5Zdgp5kg56yHDIRsR16YUpk5KRYKzTEomINMevQqtdcmNs/euwV5/Tbnfg62/+LCe0ZJxa/gvmLjuH6JSBeOaea1BfPodNC5Zi/tpVmJtQH9PujPWvfxARURX86jPxlRfvxeYtB50DKBRAVhQosgK7Q4bD4YDd7kBBgQOFhXbYbIWw5BcgP78AFosNublWXMrNR26u1fmTZ4XVWr1zXIWFBqJ5s/rY9nda6Y0Fx/HbLydQkNQJo0a2LOpVxaDLqBQc2fsNVq/dgdRb+6KVqU5eCiIiTfKr0AoOMqNXjza1tr7de45h/KQPK7w/JjoM99x9E2679Xp8+dXvLqFlP5qGvVkSGnS/Bg1LNgPKOL83HSesgJJ3EvtPyGjVlAM8iYiK+VVo1Ta7o/wD8JKS6mHkiB7o3689jMbyX2JrRhayFCM6JEVADwD2HOz49hd8tvQECgJMkBzZyMx0AAwtIqISDC0P2Atdh7xffVUCRt3bAz26t4ZeX1nYyMjPtUGGCUFBEuxnD2PJh8uxYr8Dib0HYEzLI3j93VRY8+0AOBqDiKgYQ8sDxcdpdezQFKPu64FO1zWv5nROEiSdBEBB9p71eOP97ThYGI1ukwbg7m7R0G05AgXOWd2JiKgUQ8sD9etHYM6Hk9CmdUM3HykhKMQMvZKL7T/8hYCkNhg9JQU3JZkAKMjJzocNZoSE8t9DRFQWPxU94MmMF+YG0YjRH8aZJjfiyWk3onFg8T0OpB85B4c+ColJ3J9FRFQWPxUF0TdqitYxEuznsnCmQCm5Xb5wAGu35cHYrBmSo/nvISIqiz0tUQzx6D24Kf6cvR8L3gxE3q3NEes4h80//Im/86PQZ2gy4plZfk9RlJL9pKczLyIuNrxWToNzMs2I9DKzkEkSoDcoCAqW0SBGRiTH/5BKMbSE0SG6e39MyVuJ+Yt34Is3twMATPUaou+D/XBna84+SMD+Aycx77PVGD+mN+Z+ugpnz2Zj+F1d0btXmwoPp6iSrMfy70Lx8fHywk8B9AoSGxaiV2cr7r7ejnrlzEAmRIEO+9MMOHpBQj4U1Iuxo10jGeH8FPMr/HeLpAtEi4GDMbNvHk5nXILNGIzY+FAEsodFRRQFWP/7Pqz/fR9iY8Nx5kw2npu5CLPe+xl3DumMIbd1Qr2o0Jo/gVFGXKgCHQDZIeHSJQkWhw4n0sz4PM2EnzZZMX20BV3Da+1Pcpts0WPZ8iDM3WjESVvZoFVgCrOjT4oFD3a3ox7bjV9gaKmBKRj1GweLroJU7syZ7JLLWVm5mD3vN3wyfw369k7G8LtuRGys+8liaGLBvEm20g98u4TDB034cXUgvkvV40JaAP45V8GsKfloI2BKMTnbiLdnh2DRCR0UKJD0MiLDFZhsOpzNk1CQY8TPS8KwKyMXs+4u4CZ1P8DQ8jGyrJScnLJEmX0gVe4Nkaq7nFS95YoWqt5yUvWWcy2hGsv57vFudrsDvyzfjl+Wb0erlokAANmTM6UbFDRracOjVxeg4zfheHaDHpZjgXh7XQE+7OOAV7cUOvRY9EVRYEky2nTLw5P9CnB1iPPujAMBeGtRENadl3B8SzBeSrLjv91k79ZIXsfQ0rjtO9KwY2d6yfWIiGDcdmsXgRWpl6IoRb8BoOxl5/XSy0X3lrd86cUrH1Pmist6XR7jvEV2yLiUa4Ulz4Z8qw35+QXIz7chL78A+ZYCWPNtyLcWIOdSPjq0bwqrtaDKs2IXn25n3opAFMrAkC42hAcrlT6mQjoF3Qfn4Zb9ofjhgoS9m8zY3dOCdl78xMj6OxCfHXL2sJr2uIT/DrGj7IbQhKuteHEiMPXtIGy26LD1t0Bs6pSHG7k7WNV27DyKltckwmSq2ZuJoaVxaWlnXEJLp5Pw7XcbPVpnUmI0pj01FKGhgVUvrCHFPS7nL3G9r3PnczDt2fk4cza76oVrINeqw8q/zEhubEeH5vaaryiwEP3byli6Tg/HeSM2nQbaJdZenZWSdVi5wYQLCiCFFWB8X9fAKmaIs+L+Lmb89ZsBjmwTVhzIw43JXqqRamT+grU4dOg0xozqhYG3dHR7QBFDy8fIsoKcHItH69iz9xhWr92FwYM61VJVVNaWLQfrLLAMBj16tLHghZG5qHT6y2q6uqEdZuhhkfU4fBqAl0JLzjViQzoAKIi8xoYbK9nle1XbQiStNuCoLGHPYQMKk+2csVPFFAXIPJONl19bgs8+X4Mxo3phQP+O5Z8otxwMLY1r07ohunVtiQOpGVj5285aW2/xvIpU+wrtrr2f+PhIBAWaERRU9BNoRmCQGcEll00ICjRj7/7jWLZ8W7nrNBh0uHVQJxw/dg5tG+6olcACAFOEjCgdYJGBrGwdAE92mFWf/aQBh+3O+TlbNLYjoJJljQl2tDArOJoPZGbqkQs7Ir1SJdWEIpdusj51+iJefGUxPv18DcaOSkH/fu2rDC+GlsZd1SIeN/dtD4vFhskT+0FWFNgLr/xguWLPRjm7Ot6c9SO2bD0EAAgIMCAszAyXnTaVP7zcG8tfzrN1urNej+osZ52V7iG6fJ9YNfS/uSMefnBghfdbLDYcPpIJSQIs+QXlLnPjDVdj7Og+iIkJx/R/LajmM1ePZFZQvIuooMB7m1TzL+hwUQEgyYiPrOLV1MmICwOQL8GRq0OWA4is5HPPYnP+/nHpVgSYjZAkCZKEot9S6fWiia2LL0MCDqSeLFnPhQt5WLNuDyQUPVYnOR/jvAG6MuuFhKLrrvenpWV69kLVkUK7AxaLrczfhXJep9LL7lDKaR0ZGRfw75f+h0/nr8bY0Sno16ddheHF0PIRxd/SPZHYIApbtjovGw06BAbw7VEXTKbSblBwkBFRkRXvO8zIOIen/++zcu9r3qw+Hnt4IK7t2AwAkHUhF7t2p6N389qrVZGlkr6V3lDDQR01cCm/6HklIKiybhYA6BQEFg/HtwO2KhbPsThf/7dmLfWoxiNpmXjm2dr9kqAW3/+wBf9ee8qtx5QXajrnDS63WywV/4dOnMzCC//5Fp/MX41xo3ujb+/kK07zxE8lIi+THaUf/pWfd81V82b1cejwaURGBGPSxH4YNOBatx5fE3KuhJyicsNDvBdaZbYgoYJzrZZSUNq11VXjQ817f4ZfURTFZaStJ44fP4/nZi7C/C/W4r+vjUJcXETJfQwtIi9zlPkUrk7otG6ViHFjeqNNqyTMX7AOY0b2RHBwVd2P2pF5Su/cTKeT0TDGe5/2Qeai8Z2KhDxrFQsrEi4VfXmXghSEVbG1KsDk/Dt69WwDg14HWVagFB++oChF14sOYVAUyErpfYqCousKoBQdviCXuR/OwVDFl5Wi9RUfHqEUPbb4ssVSgBMnz9f4dfJVOp2EAf07YtR9PV0CC1BpaGXnWHDq1AXRZbho3DgWAWaOSSLPuYZW5Tudr7k6AXM+nFyy32DK5P51WpsLWYd1ewxwAJCC7GjvreHuAELDZARJQI4i4XSWBBlKxaekKNDjZDYAKAiLciCyiu8BEUU9xunT7kSwh5vUPbVr9zFMmPyh0BrKM/SOGzD7uQdKQrf0GMfSUC8b4igTxHJxoBcFtMt1AFMemYv0Y2fLfV69XodBA67FqHt7ICEhqtxlVBla/5r8DDYeCxFdhouuN16NN14ZJboM8gHu9LSqOwy4LpzfFYhvjjpH8MW1teEG73TuAACG+g4kScAeBTiUboStWwEq2vNnTTNgX6Gzzqsbc7h7bZIkCXp97Q7AiY4OvSK09HodBg+6DiPv7YH4+pWP/VRlaJ23OMt6sf9xwZU4/d+yJGRne3bsE1Exu6P0cIK63idVU2f2BeKfX5uRqQBScCFG9y6sMDTqgr5eITrEKNiTKSF7vwl/5BWgT3nHaskS1m0x4bwCwFyI7q0q6ZGRKpQdkGsw6HHbrddj5IjuV2wGrIgqQ0uCgs5JuUhpdkl0KQCAdvF5kH14/jryLnf3adUlpUCH9FN6ZAEotOlwOtOAv3absGKfHpdkCTDaMXh4HgZHe7kwgx39Ozqw6BcDCnJNmPOLEdffUYjwy16u87uD8NFOCQoU1G9vRZ/qfe6RSIoCk8mA2wd3woh7uiE2xr2JnlUZWkS+rGxoGQSHluNoEB54LaicexQExdowZlge7mkupvfSvJsFg7aG4ruzEo7+EYIHbfmYnGLDdXEKCrP12LIlEB+sNOGkDOijbHh4QGG5Uz2RugwccC1e+NdwREeH1ejxDC0iL1NTT8tJASTAZFIQGeFA00Q7rm9rw81tHKgn8hMiqBAPjbTg9Jwg/Jmtw6EtwXh8S3HAFm/5UGCqV4CHx+QhReA5v6j6Bt7S0aPHM7SIvKxsaOl0AkJL58DYx7Mw1vvP7LbAJCtenWrHd8sD8d0OI47mlYZVULgD119rxcgUG1qra9wW1SGGFpGXqa+npW6GcDuGDbuEYUMlrPw8AjO266BLzMfsx/LRjCfP8jtsMURextCqIZ2C1o0dMAFwZJjxbap0xfS9tvKnZyQfwp4WkZe5DMQwMLTcUb+9FV1XGrAqV4cl88OQ18OKlEYydHk67E8146c0B554JA/dubnQZzG0iLzMzp5WjenCC/DYMBvSvzDjcL4BK5aFYEXZBSQ9vt+Vj+5dvHMKFfI+hhaRl8kMLY/EJOfh46mFWLTajPVpepzKlSAFyGiYWIieXawY0pKB5csYWkRexn1anguuX4Ax/yjAGNGFkNexxRB5GUOLqObYYmpBXp4VZ8/liC6DNIKhRVRzbDG14HxWLu4Y9hrefPtHhhdVye7GqUmIyBVDq5YUFjqw6NsNDC+qEntaRDXHFlPLahpellMnsHNbOk5c4rnAfZ2j7KlJdDx7AJE7OHqwjhSH1+LvN+P22zpVuBnIdiYNaxb/ieW/n0K2HI6U/xuDEa35b/Fl7GkR1Zzh3tGzRNfgdNoOdBgHjHtPld2/gwdPoaLX6vjxcxU+rji8dEXfqC9eyEVMbARQcA4bvlqFxauO4TxCERumBy7WSemkMgwtopozHDp8WnQNpYJjgSOZuMrbJ5yrBqutEJ68VrLs3Ow3/YlPMGBwJwwe0hyZqVkI7dwd992RDPt38/De77VVLakZQ4uo5rgdyssG3NYJ/W65DpLBjIEzxmOwyQAd7NguujDyGgdHDxLVmOHj9+8XXYPTnDnAJ58A69bh9effEV3NFZo1jcPTTwwp977jJ85j5ovfVvjYsNBAXNUiHlu3HcGAwZ1hNDq/KxhN/M7gjzhhLlHNGZLbNhJdg1O4BFw6CbRpKLqScgUFmVHRaxUREVzu7WGhgbjn7ptw151dsPDrP7B125G6LJE0wiFz8yBRTfGrfh0oG1bBwQGiyyGVcdgZWkQ1xdCqRWGhgRjxj24YemcXBAeZRZdDKsWBGEQ1x9CqBWaTAZMn9mNYUbUwtIhqjqFVC+LiIjDqvp6iyyCNYGgR1RxDSxgrUlduxvZMGYCM80cLocCBw6vW4+vtEqSAOAwb2lJ0kVQHeOZioppjaIkiFyB941as2Od6ltX0DX8hHYAU3JKh5aNcelo6hhaROxhaoujC0PefU9FXdB3kddw8SFRzbDFEXsbQIqo5thgiL5JlGYpSevoZhhaRe9hiNOpk0czyksTzMWlJ8cTJxRhaRO5hi9GgA/uO49OPl6NBgyh0uq656HLIDWVHDgIMLSJ3scVozIF9x/HWK/9DTEwYPpg1ocJ5D0mdHAwtIo+wxWjI5YEVGxsuuiRyk1wmtHQ6iZt3idzEIe8acWDvcbz1alFgvTMBsTEMLC3iyEEiz7DVaAADy3cwtIg8w1ajcgws38LQIvIMW42KMbB8j51TOBF5hPu0VGr/3mN4+9XvEBsTjvffGc/A8hHsaRF5hq1GhRhYvsvhcJRcZmgRuY+tRmUYWL6NPS0iz7DVqMgVgXUyTXRJVMtcQsvA5kfkLrYalSgbWB+8OwGxWaeBfv2AnBzRpVEtYk+LyDNsNSqwf+8xvFUmsGKiw4B//xs4exZ4913R5VEtcg0tvcBKiLSJoSVYcWDVjy0TWAcOAF9+6VzgjTfY2/IhZYe8G9jTInIbW41AZQPr/XeKAgtw9rLkog+3rCz2tnyIzM2DRB5hqxFk354KAqtsL6sYe1s+g/u0iDzDViPAvj3H8PZr5QQWAMycWdrLKpaVBbzzjneLpDrB0CLyDFuNl+3fe7ziwNq/H1i4sPwHsrflExwupyZh8yNyF1uNl7396v+cgy4uDyzAdV/W5S5cYG/LB7CnReQZthovybNYAQCxsRH44J0JiL48sCrrZRVjb0vzOHqQyDNsNV7Su1cyutxwFeZ8OOnKwAIq72UVY29L89jTIvIMW42XtGmdhP++NvrKTYJA9XpZxdjb0jSGFpFneGoSNUhNBR58sPR6Rgbwv/+VXn/oIdfl9+0DOnf2Tm1UqxhaRJ5haKnB4MHOn2JlQys0FJg1S0xdVOtcTk3CCXOpyIyVibihYa7oMnD4vFl0CVViaJEm2e0OnD2Xg/j6kaJLcQt7WlRWQkIk2rZpiPNZl3DQGi26HMgGGxpb0tE6roXoUirE0CJN+nXVLjw3cxEmjOuDcaNTRJdTbQwtKqteVChmfzBJdBmldu0CkpOB8J6iK6kQWw1pUk6OBQAwe+6v+GXZdsHVVB+HvBN5hq2GNMlgcJ7Wo150GGa+9C3Wrd8ruKLqkR1KyWWemoTIfQwt0rSHn7gdDZKi8ey/FuKvbYdFl1Mll4EY7GkRuY2thjQtMMiMqc8MRVS9MDzx9OfYu++E6JIq5Tr3oCSwEiJtYmiR5oWFB+Px/7sLAUEmPPrEJ0hLyxRdUoU4EIPIMwbMmye6BqftRTvTP/lEbB0VOXMGXnutMjK88zw+pF50GB6fdhdefuErPDR1Hj5+fxIS4tU3HJ6hReQZA8aNE12Dq4kTgSGPiq7iSocOAeP+JboKqkR8g3qY+sxQvDrzazz02Fx8/N79qFcvVHRZLlxHD3IgBpG7+FVP7aLFH3CoJY2axOHhJ27HmTPZeHjqPFy6lC+6JBfsaRF5xoBhw0TX4LR7N7B3LzB0KGAXXUw56kXD66+V0Qg88YR3n9MHXN0qCZMfGYx331yCqU99hllvjkVgoEl0WQAYWkSeMuDrr0XX4DRjhjO0Fi4E7npSdDVXuvoq4IM3RVdB1dSuYzOMmzwAs99bimemL8DrL98Ho1H8BDAMLSLPsNWQz7qha0uMGN0bmzYfxHMzF7kEhiguocUJc4ncJv6rJ1EdSunXAZY8GxZ/8zuCg5dg2lO3Q5LEHR/FnhaRZxha5PMGDumMvLx8/PDTVoSHB+HBSf2F1cIZMYg8w9AinydJEoaN6AlLng2fL1iH0NBAjBzRQ0gtjjJzD3LCXCL3MbTIL0iShJHj+8FiseH9D5cjLDQQQwZ38nodrtM4MbSI3MVWQ35Dr9dh4pSBaNmmIV5+bQlW/rbT6zVwnxaRZ9hqyK8YjQZMmToETZvF47mZi7BhY6pXn5+hReQZthryOwEBJjzy9B2oHx+Fp5/9Ajt2HvXac3MgBpFnuE+L/FJISCCmThuKl59fiKlPfYYP3pmAq1ok1PnzeqOn9c4PQTh5noFYkW/WB4ougTzA0CK/FREZgsen3YWXnl+Ih6d+go/fvx8Nk+p2rkfXCXNrN1gkAAEBRtjtMn7cElar6/YlBoMMAw/s1iyGFvm1mLgITJ02FK+88BUeenQu5n40GdHRdfeBX5c9rcjIEKxZ+XytrpNIbfh1g/xeYlIMJj88GJlnsvHb6t11+lyuocVTkxC5i6FFBCCpUQwA1Pn8hBw9SOQZthoiL+KEuUSeYash8iL2tIg8w1ZDqnL2XA6stkLRZdQZl9DSiZttnkirOHqQVOWvbUfw5ls/YsAtHXH7bZ3QqGGMm2uQkXsiHTv3nkeOw4SY5o3RpkUYzHVSrfs4EIPIM6oMLQUSNh0PwbRliaJLAQDsOBWMNlFK1QuSxyLCg5BzKR9fLfoDXy36Ax3bN8GQ2zqhZ/fWMJmqeLvKOdi+4Ed8suwU8iQd9JDhkI2I69ILUyYlI8Honb+hMtw8SOQZVYZWt0EDkLdiOw5ao0SXAgBISFDQrWtL0WX4hYiIYJfr2/5Ow7a/0xAREYxBA67FkMHXI7FBvXIeKePU8l8wd9k5RKcMxDP3XIP68jlsWrAU89euwtyE+ph2Z6zwNzxDi8gzottwuSaO64OJ4/qILsPv2MrsS9qy9RBatUxE+3aNvXoKjctDq9jFi3n44st1+OLLdeh0XXMkJES6LlBwHL/9cgIFSZ0wamTLol5VDLqMSsGRvd9g9dodSL21L1qZ6vxPqBRDi8gzqgwt8i673YF33v8FPy/bXnLbpi2HsGnLIRgMOsTHR8Jscm5bUxQFilL8u8xlKIACyLLzsqIAKLpfLloWJcsCiqyUXi5Zl4L8/KoHYWzeeqjk8vKlW3HXPd0hHU3D3iwJDbpfg4YlmwFlnN+bjhNWQMk7if0nZLRqKjYoGFpEnmFoEf75/NdYvab8mSDsdhnHj5/3ckXVd02rJBiNBuRmZCFLMaJDUgT0AGDPwY5vf8FnS0+gIMAEyZGNzEwHwNAi0jS2Gj+3Y+fRCgNLrUJCAiB8LvsAABFtSURBVNCndzIAoFGTOAAy8nNtkGFCUJAE+9nD+PalL/Dej2cQ0WsAnh7bFMGSDGu+XWzhAOxlTk1S2xPmEvkD9rT83KbNB6u97Kz/joXZZIAkSdDpJAASJMl5KvvS36WXAUCnK7oNAIru00k6oJLHjR7/Hi5ezCu3hoG3dMSDk/tjzdo9+LXkzMMSJJ0EQEH2nvV44/3tOFgYjW6TBuDubtHQbTkCpagW0djTIvIMQ8vPGY3VewtIEtChXeNqL++Jq1rEY/OWQy63NW9WH09OHYx2yY3Lqw5BIWbolVxs/+EvBCS1wegpKbgpyQRAQU52PmwwIyRU/NudoUXkGbYaP9end3KVPRBJAvr2TvZKYAFAZJkRhEFBZkx9ZBA+nfNgBYHlZG4QjRg9YGx+I558rn9RYAGAA+lHzsGhj0Jikvi3O0OLyDNsNX4uKbFeyeEFUgXZVS8qFJMm3uy1miLCnaHV/+b2+ObLqRg29EYYDJXPHqFv1BStYyTYz2XhTEHpgeDyhQNYuy0PxmbNkBwt/u3uOmEuZ8Qgcpf47SUk3OiRvdCgQT18NHslTpx0HSnYqGE0Pnh3IqIiQ7xWT9u2DdGzR2t0aN+k+g8yxKP34Kb4c/Z+LHgzEHm3Nkes4xw2//An/s6PQp+hyYgXnFmKokCWSwOVcw8SuY+hRQCcm//6pLRF2tEzmPfpKvy6ahcAoHu3Vl4NLADok5Jcg0fpEN29P6bkrcT8xTvwxZvOY85M9Rqi74P9cGdr8bMPlg0sgJsHiWqCoUUlJElC0yZxSEwsb5okDdAFosXAwZjZNw+nMy7BZgxGbHwoAlWSDZefYJKhReQ+hhb5HlMw6jcufzookRhaRJ5jqyHykstDy5tzOhL5CrYaIi/hcHciz7HlEHkJp3Ai8hxbDpGXsKdF5Dm2HCIvcT2wmE2PqCbYcoi8xLWnxdkwiGqCoUXkJdw8SOQ5HqdFVMax4+cw8YGP6mTdR9IySy6r4TQpRFrE0CIqw2otwM5d6XX+PBw9SFQzbDlEAtzQ+SrRJRBpkqp6WscDInFsYyqggp3UQYEmtG/XuOQMvOQfGiRE4a3XR9fpcxhNBrSv5NxgRFQxVYXWk62G4ui0L0SXUeLFmfcgpWcb0WWQFwUHB7AXRKRiqgqti8YgJIXb8GxKhtA6jl4w4+U1CbDZCoXWQURErlQVWjpFRnJ8Adon5AutIzzAUfVCRETkdRyIQUREmsHQIiIizWBoERGRZjC0iIhIMxhaRESkGaoaPUhE5E8Wf78JO3cdE11GqYsXgBaDoF99AiO6ZKJJkzjRFV2BoUVEJMi7HyxDXp4N0UEqOia0yTU4t/8iolb8jQfuv1l0NVdgaBERCaLX6TCk1QU80+uU6FJc3PBeK9ElVIj7tIiISDMYWkREpBkMLSIi0gyGFhERaQZDi4iINIOhRaqxbfsRyLJcK+uynDqBndvSceKSUivrIyJ14JB3Uo1X3/gekiRh/Nje6NWjNXQ6979T2c6kYc3iP7H891PIlsOR8n9jMKI13+ZEvoKtmVQl7egZPDtjIZo0jsW4MSlI6dmmeuFVcA4bvlqFxauO4TxCERumBy7Wfb1E5F3cPEiqlHb0DKb/6yuMGDULv67aWfVmQ72MzNQshHbujkdfGYVhbcyQvFMqEXkRe1qkasXhVWXPSx+LgTPGY7DJAB3s2O79UonICwx9bnlBdA1OVjvyjMEAskVXUuLl15bgjbd+FF2G19lspfOgfbXoDyz+frNXnjc311rhfcXh1bhxLMaPSYGiXDnAwmjidzAiX2eo7IPC6yR1bdCx2QpdPsD9UWGhA4WFDtFllDhaFF7x9SNFl0JEAnCfFmlKUKAJo0f2xNA7bhBdChEJYPj+26dE1+D0xhsYtTZHdBUuHntoIHr2aC26DK/74st1+Oa7jQCAO4Z0xqh7e3jlee++7y3k5xeUe19QoAnD7+qKu4d3RXhYEL5bsskrNRGRuhji4iJE1+AUIEEHdR0IGhYeBNW8Pl4UHBJQejnY7LXXIC42HEfTz7rcdnlYEZF/455rUiWGFRGVh6FFqlLzsLIideVmbM+UAcg4f7QQChw4vGo9vt4uQQqIw7ChLeuqbCLyEoYWqcbdw7qiV882NetZyQVI37gVK/a5HoScvuEvpAOQglsytIh8AEOLVGPI4E41f7AuDH3/ORV9a68cIlIhDnknIiLNYGgRAXA4aueUKERUPXa7A+nHzla94GUYWuT3HA4ZX362CgCQ2CBKcDVE/sFud+Due9/CczMXuRVe3KdFfs3hkDH7vaX4a3MqJoztje7dWokuichvKIqCZSv+xvKVO9CvTzLGjk5Bo4YxlT6GoUV+qziwtmw8gAlje2PcmN6iSyLyS4qiYPnKHVjx607065OMMaN6oXGj2HKXZWiRX2JgEalPdcKLoUV+x+GQ8fG7S7F10wFMGNcH40aniC6J3HQgNQMvvboYVmv5c1VqRW6eis6ycZnvf9iMdev31tn6rdaKz6BRHF7OzYbtMHZ0aXgxtMivMLB8w9vv/oz9B06KLsOnZefkIzsnX3QZWPHrDqz4dQduv60THn/0VoYW+Q8Glu/w9/Pc+ZOgQBPuHtYVw4d1hcGgZ2iRfygbWBPH98HYUQwsXzFpQl90ur6F6DJq5KFH54ouoUIDbumIobfX3XnrrNYCPPDwnArvLxtWZad2Y2iRz3MG1k/YuimVgeWDWrZMRKuWiaLLqBG9Xr2HykbXC63T17Wi/ZFBQWbcfdeNV4RVMYYW+TQGFpE2VBVWxRha5LMcDhlz3l6CrVuP4P7xfTFmVC/RJRHRZaobVsUYWuST7HYHZr+3FDcumo0eD0/BnQwsIlWRJAljR/WqdlgVU+8GVaIaKg6stPXbMOzsdty591fRJRHRZcxmIyaO7+v2+fMYWuRTigNr66ZUvBp+EobCQuCLL4CDB0WXRkS1gKFFPqNsYD02tANar1vqvEOWgZkzxRZHRLWCoUU+wW53FB2HlYpJE/pi+JHfAZutdIEFC4DUVHEFElGtYGiR5hUH1l+bnYE1us/VwEcfuS4ky8C//y2mQCKqNQwt0rTimS7+2pyKyRP7YfTIXsArr7j2soqxt0WkeQwt0rSP3/2pJLBG3dcTyMi4spdVjL0tIs1jaJEm2e0OAEDa4dOlgQVU3Msqxt4WkaYxtEiToqJCAAD3jeheGliV9bKKsbdFpGmcEYM0qXevtmjerL7rWU2r6mUVW7AAmD4duOqquiuQiOoEe1qkSZIkuQbWqVPA7NmAJJX+XPkg54+iAP/5j/eKJaJaw9Ai3xAfD1gszs1/xT8pZWZ0X7LE9b7PPhNXKxHVGEOLiIg0g6FFRESawdAiIiLNYGgREZFmGLBnj+ganM6cAWASXYWrkyeBPSqryRvOni1z+RxU8x5xl1brJqIKGdCmjegaSnV6SHQFrp55Bjjrhx98jboDSV2dl+fNBWasEVsPEVERbh4k/2A2i66AiGqBAQ0biq7B6eJF0RVcqV49IFAlr483hYWXuRwG1bxHaqpXL6B3b9FVEFEtMCA9XXQNTjNmAMtVFlxvvQXc3EF0Fd43ewUwv2iT4OTJwKT+YushIirCzYNERKQZDC0iItIMhhYREWkGQ4uIiDSDoUVERJrB0CIiIs1gaBERkWYwtIiISDMYWkREpBkMLSIi0gyGFhERaQZDi4iINMMgugBSt9xcK3JzraLLIHKRl8f3pL9iaFGlFn+/GYu/3yy6DCIiANw8SOXQ6/m2IO0wGPSiSyAvYk+LrjCwf0esWLkDJ05miS6FqEKSBNzQqQVat0oSXQp5EUOLrpCQEIVvFj4uugwioitwOxAREWkGQ4uIiDRDd+/od/HIZ8dQKLoSIiKiKugOpVmQ2DoeRtGVEBERVcGgT2qLW9qpI7JkSYel+yNwIltsPccumoU+PxERlc/QoncHXKOOzMIdp7Zhyy3/gKITu6stsZ6CJgY9OrZvIrQOIvJtdoeMJXsjkZnLgdzVZejXL1Y1494nHluPie+uAgxqqYiIqO4MGtAR27an4Szqiy7FyWoFDhxAi0Yx6NyphehqymXoE88BhEREIkx95FbRJbjatQtIfhp4cgHQoanoasqli2VmERGRRjCyiIhIM7jziPyaI/Nv/Pe1bTjm8GAlkgHt7r0H4zpe1pwcF7F81hIsPSYDAAzNOuHZB9qgnjtfFXP24b2ZG3DADgA6JPW/DU/eHFnOgjJOr/wJr/x8DuX+KZIEnU4Hg8mI4LAQxMTVQ/O2zdG5XRwiVTIQi6g6GFrk3yxZ2L31EPZ7ElowIugWuZzbbTi55xA2HygKrcKrYHNzzXLBRezbeghbi0Irp23Fa8jPOI7NW0+WH1oVMEQ2QO+hvTFh+DVI5JEepAHcPEjkx+wXTmL57M8x9uFl2HC+vOAlUhf2tIhK6NDyvjGY3jcEkluPkxAco7KmpG+AUW/ciZujyvwligxbXh7OnjyNXZv3YNnadJwtAAAFOXvXY8YLofj4ja5oorI/hagsvj2JSkgwh0ehSZNI7W+CkIyISIhF03IOaWnZtjm6978Jow9txMxnfsKaTBmAgkvbV+PjVe3wn34h2v/7yWfxvUnkp4Kb34BnH+uIuOJPAcWCzWsPIVdoVUSVY2gR+bHQ61qjc5lNiNbjZ3DSLrAgoiowtIj8mT4ccfVKQ0uxWmHheAxSMYYWkV9zoLDMyfQksxkB7o1CIfIqhhaRPys4j+NnlZKrpoRoJPJgY1Ixjh4kKqEgc+ufmJPr5lG2kh5NenRH32b6ytd+5hC++cSKQHfWbcvAaaXqxWpGRtYfu7Ett/gJjGh9fVOE1tXTEdUChhZRCRmnNv6BeRvdfZwRPZO6VhlajlOpWPhpao2rq22OzD14Z85eXCjKLF1sWwzr5wPD/cmnMbSI/I3dgkO/b8BHH6zF+oyiURfGaNz62M24KUxsaURVYWgRldChYZ9+uKdDgHsPk/Ro0KrqpqRPaofJdzdBiDvrzk/H1x9sR5q7cyPKZ7Hsra+w01R6k2IvwKWLOcg4ehancsusMDAOg54YgcdvCmUvi1SPoUVUQkLUNW0xeHDdbCKTohogZVAnJLixcvmcA79+uB1p7j6ZnIcDf+7GgcqW0ZmRdH0nTHggBf2acrZc0gaGFpGfMjfvghkv9EPbINGVEFUfQ4vIF+kTMPyFgegVUXbC3Hz89en/MGerBQoAW+o6zHgtDu9Pb4f4yseQEKkGQ4vIF0km1G/RCO0vmzA3+Z934uyUL7HkuAOAjFO/LcH0pEjMGtsQwWIqJXIL97sS+RFdVEs89nxfdAwt6oEpNuyZvxAvrbjg1skjiURhaBH5GXOLm/D8Ux3QoHiToCMbv72xEHN2WoXWRVQdDC0iv6NDTM/BeGF0I4QUd7gsJzD/+e/wcwZnyyV1Y2gR+SUTWt83HE/1jkBJh+vMbrw+YyW2XxJaGFGlGFpE/kofgX5PDseolqVHIFsOrMeMl7biOM+pRSrF0CLyZ0GNMO65wegVXfxRIOPs+h8x/eMjyBFaGFH5OOSdqIQD+76Yg2GL3TyhlGRC5ymT8WRXbZ7TQ5/QEf834wwynlqHA1YAKMSBr7/GzMTxeHFwDLT5V5GvYmgRlWG7eAEnLrr7KCOaW+rs/CFeEdqhL1546AweeGM/zssA5EtYP2sh3k8Yj4euC+ImGVINvheJCIAejQYNxYw74lAyC6HtNL6e+Q2WHOUOLlIPSVEUdXxFnDEDmDkTKCwEDOwAEhF53a5dQHIysGABcM89oqspF3taRESkGQwtIiLSDIYWERFpBkOLiIg0Q30jHv74gwMxiIhE2LVLdAVVUk86BAY6f/fsKbYOIiJ/FxEhuoIKqWfIe2EhsGoVYOcxIUREwhiNQJ8+gE6de4/UE1pERERVUGeUEhERlYOhRUREmsHQIiIizWBoERGRZvw/8vf8VJxxCZwAAAAASUVORK5CYII=;" vertex="1" parent="1">
                    <mxGeometry x="270" y="580" width="99" height="84.01" as="geometry"/>
                </mxCell>
                <mxCell id="30" value="" style="shape=image;verticalLabelPosition=bottom;labelBackgroundColor=default;verticalAlign=top;aspect=fixed;imageAspect=0;image=data:image/png,iVBORw0KGgoAAAANSUhEUgAAAa0AAAFsCAYAAAB/4uYmAAAgAElEQVR4nO3dd3gU1f4G8He2pjdSSEjoqLRQVBCRFooIiKgIXlE6CIoNKz+5XJV77XoVuxQVRRS9ggWlKFWlCtIhlBBKIJRAQrLZTXZnfn9s2kLaZpM9M7vv53nyZMvs7DebPfvumTlzRlIURQEREZEG6EQXQEREVF0MLSIi0gyGFhERaQZDi4iINIOhRUREmsHQIiIizWBoERGRZjC0iIhIMwyiCyiRng7MmgXIsuhKiIj8V0gIMHUqEBkpupJyqSe0PvkEePNNwGgEDOopi4jIb+TnO3+3agX84x9ia6mAetKhuIdlsTC0iIhE2LULSE4GVDy7H/dpERGRZjC0iIhIMxhaRESkGQwtIiLSDIYWERFpBkOLiIg0g6FFRESawdAiIiLNYGgREZFmMLSIiEgzGFpERKQZDC0iItIMhhYREWmGX02nvmnzQXz6+RrY7Q7RpRCRhgUHm/Hk1NvQICFKdCl+x69C65/Pf4WcnHzRZRCRD3hr1k947eWRosvwO361eTA/v0B0CUTkIyz8PBHCr3paZf1r+l2IjAgWXQYRaci63/fhuyWbRJfh1/w2tG7o1AKRkSGiyyAiDSkosDO0BPOrzYNERKRtDC0iItIMhhYREWkGQ4uIiDSDoUVERJrB0CIiIs1gaBERkWYwtIiISDMYWkREpBkMLSIi0gyGFhERaQZDi4iINIOhRUREmsHQIiIizWBoERGRZjC0iIhIMxhaRESkGQwtIiLSDIYWERFpBkOLiIg0g6FFRESawdAiIiLNYGgREZFmMLSIiEgzGFpERKQZDC0iItIMhhYREWkGQ4uIiDSDoUVERJrB0CIiIs1gaBERkWYwtIiISDMYWkREpBkMLSIi0gyGFhERaQZDi4iINMMgugAiqh1WWyF+WbZNdBmaMWjAtTAa+RGoNfyPEfkIi8WGV17/XnQZmtGvb3uGlgbxP+YlqQczsPK3nRg7KgWBgSbR5ZAPG94jH3f3sIouQ7U+WxmIJRsCRJdBNcTQ8pKlP2/D19/+id27j+HtN8fCZOJLT3UjPlJGfJQsugzVqs/XRtM4EMNLQkMDAQDbdxzFczMXweFgwyEichdDy8tuvaMLVq3ZjVdeXwJFUUSXQ0SkKdxG5WUDB3eGzVqIH37aitDQQEyZ3B+SJIkui4hIExha3iYBw0b0gMViw4KF6xEWFohR9/YUXRURkSYwtASQJAmjxvdFvsWKDz5agbDQQNx+W2fRZRERqR73aQmi0+kw4cGBaNWmEV55/Xus+HWH6JKIiFSPoSWQ0WjAg1NvQ9Pm8Xhu5jf4Y8MB0SUREakaQ0uwgAATHnnqDsQnRGHa9AX4e0ea6JKIiFSLoaUCISGBmDptKMIjgjH1qfk4kJohuiQiIlViaKlERGQIHp92F4wmAx6eOg/Hjp0TXRIRkeowtFQkJi4CU6cNRaHdgSmPzUVm5kXRJRERqQpDS2USk2Lw2NN3IjvbgoemzsOFC7miSyIiUg2Glgo1bZ6AKVOH4GRGFh594lPk5XHGbiIigKGlWq3aNsL9UwYh9WAGHn96Pqy2QtElEREJx9BSsWs7XYXRE27G3zuOYvqMhbDbHaJLIiISiqGlcjf1bIvh9/bE73/ux8wXv4Us85QmROS/OPegBvQbcB3ycq34aclGhIYG4vFHb+XM8ETklxhaGjHkrq7Iy7Pi2+82Iiw0EBPH9xVdEhGR1zG0NEKSJNwzqjcseVbM+2w1QkMD8Y/hN4kui4jIqxhaGqLTSRg76Rbk5xfg7Xd/RmhoIAYNuFZ0WUREXsPQ0hiDQY/Jj9yKN1/6Fv95+Ts0b1Yf11zdQHRZRFRDBw+dgsViE12G05GzCAqORQvRdVSCoaVBJpMRw0b0xH9mLED6sbMMLSKNOnbsHO4b847oMlx1GIfXj+ZArTsfGFoeKCy0488NB9C9Wyuvj+YzmfmvI9K67BwLAGBI6wvo1viS4GqAQ+fN+GBjHPIK1HtoDT/5PFBQYMfTzy5A61aJeOD+m3Ftx2aiSyIiDera6BK6NhY/z2hcaCE+2BgnuoxK8eBiDxQWOmeo2LP3BB58ZC4efmwe9u0/IbgqIiLfxZ6WBy6fVmnz1kPYvPUQevVojfsn9EXjRrGCKiMi8k1+G1qPPz0fUZEh0Ol10Osk6PU6GIx6GA0GmEwGmM0GBAaaEBRkRnCQGcHBAQgNCUBISEDJ5ZxL+eWue/XaPVizbi8G3tIB48f2Qf24iEoqkZF7Ih07955HjsOEmOaN0aZFGMx182cTEWma34bW3n11uxlPURT89PM2LFuxA3fe3hkGg/7KheQcbF/wIz5Zdgp5kg56yHDIRsR16YUpk5KRYKzTEomINMevQqtdcmNs/euwV5/Tbnfg62/+LCe0ZJxa/gvmLjuH6JSBeOaea1BfPodNC5Zi/tpVmJtQH9PujPWvfxARURX86jPxlRfvxeYtB50DKBRAVhQosgK7Q4bD4YDd7kBBgQOFhXbYbIWw5BcgP78AFosNublWXMrNR26u1fmTZ4XVWr1zXIWFBqJ5s/rY9nda6Y0Fx/HbLydQkNQJo0a2LOpVxaDLqBQc2fsNVq/dgdRb+6KVqU5eCiIiTfKr0AoOMqNXjza1tr7de45h/KQPK7w/JjoM99x9E2679Xp8+dXvLqFlP5qGvVkSGnS/Bg1LNgPKOL83HSesgJJ3EvtPyGjVlAM8iYiK+VVo1Ta7o/wD8JKS6mHkiB7o3689jMbyX2JrRhayFCM6JEVADwD2HOz49hd8tvQECgJMkBzZyMx0AAwtIqISDC0P2Atdh7xffVUCRt3bAz26t4ZeX1nYyMjPtUGGCUFBEuxnD2PJh8uxYr8Dib0HYEzLI3j93VRY8+0AOBqDiKgYQ8sDxcdpdezQFKPu64FO1zWv5nROEiSdBEBB9p71eOP97ThYGI1ukwbg7m7R0G05AgXOWd2JiKgUQ8sD9etHYM6Hk9CmdUM3HykhKMQMvZKL7T/8hYCkNhg9JQU3JZkAKMjJzocNZoSE8t9DRFQWPxU94MmMF+YG0YjRH8aZJjfiyWk3onFg8T0OpB85B4c+ColJ3J9FRFQWPxUF0TdqitYxEuznsnCmQCm5Xb5wAGu35cHYrBmSo/nvISIqiz0tUQzx6D24Kf6cvR8L3gxE3q3NEes4h80//Im/86PQZ2gy4plZfk9RlJL9pKczLyIuNrxWToNzMs2I9DKzkEkSoDcoCAqW0SBGRiTH/5BKMbSE0SG6e39MyVuJ+Yt34Is3twMATPUaou+D/XBna84+SMD+Aycx77PVGD+mN+Z+ugpnz2Zj+F1d0btXmwoPp6iSrMfy70Lx8fHywk8B9AoSGxaiV2cr7r7ejnrlzEAmRIEO+9MMOHpBQj4U1Iuxo10jGeH8FPMr/HeLpAtEi4GDMbNvHk5nXILNGIzY+FAEsodFRRQFWP/7Pqz/fR9iY8Nx5kw2npu5CLPe+xl3DumMIbd1Qr2o0Jo/gVFGXKgCHQDZIeHSJQkWhw4n0sz4PM2EnzZZMX20BV3Da+1Pcpts0WPZ8iDM3WjESVvZoFVgCrOjT4oFD3a3ox7bjV9gaKmBKRj1GweLroJU7syZ7JLLWVm5mD3vN3wyfw369k7G8LtuRGys+8liaGLBvEm20g98u4TDB034cXUgvkvV40JaAP45V8GsKfloI2BKMTnbiLdnh2DRCR0UKJD0MiLDFZhsOpzNk1CQY8TPS8KwKyMXs+4u4CZ1P8DQ8jGyrJScnLJEmX0gVe4Nkaq7nFS95YoWqt5yUvWWcy2hGsv57vFudrsDvyzfjl+Wb0erlokAANmTM6UbFDRracOjVxeg4zfheHaDHpZjgXh7XQE+7OOAV7cUOvRY9EVRYEky2nTLw5P9CnB1iPPujAMBeGtRENadl3B8SzBeSrLjv91k79ZIXsfQ0rjtO9KwY2d6yfWIiGDcdmsXgRWpl6IoRb8BoOxl5/XSy0X3lrd86cUrH1Pmist6XR7jvEV2yLiUa4Ulz4Z8qw35+QXIz7chL78A+ZYCWPNtyLcWIOdSPjq0bwqrtaDKs2IXn25n3opAFMrAkC42hAcrlT6mQjoF3Qfn4Zb9ofjhgoS9m8zY3dOCdl78xMj6OxCfHXL2sJr2uIT/DrGj7IbQhKuteHEiMPXtIGy26LD1t0Bs6pSHG7k7WNV27DyKltckwmSq2ZuJoaVxaWlnXEJLp5Pw7XcbPVpnUmI0pj01FKGhgVUvrCHFPS7nL3G9r3PnczDt2fk4cza76oVrINeqw8q/zEhubEeH5vaaryiwEP3byli6Tg/HeSM2nQbaJdZenZWSdVi5wYQLCiCFFWB8X9fAKmaIs+L+Lmb89ZsBjmwTVhzIw43JXqqRamT+grU4dOg0xozqhYG3dHR7QBFDy8fIsoKcHItH69iz9xhWr92FwYM61VJVVNaWLQfrLLAMBj16tLHghZG5qHT6y2q6uqEdZuhhkfU4fBqAl0JLzjViQzoAKIi8xoYbK9nle1XbQiStNuCoLGHPYQMKk+2csVPFFAXIPJONl19bgs8+X4Mxo3phQP+O5Z8otxwMLY1r07ohunVtiQOpGVj5285aW2/xvIpU+wrtrr2f+PhIBAWaERRU9BNoRmCQGcEll00ICjRj7/7jWLZ8W7nrNBh0uHVQJxw/dg5tG+6olcACAFOEjCgdYJGBrGwdAE92mFWf/aQBh+3O+TlbNLYjoJJljQl2tDArOJoPZGbqkQs7Ir1SJdWEIpdusj51+iJefGUxPv18DcaOSkH/fu2rDC+GlsZd1SIeN/dtD4vFhskT+0FWFNgLr/xguWLPRjm7Ot6c9SO2bD0EAAgIMCAszAyXnTaVP7zcG8tfzrN1urNej+osZ52V7iG6fJ9YNfS/uSMefnBghfdbLDYcPpIJSQIs+QXlLnPjDVdj7Og+iIkJx/R/LajmM1ePZFZQvIuooMB7m1TzL+hwUQEgyYiPrOLV1MmICwOQL8GRq0OWA4is5HPPYnP+/nHpVgSYjZAkCZKEot9S6fWiia2LL0MCDqSeLFnPhQt5WLNuDyQUPVYnOR/jvAG6MuuFhKLrrvenpWV69kLVkUK7AxaLrczfhXJep9LL7lDKaR0ZGRfw75f+h0/nr8bY0Sno16ddheHF0PIRxd/SPZHYIApbtjovGw06BAbw7VEXTKbSblBwkBFRkRXvO8zIOIen/++zcu9r3qw+Hnt4IK7t2AwAkHUhF7t2p6N389qrVZGlkr6V3lDDQR01cCm/6HklIKiybhYA6BQEFg/HtwO2KhbPsThf/7dmLfWoxiNpmXjm2dr9kqAW3/+wBf9ee8qtx5QXajrnDS63WywV/4dOnMzCC//5Fp/MX41xo3ujb+/kK07zxE8lIi+THaUf/pWfd81V82b1cejwaURGBGPSxH4YNOBatx5fE3KuhJyicsNDvBdaZbYgoYJzrZZSUNq11VXjQ817f4ZfURTFZaStJ44fP4/nZi7C/C/W4r+vjUJcXETJfQwtIi9zlPkUrk7otG6ViHFjeqNNqyTMX7AOY0b2RHBwVd2P2pF5Su/cTKeT0TDGe5/2Qeai8Z2KhDxrFQsrEi4VfXmXghSEVbG1KsDk/Dt69WwDg14HWVagFB++oChF14sOYVAUyErpfYqCousKoBQdviCXuR/OwVDFl5Wi9RUfHqEUPbb4ssVSgBMnz9f4dfJVOp2EAf07YtR9PV0CC1BpaGXnWHDq1AXRZbho3DgWAWaOSSLPuYZW5Tudr7k6AXM+nFyy32DK5P51WpsLWYd1ewxwAJCC7GjvreHuAELDZARJQI4i4XSWBBlKxaekKNDjZDYAKAiLciCyiu8BEUU9xunT7kSwh5vUPbVr9zFMmPyh0BrKM/SOGzD7uQdKQrf0GMfSUC8b4igTxHJxoBcFtMt1AFMemYv0Y2fLfV69XodBA67FqHt7ICEhqtxlVBla/5r8DDYeCxFdhouuN16NN14ZJboM8gHu9LSqOwy4LpzfFYhvjjpH8MW1teEG73TuAACG+g4kScAeBTiUboStWwEq2vNnTTNgX6Gzzqsbc7h7bZIkCXp97Q7AiY4OvSK09HodBg+6DiPv7YH4+pWP/VRlaJ23OMt6sf9xwZU4/d+yJGRne3bsE1Exu6P0cIK63idVU2f2BeKfX5uRqQBScCFG9y6sMDTqgr5eITrEKNiTKSF7vwl/5BWgT3nHaskS1m0x4bwCwFyI7q0q6ZGRKpQdkGsw6HHbrddj5IjuV2wGrIgqQ0uCgs5JuUhpdkl0KQCAdvF5kH14/jryLnf3adUlpUCH9FN6ZAEotOlwOtOAv3absGKfHpdkCTDaMXh4HgZHe7kwgx39Ozqw6BcDCnJNmPOLEdffUYjwy16u87uD8NFOCQoU1G9vRZ/qfe6RSIoCk8mA2wd3woh7uiE2xr2JnlUZWkS+rGxoGQSHluNoEB54LaicexQExdowZlge7mkupvfSvJsFg7aG4ruzEo7+EYIHbfmYnGLDdXEKCrP12LIlEB+sNOGkDOijbHh4QGG5Uz2RugwccC1e+NdwREeH1ejxDC0iL1NTT8tJASTAZFIQGeFA00Q7rm9rw81tHKgn8hMiqBAPjbTg9Jwg/Jmtw6EtwXh8S3HAFm/5UGCqV4CHx+QhReA5v6j6Bt7S0aPHM7SIvKxsaOl0AkJL58DYx7Mw1vvP7LbAJCtenWrHd8sD8d0OI47mlYZVULgD119rxcgUG1qra9wW1SGGFpGXqa+npW6GcDuGDbuEYUMlrPw8AjO266BLzMfsx/LRjCfP8jtsMURextCqIZ2C1o0dMAFwZJjxbap0xfS9tvKnZyQfwp4WkZe5DMQwMLTcUb+9FV1XGrAqV4cl88OQ18OKlEYydHk67E8146c0B554JA/dubnQZzG0iLzMzp5WjenCC/DYMBvSvzDjcL4BK5aFYEXZBSQ9vt+Vj+5dvHMKFfI+hhaRl8kMLY/EJOfh46mFWLTajPVpepzKlSAFyGiYWIieXawY0pKB5csYWkRexn1anguuX4Ax/yjAGNGFkNexxRB5GUOLqObYYmpBXp4VZ8/liC6DNIKhRVRzbDG14HxWLu4Y9hrefPtHhhdVye7GqUmIyBVDq5YUFjqw6NsNDC+qEntaRDXHFlPLahpellMnsHNbOk5c4rnAfZ2j7KlJdDx7AJE7OHqwjhSH1+LvN+P22zpVuBnIdiYNaxb/ieW/n0K2HI6U/xuDEa35b/Fl7GkR1Zzh3tGzRNfgdNoOdBgHjHtPld2/gwdPoaLX6vjxcxU+rji8dEXfqC9eyEVMbARQcA4bvlqFxauO4TxCERumBy7WSemkMgwtopozHDp8WnQNpYJjgSOZuMrbJ5yrBqutEJ68VrLs3Ow3/YlPMGBwJwwe0hyZqVkI7dwd992RDPt38/De77VVLakZQ4uo5rgdyssG3NYJ/W65DpLBjIEzxmOwyQAd7NguujDyGgdHDxLVmOHj9+8XXYPTnDnAJ58A69bh9effEV3NFZo1jcPTTwwp977jJ85j5ovfVvjYsNBAXNUiHlu3HcGAwZ1hNDq/KxhN/M7gjzhhLlHNGZLbNhJdg1O4BFw6CbRpKLqScgUFmVHRaxUREVzu7WGhgbjn7ptw151dsPDrP7B125G6LJE0wiFz8yBRTfGrfh0oG1bBwQGiyyGVcdgZWkQ1xdCqRWGhgRjxj24YemcXBAeZRZdDKsWBGEQ1x9CqBWaTAZMn9mNYUbUwtIhqjqFVC+LiIjDqvp6iyyCNYGgR1RxDSxgrUlduxvZMGYCM80cLocCBw6vW4+vtEqSAOAwb2lJ0kVQHeOZioppjaIkiFyB941as2Od6ltX0DX8hHYAU3JKh5aNcelo6hhaROxhaoujC0PefU9FXdB3kddw8SFRzbDFEXsbQIqo5thgiL5JlGYpSevoZhhaRe9hiNOpk0czyksTzMWlJ8cTJxRhaRO5hi9GgA/uO49OPl6NBgyh0uq656HLIDWVHDgIMLSJ3scVozIF9x/HWK/9DTEwYPpg1ocJ5D0mdHAwtIo+wxWjI5YEVGxsuuiRyk1wmtHQ6iZt3idzEIe8acWDvcbz1alFgvTMBsTEMLC3iyEEiz7DVaAADy3cwtIg8w1ajcgws38LQIvIMW42KMbB8j51TOBF5hPu0VGr/3mN4+9XvEBsTjvffGc/A8hHsaRF5hq1GhRhYvsvhcJRcZmgRuY+tRmUYWL6NPS0iz7DVqMgVgXUyTXRJVMtcQsvA5kfkLrYalSgbWB+8OwGxWaeBfv2AnBzRpVEtYk+LyDNsNSqwf+8xvFUmsGKiw4B//xs4exZ4913R5VEtcg0tvcBKiLSJoSVYcWDVjy0TWAcOAF9+6VzgjTfY2/IhZYe8G9jTInIbW41AZQPr/XeKAgtw9rLkog+3rCz2tnyIzM2DRB5hqxFk354KAqtsL6sYe1s+g/u0iDzDViPAvj3H8PZr5QQWAMycWdrLKpaVBbzzjneLpDrB0CLyDFuNl+3fe7ziwNq/H1i4sPwHsrflExwupyZh8yNyF1uNl7396v+cgy4uDyzAdV/W5S5cYG/LB7CnReQZthovybNYAQCxsRH44J0JiL48sCrrZRVjb0vzOHqQyDNsNV7Su1cyutxwFeZ8OOnKwAIq72UVY29L89jTIvIMW42XtGmdhP++NvrKTYJA9XpZxdjb0jSGFpFneGoSNUhNBR58sPR6Rgbwv/+VXn/oIdfl9+0DOnf2Tm1UqxhaRJ5haKnB4MHOn2JlQys0FJg1S0xdVOtcTk3CCXOpyIyVibihYa7oMnD4vFl0CVViaJEm2e0OnD2Xg/j6kaJLcQt7WlRWQkIk2rZpiPNZl3DQGi26HMgGGxpb0tE6roXoUirE0CJN+nXVLjw3cxEmjOuDcaNTRJdTbQwtKqteVChmfzBJdBmldu0CkpOB8J6iK6kQWw1pUk6OBQAwe+6v+GXZdsHVVB+HvBN5hq2GNMlgcJ7Wo150GGa+9C3Wrd8ruKLqkR1KyWWemoTIfQwt0rSHn7gdDZKi8ey/FuKvbYdFl1Mll4EY7GkRuY2thjQtMMiMqc8MRVS9MDzx9OfYu++E6JIq5Tr3oCSwEiJtYmiR5oWFB+Px/7sLAUEmPPrEJ0hLyxRdUoU4EIPIMwbMmye6BqftRTvTP/lEbB0VOXMGXnutMjK88zw+pF50GB6fdhdefuErPDR1Hj5+fxIS4tU3HJ6hReQZA8aNE12Dq4kTgSGPiq7iSocOAeP+JboKqkR8g3qY+sxQvDrzazz02Fx8/N79qFcvVHRZLlxHD3IgBpG7+FVP7aLFH3CoJY2axOHhJ27HmTPZeHjqPFy6lC+6JBfsaRF5xoBhw0TX4LR7N7B3LzB0KGAXXUw56kXD66+V0Qg88YR3n9MHXN0qCZMfGYx331yCqU99hllvjkVgoEl0WQAYWkSeMuDrr0XX4DRjhjO0Fi4E7npSdDVXuvoq4IM3RVdB1dSuYzOMmzwAs99bimemL8DrL98Ho1H8BDAMLSLPsNWQz7qha0uMGN0bmzYfxHMzF7kEhiguocUJc4ncJv6rJ1EdSunXAZY8GxZ/8zuCg5dg2lO3Q5LEHR/FnhaRZxha5PMGDumMvLx8/PDTVoSHB+HBSf2F1cIZMYg8w9AinydJEoaN6AlLng2fL1iH0NBAjBzRQ0gtjjJzD3LCXCL3MbTIL0iShJHj+8FiseH9D5cjLDQQQwZ38nodrtM4MbSI3MVWQ35Dr9dh4pSBaNmmIV5+bQlW/rbT6zVwnxaRZ9hqyK8YjQZMmToETZvF47mZi7BhY6pXn5+hReQZthryOwEBJjzy9B2oHx+Fp5/9Ajt2HvXac3MgBpFnuE+L/FJISCCmThuKl59fiKlPfYYP3pmAq1ok1PnzeqOn9c4PQTh5noFYkW/WB4ougTzA0CK/FREZgsen3YWXnl+Ih6d+go/fvx8Nk+p2rkfXCXNrN1gkAAEBRtjtMn7cElar6/YlBoMMAw/s1iyGFvm1mLgITJ02FK+88BUeenQu5n40GdHRdfeBX5c9rcjIEKxZ+XytrpNIbfh1g/xeYlIMJj88GJlnsvHb6t11+lyuocVTkxC5i6FFBCCpUQwA1Pn8hBw9SOQZthoiL+KEuUSeYash8iL2tIg8w1ZDqnL2XA6stkLRZdQZl9DSiZttnkirOHqQVOWvbUfw5ls/YsAtHXH7bZ3QqGGMm2uQkXsiHTv3nkeOw4SY5o3RpkUYzHVSrfs4EIPIM6oMLQUSNh0PwbRliaJLAQDsOBWMNlFK1QuSxyLCg5BzKR9fLfoDXy36Ax3bN8GQ2zqhZ/fWMJmqeLvKOdi+4Ed8suwU8iQd9JDhkI2I69ILUyYlI8Honb+hMtw8SOQZVYZWt0EDkLdiOw5ao0SXAgBISFDQrWtL0WX4hYiIYJfr2/5Ow7a/0xAREYxBA67FkMHXI7FBvXIeKePU8l8wd9k5RKcMxDP3XIP68jlsWrAU89euwtyE+ph2Z6zwNzxDi8gzottwuSaO64OJ4/qILsPv2MrsS9qy9RBatUxE+3aNvXoKjctDq9jFi3n44st1+OLLdeh0XXMkJES6LlBwHL/9cgIFSZ0wamTLol5VDLqMSsGRvd9g9dodSL21L1qZ6vxPqBRDi8gzqgwt8i673YF33v8FPy/bXnLbpi2HsGnLIRgMOsTHR8Jscm5bUxQFilL8u8xlKIACyLLzsqIAKLpfLloWJcsCiqyUXi5Zl4L8/KoHYWzeeqjk8vKlW3HXPd0hHU3D3iwJDbpfg4YlmwFlnN+bjhNWQMk7if0nZLRqKjYoGFpEnmFoEf75/NdYvab8mSDsdhnHj5/3ckXVd02rJBiNBuRmZCFLMaJDUgT0AGDPwY5vf8FnS0+gIMAEyZGNzEwHwNAi0jS2Gj+3Y+fRCgNLrUJCAiB8LvsAABFtSURBVNCndzIAoFGTOAAy8nNtkGFCUJAE+9nD+PalL/Dej2cQ0WsAnh7bFMGSDGu+XWzhAOxlTk1S2xPmEvkD9rT83KbNB6u97Kz/joXZZIAkSdDpJAASJMl5KvvS36WXAUCnK7oNAIru00k6oJLHjR7/Hi5ezCu3hoG3dMSDk/tjzdo9+LXkzMMSJJ0EQEH2nvV44/3tOFgYjW6TBuDubtHQbTkCpagW0djTIvIMQ8vPGY3VewtIEtChXeNqL++Jq1rEY/OWQy63NW9WH09OHYx2yY3Lqw5BIWbolVxs/+EvBCS1wegpKbgpyQRAQU52PmwwIyRU/NudoUXkGbYaP9end3KVPRBJAvr2TvZKYAFAZJkRhEFBZkx9ZBA+nfNgBYHlZG4QjRg9YGx+I558rn9RYAGAA+lHzsGhj0Jikvi3O0OLyDNsNX4uKbFeyeEFUgXZVS8qFJMm3uy1miLCnaHV/+b2+ObLqRg29EYYDJXPHqFv1BStYyTYz2XhTEHpgeDyhQNYuy0PxmbNkBwt/u3uOmEuZ8Qgcpf47SUk3OiRvdCgQT18NHslTpx0HSnYqGE0Pnh3IqIiQ7xWT9u2DdGzR2t0aN+k+g8yxKP34Kb4c/Z+LHgzEHm3Nkes4xw2//An/s6PQp+hyYgXnFmKokCWSwOVcw8SuY+hRQCcm//6pLRF2tEzmPfpKvy6ahcAoHu3Vl4NLADok5Jcg0fpEN29P6bkrcT8xTvwxZvOY85M9Rqi74P9cGdr8bMPlg0sgJsHiWqCoUUlJElC0yZxSEwsb5okDdAFosXAwZjZNw+nMy7BZgxGbHwoAlWSDZefYJKhReQ+hhb5HlMw6jcufzookRhaRJ5jqyHykstDy5tzOhL5CrYaIi/hcHciz7HlEHkJp3Ai8hxbDpGXsKdF5Dm2HCIvcT2wmE2PqCbYcoi8xLWnxdkwiGqCoUXkJdw8SOQ5HqdFVMax4+cw8YGP6mTdR9IySy6r4TQpRFrE0CIqw2otwM5d6XX+PBw9SFQzbDlEAtzQ+SrRJRBpkqp6WscDInFsYyqggp3UQYEmtG/XuOQMvOQfGiRE4a3XR9fpcxhNBrSv5NxgRFQxVYXWk62G4ui0L0SXUeLFmfcgpWcb0WWQFwUHB7AXRKRiqgqti8YgJIXb8GxKhtA6jl4w4+U1CbDZCoXWQURErlQVWjpFRnJ8Adon5AutIzzAUfVCRETkdRyIQUREmsHQIiIizWBoERGRZjC0iIhIMxhaRESkGaoaPUhE5E8Wf78JO3cdE11GqYsXgBaDoF99AiO6ZKJJkzjRFV2BoUVEJMi7HyxDXp4N0UEqOia0yTU4t/8iolb8jQfuv1l0NVdgaBERCaLX6TCk1QU80+uU6FJc3PBeK9ElVIj7tIiISDMYWkREpBkMLSIi0gyGFhERaQZDi4iINIOhRaqxbfsRyLJcK+uynDqBndvSceKSUivrIyJ14JB3Uo1X3/gekiRh/Nje6NWjNXQ6979T2c6kYc3iP7H891PIlsOR8n9jMKI13+ZEvoKtmVQl7egZPDtjIZo0jsW4MSlI6dmmeuFVcA4bvlqFxauO4TxCERumBy7Wfb1E5F3cPEiqlHb0DKb/6yuMGDULv67aWfVmQ72MzNQshHbujkdfGYVhbcyQvFMqEXkRe1qkasXhVWXPSx+LgTPGY7DJAB3s2O79UonICwx9bnlBdA1OVjvyjMEAskVXUuLl15bgjbd+FF2G19lspfOgfbXoDyz+frNXnjc311rhfcXh1bhxLMaPSYGiXDnAwmjidzAiX2eo7IPC6yR1bdCx2QpdPsD9UWGhA4WFDtFllDhaFF7x9SNFl0JEAnCfFmlKUKAJo0f2xNA7bhBdChEJYPj+26dE1+D0xhsYtTZHdBUuHntoIHr2aC26DK/74st1+Oa7jQCAO4Z0xqh7e3jlee++7y3k5xeUe19QoAnD7+qKu4d3RXhYEL5bsskrNRGRuhji4iJE1+AUIEEHdR0IGhYeBNW8Pl4UHBJQejnY7LXXIC42HEfTz7rcdnlYEZF/455rUiWGFRGVh6FFqlLzsLIideVmbM+UAcg4f7QQChw4vGo9vt4uQQqIw7ChLeuqbCLyEoYWqcbdw7qiV882NetZyQVI37gVK/a5HoScvuEvpAOQglsytIh8AEOLVGPI4E41f7AuDH3/ORV9a68cIlIhDnknIiLNYGgRAXA4aueUKERUPXa7A+nHzla94GUYWuT3HA4ZX362CgCQ2CBKcDVE/sFud+Due9/CczMXuRVe3KdFfs3hkDH7vaX4a3MqJoztje7dWokuichvKIqCZSv+xvKVO9CvTzLGjk5Bo4YxlT6GoUV+qziwtmw8gAlje2PcmN6iSyLyS4qiYPnKHVjx607065OMMaN6oXGj2HKXZWiRX2JgEalPdcKLoUV+x+GQ8fG7S7F10wFMGNcH40aniC6J3HQgNQMvvboYVmv5c1VqRW6eis6ycZnvf9iMdev31tn6rdaKz6BRHF7OzYbtMHZ0aXgxtMivMLB8w9vv/oz9B06KLsOnZefkIzsnX3QZWPHrDqz4dQduv60THn/0VoYW+Q8Glu/w9/Pc+ZOgQBPuHtYVw4d1hcGgZ2iRfygbWBPH98HYUQwsXzFpQl90ur6F6DJq5KFH54ouoUIDbumIobfX3XnrrNYCPPDwnArvLxtWZad2Y2iRz3MG1k/YuimVgeWDWrZMRKuWiaLLqBG9Xr2HykbXC63T17Wi/ZFBQWbcfdeNV4RVMYYW+TQGFpE2VBVWxRha5LMcDhlz3l6CrVuP4P7xfTFmVC/RJRHRZaobVsUYWuST7HYHZr+3FDcumo0eD0/BnQwsIlWRJAljR/WqdlgVU+8GVaIaKg6stPXbMOzsdty591fRJRHRZcxmIyaO7+v2+fMYWuRTigNr66ZUvBp+EobCQuCLL4CDB0WXRkS1gKFFPqNsYD02tANar1vqvEOWgZkzxRZHRLWCoUU+wW53FB2HlYpJE/pi+JHfAZutdIEFC4DUVHEFElGtYGiR5hUH1l+bnYE1us/VwEcfuS4ky8C//y2mQCKqNQwt0rTimS7+2pyKyRP7YfTIXsArr7j2soqxt0WkeQwt0rSP3/2pJLBG3dcTyMi4spdVjL0tIs1jaJEm2e0OAEDa4dOlgQVU3Msqxt4WkaYxtEiToqJCAAD3jeheGliV9bKKsbdFpGmcEYM0qXevtmjerL7rWU2r6mUVW7AAmD4duOqquiuQiOoEe1qkSZIkuQbWqVPA7NmAJJX+XPkg54+iAP/5j/eKJaJaw9Ai3xAfD1gszs1/xT8pZWZ0X7LE9b7PPhNXKxHVGEOLiIg0g6FFRESawdAiIiLNYGgREZFmGLBnj+ganM6cAWASXYWrkyeBPSqryRvOni1z+RxU8x5xl1brJqIKGdCmjegaSnV6SHQFrp55Bjjrhx98jboDSV2dl+fNBWasEVsPEVERbh4k/2A2i66AiGqBAQ0biq7B6eJF0RVcqV49IFAlr483hYWXuRwG1bxHaqpXL6B3b9FVEFEtMCA9XXQNTjNmAMtVFlxvvQXc3EF0Fd43ewUwv2iT4OTJwKT+YushIirCzYNERKQZDC0iItIMhhYREWkGQ4uIiDSDoUVERJrB0CIiIs1gaBERkWYwtIiISDMYWkREpBkMLSIi0gyGFhERaQZDi4iINMMgugBSt9xcK3JzraLLIHKRl8f3pL9iaFGlFn+/GYu/3yy6DCIiANw8SOXQ6/m2IO0wGPSiSyAvYk+LrjCwf0esWLkDJ05miS6FqEKSBNzQqQVat0oSXQp5EUOLrpCQEIVvFj4uugwioitwOxAREWkGQ4uIiDRDd+/od/HIZ8dQKLoSIiKiKugOpVmQ2DoeRtGVEBERVcGgT2qLW9qpI7JkSYel+yNwIltsPccumoU+PxERlc/QoncHXKOOzMIdp7Zhyy3/gKITu6stsZ6CJgY9OrZvIrQOIvJtdoeMJXsjkZnLgdzVZejXL1Y1494nHluPie+uAgxqqYiIqO4MGtAR27an4Szqiy7FyWoFDhxAi0Yx6NyphehqymXoE88BhEREIkx95FbRJbjatQtIfhp4cgHQoanoasqli2VmERGRRjCyiIhIM7jziPyaI/Nv/Pe1bTjm8GAlkgHt7r0H4zpe1pwcF7F81hIsPSYDAAzNOuHZB9qgnjtfFXP24b2ZG3DADgA6JPW/DU/eHFnOgjJOr/wJr/x8DuX+KZIEnU4Hg8mI4LAQxMTVQ/O2zdG5XRwiVTIQi6g6GFrk3yxZ2L31EPZ7ElowIugWuZzbbTi55xA2HygKrcKrYHNzzXLBRezbeghbi0Irp23Fa8jPOI7NW0+WH1oVMEQ2QO+hvTFh+DVI5JEepAHcPEjkx+wXTmL57M8x9uFl2HC+vOAlUhf2tIhK6NDyvjGY3jcEkluPkxAco7KmpG+AUW/ciZujyvwligxbXh7OnjyNXZv3YNnadJwtAAAFOXvXY8YLofj4ja5oorI/hagsvj2JSkgwh0ehSZNI7W+CkIyISIhF03IOaWnZtjm6978Jow9txMxnfsKaTBmAgkvbV+PjVe3wn34h2v/7yWfxvUnkp4Kb34BnH+uIuOJPAcWCzWsPIVdoVUSVY2gR+bHQ61qjc5lNiNbjZ3DSLrAgoiowtIj8mT4ccfVKQ0uxWmHheAxSMYYWkV9zoLDMyfQksxkB7o1CIfIqhhaRPys4j+NnlZKrpoRoJPJgY1Ixjh4kKqEgc+ufmJPr5lG2kh5NenRH32b6ytd+5hC++cSKQHfWbcvAaaXqxWpGRtYfu7Ett/gJjGh9fVOE1tXTEdUChhZRCRmnNv6BeRvdfZwRPZO6VhlajlOpWPhpao2rq22OzD14Z85eXCjKLF1sWwzr5wPD/cmnMbSI/I3dgkO/b8BHH6zF+oyiURfGaNz62M24KUxsaURVYWgRldChYZ9+uKdDgHsPk/Ro0KrqpqRPaofJdzdBiDvrzk/H1x9sR5q7cyPKZ7Hsra+w01R6k2IvwKWLOcg4ehancsusMDAOg54YgcdvCmUvi1SPoUVUQkLUNW0xeHDdbCKTohogZVAnJLixcvmcA79+uB1p7j6ZnIcDf+7GgcqW0ZmRdH0nTHggBf2acrZc0gaGFpGfMjfvghkv9EPbINGVEFUfQ4vIF+kTMPyFgegVUXbC3Hz89en/MGerBQoAW+o6zHgtDu9Pb4f4yseQEKkGQ4vIF0km1G/RCO0vmzA3+Z934uyUL7HkuAOAjFO/LcH0pEjMGtsQwWIqJXIL97sS+RFdVEs89nxfdAwt6oEpNuyZvxAvrbjg1skjiURhaBH5GXOLm/D8Ux3QoHiToCMbv72xEHN2WoXWRVQdDC0iv6NDTM/BeGF0I4QUd7gsJzD/+e/wcwZnyyV1Y2gR+SUTWt83HE/1jkBJh+vMbrw+YyW2XxJaGFGlGFpE/kofgX5PDseolqVHIFsOrMeMl7biOM+pRSrF0CLyZ0GNMO65wegVXfxRIOPs+h8x/eMjyBFaGFH5OOSdqIQD+76Yg2GL3TyhlGRC5ymT8WRXbZ7TQ5/QEf834wwynlqHA1YAKMSBr7/GzMTxeHFwDLT5V5GvYmgRlWG7eAEnLrr7KCOaW+rs/CFeEdqhL1546AweeGM/zssA5EtYP2sh3k8Yj4euC+ImGVINvheJCIAejQYNxYw74lAyC6HtNL6e+Q2WHOUOLlIPSVEUdXxFnDEDmDkTKCwEDOwAEhF53a5dQHIysGABcM89oqspF3taRESkGQwtIiLSDIYWERFpBkOLiIg0Q30jHv74gwMxiIhE2LVLdAVVUk86BAY6f/fsKbYOIiJ/FxEhuoIKqWfIe2EhsGoVYOcxIUREwhiNQJ8+gE6de4/UE1pERERVUGeUEhERlYOhRUREmsHQIiIizWBoERGRZvw/8vf8VJxxCZwAAAAASUVORK5CYII=;" vertex="1" parent="1">
                    <mxGeometry x="270" y="675" width="99" height="84.01" as="geometry"/>
                </mxCell>
                <mxCell id="40" style="edgeStyle=none;html=1;exitX=0.5;exitY=0;exitDx=0;exitDy=0;entryX=-0.035;entryY=0.338;entryDx=0;entryDy=0;entryPerimeter=0;" edge="1" parent="1" source="32" target="33">
                    <mxGeometry relative="1" as="geometry"/>
                </mxCell>
                <mxCell id="32" value="" style="shape=trapezoid;perimeter=trapezoidPerimeter;whiteSpace=wrap;html=1;fixedSize=1;rotation=90;gradientColor=default;fillColor=none;" vertex="1" parent="1">
                    <mxGeometry x="520" y="490" width="90" height="45" as="geometry"/>
                </mxCell>
                <mxCell id="39" style="edgeStyle=none;html=1;exitX=1;exitY=0.25;exitDx=0;exitDy=0;entryX=0.25;entryY=1;entryDx=0;entryDy=0;" edge="1" parent="1" source="33" target="32">
                    <mxGeometry relative="1" as="geometry">
                        <mxPoint x="520" y="450" as="targetPoint"/>
                        <Array as="points">
                            <mxPoint x="740" y="506"/>
                            <mxPoint x="740" y="450"/>
                            <mxPoint x="480" y="450"/>
                            <mxPoint x="480" y="490"/>
                        </Array>
                    </mxGeometry>
                </mxCell>
                <mxCell id="33" value="" style="shape=image;verticalLabelPosition=bottom;labelBackgroundColor=default;verticalAlign=top;aspect=fixed;imageAspect=0;image=data:image/png,iVBORw0KGgoAAAANSUhEUgAAAGUAAACbCAYAAAB75FWmAAALgklEQVR4nO3d+3NU12HA8e8597mr1yIJvZAQAgQYg8A2GCUhjkmIG3vsOknrmWSa3/pTf+p0Os2fkZl4pr926mlSt9PEk3bixK3D+B0GbAw24WFAgC0w1iIk7Ur7vPee0x+WRxyEhLSLOI7PZ0ajGe3uvbv63udZ6a7QWmsso8j7/QSs29koBrJRDGSjGMhGMZBb7wS01sRxwtXJfCOez5dKR0cLvucihPjczxsQBWZyRV78z7frndSXzg+e+xq9vavuRRRNLl/kF788yOqMYnWbqneSf/Ymc5LJvGT/t3bQ07PqttvrjnJzQi48uavCc4+VGzXJP1u/fCvkF2+Hd7y9YVGkgM5WRWerHSBYTEerwnHufLs9+jKQjWIgG8VANoqBbBQD2SgGslEMZKMYyEYxkI1iIBvFQDaKgWwUA9koBrJRDGSjGMhGMZCNYiAbxUA2ioFsFAPZKAayUQxkoxjIRjGQjWIgG8VANoqBbBQD2SgGslEMZKMYyEYxkI1iIBvFQDaKgWwUA83738E3LgEmhEBrjdYgBLf9E/5yKAVK1y6KcJMAQW0eUtS+f5ndMUqSKEBQqUYUChUybWlc10FKsfw4GrKXXS7mBKWk9iMhQEpNEGraM4rVzZq0C440LJAGzecXqHu1EM0bZXqmwOtvnmBycpa+3nZePfABTemAv3xmNw/vHMLz3OWtOVry3ttp/uWYy6eVeW4XmtZVCSMPVPjOrog9axXN8v6GuRFAxzA97XDuisNEAfAVfd0Jm3o0ze6tNb0R5r+4gYYrV2b4+YtvEYYevu+Szxd55+BHrB/q4tmnd7Nv3zYybU3Ln7OjaUtrQhdQUC4LChVBfsrl7XdcjpyM2Le3zI++GrE+tfzZ1C0WnD/r86s3Aw6MuczEtTUGQLqKrjURTz1W4rmdisw9jXKd1ppSqUqpVAWgWo356MwVfvL8r/nXn73B/n3befIvdtbW4SWSXRX+7tky+4YUgQASwWTW4fCxkN8c8zg17XHgTRBo/vYbMX0NuzbG3VNlyXuHQ/7t9YCj04IYjR9oWnxIKpJcRXLl44AX/9vh7NUi//TtmNUNOHRa8kvVWhNFCdnsDP/10kFefuV9Btd2onVtJ37XJLgehD61KFrTNxDzdE+BB9aE/PtrIQcue7x7QrG+P+GHm/XKHioqwenjAS+9E3B0Glq6q3zza2WefTChJ4TynOTDYyEvvhVwIudy9N0UL3TP8Q87NQtc4eOuuC//9iilcpVSKaJSjqhUqswVylydzLNlSz/T03NMTMzc9kCta2tOtRozN1siSeA/3giRjubbD1Vpa1riNvb6TtP3NcNbq+y7Jvn4WsDYhMOJMZdPN0b01/tql6D0mcuhUx5HrgpSPVWe3Ffib3YmZDxwBLSECXu/UiaThp/+T8C5GYfDhwJObC0z4tc3b/f5f34ZrTTq+qFv7RBYo5RGK01yF4t/nNTuk805/N97AcN9CduHEpzlbGMFuKmE4f6YLV0+Z8clV646XJiN6M8sY3rLoeD8Jy4nxl3mnIRHhyO+sTVhlX/rxE5ICJoThjdWeGqLx/MfSqazHgc/KTOysb7Zu7lcse7XAOB7kt3DZf7+u0VWt6nl7GZuEdDZpuhbpXA/ccjNSSZywApFUZHDxxMO49Pgtyds6I/ZmL79TFsIaG5VPLAhpvO4z0xZcvoTSbxR1XV5KHfdui7C0CcMPMLAJwg9UqFPEHiEoUelEnHq9CU+OnN53gmk0z67dw0zfW2GHUNnGFitbj7hengpTUuTJgWUq4LZouDWcc+9pfKSiZxkKoZMRtHbnpC+ww5NBppMT8KAB5MxfHbVoYiitY75uz/+x+8hpUBKiZQCR0qU1szmS+RnSxSKZWZyxduiBIHHQzuGeGL/Tjo6W3nhhf8l5euGHasLFzxP4wmIE4iixkz3bsQFyWxJUkLTnVZkmmrnIfM+TwF+oOhMgS4IynOSfAKtC+z/KnFtn3z02AWmpmZxpKyNagiBEOBuf7D/tgfN5Iq8f3SM377yPkmiyM+Wbt7m+y6bhnt55qlH2DGyjo7OViayOS5cnGDfhjp/GwtZwRPISgSlCBLA9yDwFriz0DiuJhUAcwIVQWmBuwMUyhKl4KVfHSLw/+TCngJcz7s9qRAwMzPH+QsTpEKfMPRwHMlAfwdP7N/B6J5NrB3ooLk5dX04RlMszneKvnw6hmpVUNUQuBD6K3fFPaWuH96LP/pahOTW/Ra7e5LUNsTZbG7e2++4P2puChl9dJjR0U1IIRgfv8bX925hw/oe2tubGzI4uZByUTJTEJTQrAo1mToGD5bKkbUvNMQxRPHC91eqtklCgAwgvcj0PUcjgI0bemhKB2huDQJrreeP0twU8PhjWxndM0xfbzsaTWGuTE9PBmehix82iobslGR8UhI7mkyrom+lDoeBIICUDy6CYkVQKNeW7HkXQy2Iq5KpIgipaWpRtC5yltuUAinhr743yvqhrru7BG4QeAwOdn1u0LGuca4lquQcTl50OTkp8FtiBnpjhhZb/BrIbVK0pRVpJPlZybW8JGH+w1xVFcxNOlyqgpfW9HUnhItsRDyndkC0fn0327YO4DifrzhvUyFEfUP0dSjnJUc+CPjdSZfPEk1/f8wjGxMyKzjGIpsVPRlFpw+FaYfxrEN2vk2YhuKc5OyYS1ZDKpUwsk7VP8xS5+OXLxHMFQSTOYGrBMWiJHtN8tEFj0OnPU5NCtp6I/buqLKru/7xpKUQXsJQT8Jgu+Z81uH0BZf3N8Z0rtX4f7ScxhXB+MceB85KYk/RtbbKnq76DxTvWxSVd3ntYIrTxzVCCcplwVROcvmaJJdoetdV+ebuCk9sSVhd51jSkklYMxizYyjh5DWXSxd9Xvm9xouqPNSnWOVDIedw5pzHq4d9PsxDW3fE47siBoP6Z3//1pSiywenHD7g+jiSr2hp0nQPRHxlTcSOTTEPDyb0plf0FOWmdHvMnpEKl6YEr445HP9DSG7a4UiPos2F4qzDxcsup7MCvzPi8dEK31mvacTys7JRhGb4wQp/3R6Rv7GNvvF2sK9paVJ0dSjWdSV0NYN/P/+sw9EMDEU8nUDY5HPoosv4WMDZM9eftoR0c8LgpohHt1XYPxKzpgFrCdyHKJtHKmweWdG5LpsTKoY3V8i0J2y54HL8vMeRsx5ni5qevohvPVxl+9qYbf2KjgZuYu/f5usLQnrQ3RfT3Rsz0qsI5hzGzkNbZ8zow1Ueab21eb3xRl+9p3I2yt0S0JpRrOtNWHXO5cq4xytHEvzNCZ1h7XxlKifJVhQjDyR0LTRetggbZQn81oRNw1VGxxwOfOry+htpsuMx61o0cVFyacLhUhzzo84C3+9b/nxslCUQrmZgMOKZvZLoXY+TVx1O/iHgaALS1TQ3Kdb0aaJyfe/92ChL5Dcrtj9UZnVPzHtnXMamJLMRuKGitytm23DMzt76RrRtlGVwfM2awYg1g/fmnTf7B94GslEMZKMYyEYxkI1iIBvFQDaKgWwUA9koBrJRDGSjGMhGMZCNYiAbxUA2ioFsFAPZKAayUQxkoxjIRjGQjWIgG8VANoqBbBQD2SgGslEMZKMYyEYxkI1iIBvFQDaKgWwUA9koBrJRDGSjGMhGMZCNYiAbxUA2ioFsFAPZKAayUQxkoxjIRjGQjWIgG8VANoqBbBQD2SgGslEMZKMYyEYxkI1iIBvFQDaKgWwUA9koBrJRDGSjGMhGMZCNYiAbxUA2ioFsFAPZKAayUQzUsI9/ShSc/8zh3Kcr+dHLX0wXJxyi+T61+7qGRBGA0pJfHw6ZmrNRFnP4tEc5uvNGqu4oQkAq5bP7kQ0kSlN27sfHL3+xPLhdI6WgpTlEzPPrElrr+j7/zmo4u6M3kI1iIBvFQDaKgWwUA9koBrJRDGSjGMhGMdD/Awk21Vx/bx9pAAAAAElFTkSuQmCC;" vertex="1" parent="1">
                    <mxGeometry x="669" y="490.00000000000006" width="41" height="62.92" as="geometry"/>
                </mxCell>
                <mxCell id="36" value="" style="endArrow=none;html=1;entryX=1;entryY=0.75;entryDx=0;entryDy=0;" edge="1" parent="1" target="32">
                    <mxGeometry width="50" height="50" relative="1" as="geometry">
                        <mxPoint x="369" y="640" as="sourcePoint"/>
                        <mxPoint x="621.5" y="640" as="targetPoint"/>
                        <Array as="points">
                            <mxPoint x="555" y="640"/>
                        </Array>
                    </mxGeometry>
                </mxCell>
                <mxCell id="37" value="" style="endArrow=none;html=1;entryX=1;entryY=0;entryDx=0;entryDy=0;" edge="1" parent="1" target="32">
                    <mxGeometry width="50" height="50" relative="1" as="geometry">
                        <mxPoint x="369" y="738.13" as="sourcePoint"/>
                        <mxPoint x="555.15625" y="650.005" as="targetPoint"/>
                        <Array as="points">
                            <mxPoint x="580" y="738"/>
                        </Array>
                    </mxGeometry>
                </mxCell>
                <mxCell id="41" value="" style="endArrow=classic;html=1;entryX=-0.016;entryY=0.406;entryDx=0;entryDy=0;entryPerimeter=0;" edge="1" parent="1">
                    <mxGeometry width="50" height="50" relative="1" as="geometry">
                        <mxPoint x="220" y="612" as="sourcePoint"/>
                        <mxPoint x="268.41599999999994" y="612.10806" as="targetPoint"/>
                    </mxGeometry>
                </mxCell>
                <mxCell id="45" value="&lt;div style=&quot;color: rgb(212, 212, 212); font-family: &amp;quot;Ubuntu Mono derivative Powerline&amp;quot;, Consolas, &amp;quot;Courier New&amp;quot;, monospace; font-size: 9px; line-height: 19px;&quot;&gt;enqReq&lt;/div&gt;" style="edgeLabel;html=1;align=center;verticalAlign=middle;resizable=0;points=[];labelBackgroundColor=none;fontSize=9;" vertex="1" connectable="0" parent="41">
                    <mxGeometry x="-0.4344" y="1" relative="1" as="geometry">
                        <mxPoint x="6" y="-11" as="offset"/>
                    </mxGeometry>
                </mxCell>
                <mxCell id="42" value="" style="endArrow=classic;html=1;entryX=-0.016;entryY=0.406;entryDx=0;entryDy=0;entryPerimeter=0;" edge="1" parent="1">
                    <mxGeometry width="50" height="50" relative="1" as="geometry">
                        <mxPoint x="220" y="710" as="sourcePoint"/>
                        <mxPoint x="268.41599999999994" y="710.10806" as="targetPoint"/>
                    </mxGeometry>
                </mxCell>
                <mxCell id="46" value="&lt;div style=&quot;color: rgb(212, 212, 212); font-family: &amp;quot;Ubuntu Mono derivative Powerline&amp;quot;, Consolas, &amp;quot;Courier New&amp;quot;, monospace; font-size: 8px; line-height: 19px;&quot;&gt;deqReq&lt;/div&gt;" style="edgeLabel;html=1;align=center;verticalAlign=middle;resizable=0;points=[];fontSize=8;labelBackgroundColor=none;" vertex="1" connectable="0" parent="42">
                    <mxGeometry x="-0.4788" y="2" relative="1" as="geometry">
                        <mxPoint y="-8" as="offset"/>
                    </mxGeometry>
                </mxCell>
                <mxCell id="43" value="" style="endArrow=classic;html=1;entryX=-0.016;entryY=0.406;entryDx=0;entryDy=0;entryPerimeter=0;" edge="1" parent="1">
                    <mxGeometry width="50" height="50" relative="1" as="geometry">
                        <mxPoint x="230" y="535" as="sourcePoint"/>
                        <mxPoint x="538.7059999999999" y="535.10806" as="targetPoint"/>
                    </mxGeometry>
                </mxCell>
                <mxCell id="44" value="" style="endArrow=classic;html=1;entryX=-0.016;entryY=0.406;entryDx=0;entryDy=0;entryPerimeter=0;" edge="1" parent="1">
                    <mxGeometry width="50" height="50" relative="1" as="geometry">
                        <mxPoint x="734" y="505" as="sourcePoint"/>
                        <mxPoint x="852.4159999999999" y="505.10806" as="targetPoint"/>
                    </mxGeometry>
                </mxCell>
            </root>
        </mxGraphModel>
    </diagram>
</mxfile>